<svg width="12" height="12" viewBox="0 0 12 12" fill="none" xmlns="http://www.w3.org/2000/svg">
<path d="M2.66667 12C2.17778 12 1.72778 11.8833 1.31667 11.65C0.916667 11.4056 0.594444 11.0833 0.35 10.6833C0.116667 10.2722 0 9.82222 0 9.33333V2.66667C0 2.17778 0.116667 1.72778 0.35 1.31667C0.594444 0.905555 0.916667 0.583333 1.31667 0.35C1.72778 0.116667 2.17778 0 2.66667 0H9.33333C9.82222 0 10.2722 0.116667 10.6833 0.35C11.0944 0.583333 11.4167 0.905555 11.65 1.31667C11.8833 1.72778 12 2.17778 12 2.66667V9.33333C12 9.82222 11.8833 10.2722 11.65 10.6833C11.4167 11.0833 11.0944 11.4056 10.6833 11.65C10.2722 11.8833 9.82222 12 9.33333 12H2.66667ZM9.33333 10.6667C9.75555 10.6667 10.0833 10.55 10.3167 10.3167C10.55 10.0722 10.6667 9.74444 10.6667 9.33333V2.66667C10.6667 2.24444 10.55 1.91667 10.3167 1.68333C10.0833 1.45 9.75555 1.33333 9.33333 1.33333H2.66667C2.25556 1.33333 1.92778 1.45 1.68333 1.68333C1.45 1.91667 1.33333 2.24444 1.33333 2.66667V9.33333C1.33333 9.74444 1.45 10.0722 1.68333 10.3167C1.92778 10.55 2.25556 10.6667 2.66667 10.6667H9.33333ZM3.33333 6.66667C3.05556 6.66667 2.86111 6.55556 2.75 6.33333C2.65 6.11111 2.65 5.88889 2.75 5.66667C2.86111 5.44444 3.05556 5.33333 3.33333 5.33333H8.66667C8.94444 5.33333 9.13333 5.44444 9.23333 5.66667C9.34444 5.88889 9.34444 6.11111 9.23333 6.33333C9.13333 6.55556 8.94444 6.66667 8.66667 6.66667H3.33333ZM3.33333 4C3.05556 4 2.86111 3.88889 2.75 3.66667C2.65 3.44444 2.65 3.22222 2.75 3C2.86111 2.77778 3.05556 2.66667 3.33333 2.66667H8.66667C8.94444 2.66667 9.13333 2.77778 9.23333 3C9.34444 3.22222 9.34444 3.44444 9.23333 3.66667C9.13333 3.88889 8.94444 4 8.66667 4H3.33333ZM3.33333 9.33333C3.05556 9.33333 2.86111 9.22222 2.75 9C2.65 8.77778 2.65 8.55556 2.75 8.33333C2.86111 8.11111 3.05556 8 3.33333 8H8.66667C8.94444 8 9.13333 8.11111 9.23333 8.33333C9.34444 8.55556 9.34444 8.77778 9.23333 9C9.13333 9.22222 8.94444 9.33333 8.66667 9.33333H3.33333Z" fill="#76DBA1"/>
</svg>
