<svg width="9" height="5" viewBox="0 0 9 5" fill="none" xmlns="http://www.w3.org/2000/svg">
<path d="M8.74746 0.232762C8.58746 0.0836794 8.37112 1.46365e-06 8.14556 1.42421e-06C7.92 1.38478e-06 7.70365 0.0836792 7.54366 0.232761L4.47866 3.06629L1.45634 0.23276C1.29638 0.0836781 1.08 1.88833e-07 0.854443 1.49396e-07C0.628897 1.0996e-07 0.412511 0.0836779 0.252542 0.23276C0.172519 0.307177 0.109008 0.395706 0.0656626 0.493248C0.0223172 0.59079 -1.21589e-07 0.695407 -1.40064e-07 0.801074C-1.58546e-07 0.90678 0.0223171 1.0114 0.0656625 1.10889C0.109008 1.20647 0.172519 1.29499 0.252542 1.36936L3.87249 4.76323C3.95189 4.83831 4.04632 4.89786 4.1503 4.93845C4.25438 4.97911 4.36596 5 4.47866 5C4.59136 5 4.70294 4.97911 4.80702 4.93845C4.911 4.89786 5.00543 4.83831 5.08483 4.76323L8.74746 1.36936C8.82746 1.295 8.89098 1.20647 8.93435 1.10889C8.97772 1.0114 9 0.906782 9 0.801075C9 0.695409 8.97772 0.590791 8.93435 0.493249C8.89098 0.395708 8.82746 0.307179 8.74746 0.232762Z" fill="#95979F"/>
</svg>
