<svg width="24" height="24" viewBox="0 0 24 24" fill="none" xmlns="http://www.w3.org/2000/svg">
<path d="M11.2899 12L14.8299 8.46001C15.0162 8.27265 15.1207 8.0192 15.1207 7.75501C15.1207 7.49082 15.0162 7.23737 14.8299 7.05001C14.7369 6.95628 14.6263 6.88189 14.5045 6.83112C14.3826 6.78035 14.2519 6.75421 14.1199 6.75421C13.9879 6.75421 13.8572 6.78035 13.7353 6.83112C13.6135 6.88189 13.5029 6.95628 13.4099 7.05001L9.16995 11.29C9.07622 11.383 9.00183 11.4936 8.95106 11.6154C8.90029 11.7373 8.87415 11.868 8.87415 12C8.87415 12.132 8.90029 12.2627 8.95106 12.3846C9.00183 12.5064 9.07622 12.617 9.16995 12.71L13.4099 17C13.5033 17.0927 13.6142 17.166 13.736 17.2158C13.8578 17.2655 13.9883 17.2908 14.1199 17.29C14.2515 17.2908 14.382 17.2655 14.5038 17.2158C14.6256 17.166 14.7365 17.0927 14.8299 17C15.0162 16.8126 15.1207 16.5592 15.1207 16.295C15.1207 16.0308 15.0162 15.7774 14.8299 15.59L11.2899 12Z" fill="#DBDBDB"/>
</svg>
