<svg width="37" height="38" viewBox="0 0 37 38" fill="none" xmlns="http://www.w3.org/2000/svg">
<path d="M18.5402 37.3204C28.6636 37.3204 36.8702 29.1138 36.8702 18.9904C36.8702 8.86703 28.6636 0.6604 18.5402 0.6604C8.41683 0.6604 0.210205 8.86703 0.210205 18.9904C0.210205 29.1138 8.41683 37.3204 18.5402 37.3204Z" fill="#F7931A"/>
<path d="M26.7762 16.7221C27.136 14.3209 25.3064 13.0297 22.8066 12.1682L23.6177 8.91466L21.6381 8.42204L20.8476 11.5897C20.3275 11.4591 19.7936 11.3377 19.2609 11.2162L20.0571 8.02794L18.0775 7.53418L17.2664 10.7866C16.8356 10.6881 16.4117 10.5919 16.0016 10.4887L16.0039 10.4784L13.2727 9.79679L12.7457 11.9116C12.7457 11.9116 14.2156 12.2484 14.1847 12.2691C14.9866 12.4695 15.1309 13 15.1069 13.4216L14.1835 17.1277C14.2385 17.1414 14.3095 17.162 14.3897 17.193L14.1801 17.1414L12.8855 22.3334C12.787 22.5762 12.5384 22.9417 11.977 22.8031C11.9977 22.8317 10.5381 22.4445 10.5381 22.4445L9.55518 24.7106L12.1328 25.3532C12.6117 25.4735 13.0814 25.5996 13.5431 25.7176L12.724 29.0078L14.7025 29.5004L15.5136 26.2468C16.0543 26.3923 16.579 26.5275 17.0923 26.6558L16.2834 29.8957L18.2631 30.3883L19.0822 27.1049C22.4595 27.7442 24.9982 27.4864 26.0671 24.4322C26.9286 21.9737 26.0247 20.5542 24.2478 19.6297C25.5424 19.3318 26.5162 18.4806 26.7762 16.7221ZM22.251 23.0666C21.6404 25.5262 17.4989 24.1962 16.1563 23.8628L17.2446 19.5037C18.5873 19.8393 22.8914 20.5027 22.251 23.0666ZM22.8639 16.6866C22.306 18.924 18.86 17.7864 17.743 17.508L18.7282 13.5556C19.8452 13.834 23.4459 14.3529 22.8639 16.6866Z" fill="white"/>
</svg>
