<svg width="40" height="41" viewBox="0 0 40 41" fill="none" xmlns="http://www.w3.org/2000/svg">
<path d="M20 40.061C16.4 40.061 13.0667 39.161 10 37.361C6.93333 35.561 4.5 33.1276 2.7 30.061C0.9 26.9943 0 23.661 0 20.061C0 16.461 0.9 13.1276 2.7 10.061C4.5 6.96097 6.93333 4.52764 10 2.76097C13.0667 0.960974 16.4 0.0609741 20 0.0609741C23.6 0.0609741 26.9333 0.960974 30 2.76097C33.1 4.52764 35.5333 6.96097 37.3 10.061C39.1 13.1276 40 16.461 40 20.061C40 23.661 39.1 26.9943 37.3 30.061C35.5333 33.1276 33.1 35.561 30 37.361C26.9333 39.161 23.6 40.061 20 40.061ZM20 36.061C22.9667 36.061 25.6667 35.361 28.1 33.961C30.5667 32.561 32.5 30.6443 33.9 28.211C35.3 25.7443 36 23.0276 36 20.061C36 17.0943 35.3 14.3943 33.9 11.961C32.5 9.49431 30.5667 7.56097 28.1 6.16097C25.6667 4.76097 22.9667 4.06097 20 4.06097C17.0333 4.06097 14.3167 4.76097 11.85 6.16097C9.41667 7.56097 7.5 9.49431 6.1 11.961C4.7 14.3943 4 17.0943 4 20.061C4 23.0276 4.7 25.7443 6.1 28.211C7.5 30.6443 9.41667 32.561 11.85 33.961C14.3167 35.361 17.0333 36.061 20 36.061ZM15.4 27.461C14.8333 28.0276 14.2 28.1943 13.5 27.961C12.8 27.7276 12.3167 27.2776 12.05 26.611C11.8167 25.911 12 25.261 12.6 24.661L24.6 12.661C25.1667 12.0943 25.8 11.9276 26.5 12.161C27.2 12.3943 27.6667 12.861 27.9 13.561C28.1667 14.2276 28 14.861 27.4 15.461L15.4 27.461ZM12.6 15.461C12 14.861 11.8167 14.2276 12.05 13.561C12.2833 12.861 12.75 12.3943 13.45 12.161C14.1833 11.9276 14.8333 12.0943 15.4 12.661L27.4 24.661C27.9667 25.2276 28.1333 25.861 27.9 26.561C27.6667 27.261 27.2 27.7443 26.5 28.011C25.8333 28.2443 25.2 28.061 24.6 27.461L12.6 15.461Z" fill="url(#paint0_linear_171_673)"/>
<defs>
<linearGradient id="paint0_linear_171_673" x1="-0.263062" y1="25.8227" x2="28.5661" y2="25.9184" gradientUnits="userSpaceOnUse">
<stop stop-color="#0CEBEB"/>
<stop offset="0.472222" stop-color="#20E3B2"/>
<stop offset="1" stop-color="#29FFC6"/>
</linearGradient>
</defs>
</svg>
