<svg width="22" height="23" viewBox="0 0 22 23" fill="none" xmlns="http://www.w3.org/2000/svg">
<path d="M4.58331 9.4266H6.41665C8.24998 9.4266 9.16665 8.50993 9.16665 6.6766V4.84326C9.16665 3.00993 8.24998 2.09326 6.41665 2.09326H4.58331C2.74998 2.09326 1.83331 3.00993 1.83331 4.84326V6.6766C1.83331 8.50993 2.74998 9.4266 4.58331 9.4266Z" stroke="#111317" stroke-width="1.5" stroke-miterlimit="10" stroke-linecap="round" stroke-linejoin="round"/>
<path d="M15.5833 9.4266H17.4166C19.25 9.4266 20.1666 8.50993 20.1666 6.6766V4.84326C20.1666 3.00993 19.25 2.09326 17.4166 2.09326H15.5833C13.75 2.09326 12.8333 3.00993 12.8333 4.84326V6.6766C12.8333 8.50993 13.75 9.4266 15.5833 9.4266Z" stroke="#111317" stroke-width="1.5" stroke-miterlimit="10" stroke-linecap="round" stroke-linejoin="round"/>
<path d="M15.5833 20.4266H17.4166C19.25 20.4266 20.1666 19.5099 20.1666 17.6766V15.8433C20.1666 14.0099 19.25 13.0933 17.4166 13.0933H15.5833C13.75 13.0933 12.8333 14.0099 12.8333 15.8433V17.6766C12.8333 19.5099 13.75 20.4266 15.5833 20.4266Z" stroke="#111317" stroke-width="1.5" stroke-miterlimit="10" stroke-linecap="round" stroke-linejoin="round"/>
<path d="M4.58331 20.4266H6.41665C8.24998 20.4266 9.16665 19.5099 9.16665 17.6766V15.8433C9.16665 14.0099 8.24998 13.0933 6.41665 13.0933H4.58331C2.74998 13.0933 1.83331 14.0099 1.83331 15.8433V17.6766C1.83331 19.5099 2.74998 20.4266 4.58331 20.4266Z" stroke="#111317" stroke-width="1.5" stroke-miterlimit="10" stroke-linecap="round" stroke-linejoin="round"/>
</svg>
