<svg width="19" height="19" viewBox="0 0 19 19" fill="none" xmlns="http://www.w3.org/2000/svg">
<path d="M9.5 0C14.7469 0 19 4.25294 19 9.49952C19 14.7461 14.7469 18.999 9.5 18.999C7.9838 19.0011 6.48929 18.6388 5.14236 17.9427L1.50766 18.9563C1.30487 19.0129 1.09069 19.0145 0.887045 18.9611C0.683405 18.9077 0.497632 18.8011 0.348762 18.6522C0.199891 18.5033 0.0932757 18.3176 0.0398387 18.114C-0.0135982 17.9103 -0.011935 17.6961 0.0446579 17.4934L1.05926 13.8617C0.361342 12.5137 -0.00196536 11.0175 7.9961e-06 9.49952C7.9961e-06 4.25294 4.25316 0 9.5 0ZM9.5 1.42493C7.35838 1.42493 5.30447 2.27564 3.79012 3.78992C2.27576 5.3042 1.42501 7.35801 1.42501 9.49952C1.42501 10.896 1.77936 12.2382 2.44436 13.4295L2.58686 13.686L1.53046 17.4706L5.31811 16.4142L5.57461 16.5567C6.65227 17.1558 7.85283 17.5002 9.08423 17.5635C10.3156 17.6267 11.5452 17.4072 12.6785 16.9216C13.8119 16.436 14.8191 15.6974 15.6227 14.7623C16.4263 13.8272 17.0052 12.7204 17.3148 11.527C17.6244 10.3335 17.6565 9.085 17.4088 7.87718C17.161 6.66936 16.64 5.53431 15.8856 4.55907C15.1311 3.58383 14.1634 2.7943 13.0565 2.25103C11.9496 1.70775 10.733 1.42516 9.5 1.42493ZM9.5 12.8244C9.75196 12.8244 9.9936 12.9244 10.1718 13.1026C10.3499 13.2807 10.45 13.5224 10.45 13.7743C10.45 14.0262 10.3499 14.2679 10.1718 14.446C9.9936 14.6242 9.75196 14.7243 9.5 14.7243C9.24805 14.7243 9.00641 14.6242 8.82825 14.446C8.65009 14.2679 8.55 14.0262 8.55 13.7743C8.55 13.5224 8.65009 13.2807 8.82825 13.1026C9.00641 12.9244 9.24805 12.8244 9.5 12.8244ZM9.5 4.51227C10.1929 4.51227 10.8574 4.7875 11.3473 5.27742C11.8373 5.76733 12.1125 6.4318 12.1125 7.12464C12.1125 8.08409 11.8304 8.61987 11.1141 9.36558L10.9535 9.52802C10.3626 10.1189 10.2125 10.3697 10.2125 10.9244C10.2125 11.1134 10.1374 11.2946 10.0038 11.4282C9.8702 11.5619 9.68897 11.6369 9.5 11.6369C9.31104 11.6369 9.12981 11.5619 8.99619 11.4282C8.86257 11.2946 8.78751 11.1134 8.78751 10.9244C8.78751 9.965 9.06965 9.42922 9.78595 8.68351L9.9465 8.52107C10.5374 7.9302 10.6875 7.67941 10.6875 7.12464C10.6865 6.82092 10.5692 6.52912 10.3596 6.30925C10.1501 6.08939 9.86424 5.95818 9.5609 5.9426C9.25756 5.92703 8.95978 6.02828 8.72881 6.22552C8.49784 6.42277 8.35124 6.70102 8.31915 7.00305L8.3125 7.12464C8.3125 7.3136 8.23744 7.49482 8.10382 7.62843C7.9702 7.76204 7.78897 7.83711 7.60001 7.83711C7.41104 7.83711 7.22981 7.76204 7.09619 7.62843C6.96257 7.49482 6.88751 7.3136 6.88751 7.12464C6.88751 6.4318 7.16275 5.76733 7.65269 5.27742C8.14263 4.7875 8.80713 4.51227 9.5 4.51227Z" fill="#DBDBDB" fill-opacity="0.85"/>
</svg>
