<svg width="23" height="23" viewBox="0 0 23 23" fill="none" xmlns="http://www.w3.org/2000/svg">
<path d="M11.518 10.1291C11.4263 10.12 11.3163 10.12 11.2155 10.1291C9.03377 10.0558 7.30127 8.26829 7.30127 6.06829C7.30127 3.82246 9.11627 1.99829 11.3713 1.99829C13.6171 1.99829 15.4413 3.82246 15.4413 6.06829C15.4321 8.26829 13.6996 10.0558 11.518 10.1291Z" stroke="#DBDBDB" stroke-opacity="0.85" stroke-width="1.5" stroke-linecap="round" stroke-linejoin="round"/>
<path d="M6.78326 13.5115C4.56492 14.9965 4.56492 17.4165 6.78326 18.8924C9.30409 20.579 13.4382 20.579 15.9591 18.8924C18.1774 17.4074 18.1774 14.9874 15.9591 13.5115C13.4474 11.834 9.31326 11.834 6.78326 13.5115Z" stroke="#DBDBDB" stroke-opacity="0.85" stroke-width="1.5" stroke-linecap="round" stroke-linejoin="round"/>
</svg>
