<svg width="30" height="30" viewBox="0 0 30 30" fill="none" xmlns="http://www.w3.org/2000/svg">
<path d="M27.5 6H4.5C3.67157 6 3 6.67157 3 7.5C3 8.32843 3.67157 9 4.5 9H27.5C28.3284 9 29 8.32843 29 7.5C29 6.67157 28.3284 6 27.5 6Z" fill="white"/>
<path d="M27.5 15H4.5C3.67157 15 3 15.6716 3 16.5C3 17.3284 3.67157 18 4.5 18H27.5C28.3284 18 29 17.3284 29 16.5C29 15.6716 28.3284 15 27.5 15Z" fill="white"/>
<path d="M27.5 24H4.5C3.67157 24 3 24.6716 3 25.5C3 26.3284 3.67157 27 4.5 27H27.5C28.3284 27 29 26.3284 29 25.5C29 24.6716 28.3284 24 27.5 24Z" fill="white"/>
</svg>
