<svg width="450" height="57" viewBox="0 0 450 57" fill="none" xmlns="http://www.w3.org/2000/svg">
<path fill-rule="evenodd" clip-rule="evenodd" d="M450 0.330078H0V18.3301C5.40274 18.3302 9.7825 22.8073 9.7825 28.3301C9.7825 33.8529 5.40274 38.33 0 38.3301V56.3301H450V38.3301C444.597 38.3301 440.217 33.8529 440.217 28.3301C440.217 22.8073 444.597 18.3301 450 18.3301V0.330078ZM30.8477 25.3301C30.0192 25.3301 29.3477 26.0017 29.3477 26.8301C29.3477 27.6585 30.0192 28.3301 30.8477 28.3301H32.8288C33.6572 28.3301 34.3288 27.6585 34.3288 26.8301C34.3288 26.0017 33.6572 25.3301 32.8288 25.3301H30.8477ZM42.7345 25.3301C41.9061 25.3301 41.2345 26.0017 41.2345 26.8301C41.2345 27.6585 41.9061 28.3301 42.7345 28.3301H46.6968C47.5252 28.3301 48.1968 27.6585 48.1968 26.8301C48.1968 26.0017 47.5252 25.3301 46.6968 25.3301H42.7345ZM56.6025 25.3301C55.7741 25.3301 55.1025 26.0017 55.1025 26.8301C55.1025 27.6585 55.7741 28.3301 56.6025 28.3301H60.5648C61.3933 28.3301 62.0648 27.6585 62.0648 26.8301C62.0648 26.0017 61.3933 25.3301 60.5648 25.3301H56.6025ZM70.4706 25.3301C69.6421 25.3301 68.9706 26.0017 68.9706 26.8301C68.9706 27.6585 69.6421 28.3301 70.4706 28.3301H74.4328C75.2613 28.3301 75.9328 27.6585 75.9328 26.8301C75.9328 26.0017 75.2613 25.3301 74.4328 25.3301H70.4706ZM84.3386 25.3301C83.5101 25.3301 82.8386 26.0017 82.8386 26.8301C82.8386 27.6585 83.5101 28.3301 84.3386 28.3301H88.3009C89.1293 28.3301 89.8009 27.6585 89.8009 26.8301C89.8009 26.0017 89.1293 25.3301 88.3009 25.3301H84.3386ZM98.2066 25.3301C97.3781 25.3301 96.7066 26.0017 96.7066 26.8301C96.7066 27.6585 97.3781 28.3301 98.2066 28.3301H102.169C102.997 28.3301 103.669 27.6585 103.669 26.8301C103.669 26.0017 102.997 25.3301 102.169 25.3301H98.2066ZM112.075 25.3301C111.246 25.3301 110.575 26.0017 110.575 26.8301C110.575 27.6585 111.246 28.3301 112.075 28.3301H116.037C116.865 28.3301 117.537 27.6585 117.537 26.8301C117.537 26.0017 116.865 25.3301 116.037 25.3301H112.075ZM125.943 25.3301C125.114 25.3301 124.443 26.0017 124.443 26.8301C124.443 27.6585 125.114 28.3301 125.943 28.3301H129.905C130.733 28.3301 131.405 27.6585 131.405 26.8301C131.405 26.0017 130.733 25.3301 129.905 25.3301H125.943ZM139.811 25.3301C138.982 25.3301 138.311 26.0017 138.311 26.8301C138.311 27.6585 138.982 28.3301 139.811 28.3301H143.773C144.601 28.3301 145.273 27.6585 145.273 26.8301C145.273 26.0017 144.601 25.3301 143.773 25.3301H139.811ZM153.679 25.3301C152.85 25.3301 152.179 26.0017 152.179 26.8301C152.179 27.6585 152.85 28.3301 153.679 28.3301H157.641C158.469 28.3301 159.141 27.6585 159.141 26.8301C159.141 26.0017 158.469 25.3301 157.641 25.3301H153.679ZM167.547 25.3301C166.718 25.3301 166.047 26.0017 166.047 26.8301C166.047 27.6585 166.718 28.3301 167.547 28.3301H171.509C172.337 28.3301 173.009 27.6585 173.009 26.8301C173.009 26.0017 172.337 25.3301 171.509 25.3301H167.547ZM181.415 25.3301C180.586 25.3301 179.915 26.0017 179.915 26.8301C179.915 27.6585 180.586 28.3301 181.415 28.3301H185.377C186.205 28.3301 186.877 27.6585 186.877 26.8301C186.877 26.0017 186.205 25.3301 185.377 25.3301H181.415ZM195.283 25.3301C194.454 25.3301 193.783 26.0017 193.783 26.8301C193.783 27.6585 194.454 28.3301 195.283 28.3301H199.245C200.073 28.3301 200.745 27.6585 200.745 26.8301C200.745 26.0017 200.073 25.3301 199.245 25.3301H195.283ZM209.151 25.3301C208.322 25.3301 207.651 26.0017 207.651 26.8301C207.651 27.6585 208.322 28.3301 209.151 28.3301H213.113C213.941 28.3301 214.613 27.6585 214.613 26.8301C214.613 26.0017 213.941 25.3301 213.113 25.3301H209.151ZM223.019 25.3301C222.19 25.3301 221.519 26.0017 221.519 26.8301C221.519 27.6585 222.19 28.3301 223.019 28.3301H226.981C227.809 28.3301 228.481 27.6585 228.481 26.8301C228.481 26.0017 227.809 25.3301 226.981 25.3301H223.019ZM236.887 25.3301C236.058 25.3301 235.387 26.0017 235.387 26.8301C235.387 27.6585 236.058 28.3301 236.887 28.3301H240.849C241.677 28.3301 242.349 27.6585 242.349 26.8301C242.349 26.0017 241.677 25.3301 240.849 25.3301H236.887ZM250.755 25.3301C249.926 25.3301 249.255 26.0017 249.255 26.8301C249.255 27.6585 249.926 28.3301 250.755 28.3301H254.717C255.545 28.3301 256.217 27.6585 256.217 26.8301C256.217 26.0017 255.545 25.3301 254.717 25.3301H250.755ZM264.623 25.3301C263.794 25.3301 263.123 26.0017 263.123 26.8301C263.123 27.6585 263.794 28.3301 264.623 28.3301H268.585C269.413 28.3301 270.085 27.6585 270.085 26.8301C270.085 26.0017 269.413 25.3301 268.585 25.3301H264.623ZM278.491 25.3301C277.662 25.3301 276.991 26.0017 276.991 26.8301C276.991 27.6585 277.662 28.3301 278.491 28.3301H282.453C283.281 28.3301 283.953 27.6585 283.953 26.8301C283.953 26.0017 283.281 25.3301 282.453 25.3301H278.491ZM292.359 25.3301C291.53 25.3301 290.859 26.0017 290.859 26.8301C290.859 27.6585 291.53 28.3301 292.359 28.3301H296.321C297.149 28.3301 297.821 27.6585 297.821 26.8301C297.821 26.0017 297.149 25.3301 296.321 25.3301H292.359ZM306.227 25.3301C305.398 25.3301 304.727 26.0017 304.727 26.8301C304.727 27.6585 305.398 28.3301 306.227 28.3301H310.189C311.017 28.3301 311.689 27.6585 311.689 26.8301C311.689 26.0017 311.017 25.3301 310.189 25.3301H306.227ZM320.095 25.3301C319.266 25.3301 318.595 26.0017 318.595 26.8301C318.595 27.6585 319.266 28.3301 320.095 28.3301H324.057C324.885 28.3301 325.557 27.6585 325.557 26.8301C325.557 26.0017 324.885 25.3301 324.057 25.3301H320.095ZM333.963 25.3301C333.134 25.3301 332.463 26.0017 332.463 26.8301C332.463 27.6585 333.134 28.3301 333.963 28.3301H337.925C338.753 28.3301 339.425 27.6585 339.425 26.8301C339.425 26.0017 338.753 25.3301 337.925 25.3301H333.963ZM347.831 25.3301C347.002 25.3301 346.331 26.0017 346.331 26.8301C346.331 27.6585 347.002 28.3301 347.831 28.3301H351.793C352.621 28.3301 353.293 27.6585 353.293 26.8301C353.293 26.0017 352.621 25.3301 351.793 25.3301H347.831ZM361.699 25.3301C360.87 25.3301 360.199 26.0017 360.199 26.8301C360.199 27.6585 360.87 28.3301 361.699 28.3301H365.661C366.49 28.3301 367.161 27.6585 367.161 26.8301C367.161 26.0017 366.49 25.3301 365.661 25.3301H361.699ZM375.567 25.3301C374.738 25.3301 374.067 26.0017 374.067 26.8301C374.067 27.6585 374.738 28.3301 375.567 28.3301H379.529C380.358 28.3301 381.029 27.6585 381.029 26.8301C381.029 26.0017 380.358 25.3301 379.529 25.3301H375.567ZM389.435 25.3301C388.606 25.3301 387.935 26.0017 387.935 26.8301C387.935 27.6585 388.606 28.3301 389.435 28.3301H393.397C394.226 28.3301 394.897 27.6585 394.897 26.8301C394.897 26.0017 394.226 25.3301 393.397 25.3301H389.435ZM403.303 25.3301C402.474 25.3301 401.803 26.0017 401.803 26.8301C401.803 27.6585 402.474 28.3301 403.303 28.3301H407.265C408.094 28.3301 408.765 27.6585 408.765 26.8301C408.765 26.0017 408.094 25.3301 407.265 25.3301H403.303ZM417.171 25.3301C416.342 25.3301 415.671 26.0017 415.671 26.8301C415.671 27.6585 416.342 28.3301 417.171 28.3301H419.152C419.98 28.3301 420.652 27.6585 420.652 26.8301C420.652 26.0017 419.98 25.3301 419.152 25.3301H417.171Z" fill="#171B20"/>
</svg>
