<svg width="48" height="49" viewBox="0 0 48 49" fill="none" xmlns="http://www.w3.org/2000/svg">
<path d="M6 17H42V21H6V17ZM12 41C9.5 41 7.53333 40.3 6.1 38.9C4.7 37.4667 4 35.5 4 33V17C4 14.4667 4.7 12.5 6.1 11.1C7.53333 9.7 9.5 9 12 9H36C38.5 9 40.45 9.7 41.85 11.1C43.2833 12.5 44 14.4667 44 17V33C44 35.5 43.2833 37.4667 41.85 38.9C40.45 40.3 38.5 41 36 41H12ZM8 33C8 34.5333 8.28333 35.5833 8.85 36.15C9.41667 36.7167 10.4667 37 12 37H36C37.5333 37 38.5833 36.7167 39.15 36.15C39.7167 35.5833 40 34.5333 40 33V17C40 15.4667 39.7167 14.4167 39.15 13.85C38.5833 13.2833 37.5333 13 36 13H12C10.4667 13 9.41667 13.2833 8.85 13.85C8.28333 14.4167 8 15.4667 8 17V33Z" fill="url(#paint0_linear_171_937)"/>
<defs>
<linearGradient id="paint0_linear_171_937" x1="3.73694" y1="29.6094" x2="32.5659" y2="29.729" gradientUnits="userSpaceOnUse">
<stop stop-color="#0CEBEB"/>
<stop offset="0.472222" stop-color="#20E3B2"/>
<stop offset="1" stop-color="#29FFC6"/>
</linearGradient>
</defs>
</svg>
