<svg width="25" height="25" viewBox="0 0 25 25" fill="none" xmlns="http://www.w3.org/2000/svg">
<path d="M13.178 20.2871C13.4528 20.351 13.4779 20.7108 13.2103 20.8L11.6303 21.32C7.66034 22.6 5.57034 21.53 4.28034 17.56L3.00034 13.61C1.72034 9.64004 2.78034 7.54004 6.75034 6.26004L7.27434 6.08651C7.6772 5.95309 8.06927 6.35715 7.95487 6.76583C7.89817 6.9684 7.84362 7.1798 7.79034 7.40004L6.81034 11.59C5.71034 16.3 7.32034 18.9 12.0303 20.02L13.178 20.2871Z" fill="#62646C"/>
<path d="M17.6702 3.54057L16.0002 3.15057C12.6602 2.36057 10.6702 3.01057 9.50018 5.43057C9.20018 6.04057 8.96018 6.78057 8.76018 7.63057L7.78018 11.8206C6.80018 16.0006 8.09018 18.0606 12.2602 19.0506L13.9402 19.4506C14.5202 19.5906 15.0602 19.6806 15.5602 19.7206C18.6802 20.0206 20.3402 18.5606 21.1802 14.9506L22.1602 10.7706C23.1402 6.59058 21.8602 4.52057 17.6702 3.54057ZM15.7902 13.6606C15.7002 14.0006 15.4002 14.2206 15.0602 14.2206C15.0002 14.2206 14.9402 14.2106 14.8702 14.2006L11.9602 13.4606C11.5602 13.3606 11.3202 12.9506 11.4202 12.5506C11.5202 12.1506 11.9302 11.9106 12.3302 12.0106L15.2402 12.7506C15.6502 12.8506 15.8902 13.2606 15.7902 13.6606ZM18.7202 10.2806C18.6302 10.6206 18.3302 10.8406 17.9902 10.8406C17.9302 10.8406 17.8702 10.8306 17.8002 10.8206L12.9502 9.59057C12.5502 9.49057 12.3102 9.08057 12.4102 8.68057C12.5102 8.28057 12.9202 8.04058 13.3202 8.14057L18.1702 9.37057C18.5802 9.46057 18.8202 9.87057 18.7202 10.2806Z" fill="#62646C"/>
</svg>
