<svg width="17" height="18" viewBox="0 0 17 18" fill="none" xmlns="http://www.w3.org/2000/svg">
<g filter="url(#filter0_d_1_1296)">
<path d="M14.3841 3.46955C13.3074 2.96594 12.1417 2.60041 10.9274 2.38921C10.9167 2.38887 10.9061 2.39088 10.8964 2.39509C10.8866 2.3993 10.8778 2.40561 10.8707 2.41358C10.725 2.68164 10.555 3.03092 10.4417 3.29897C9.15367 3.10403 7.84382 3.10403 6.55584 3.29897C6.4425 3.0228 6.2725 2.68164 6.11868 2.41358C6.11059 2.39734 6.0863 2.38921 6.06201 2.38921C4.84769 2.60041 3.69004 2.96594 2.60525 3.46955C2.59716 3.46955 2.58906 3.47768 2.58097 3.4858C0.379 6.79181 -0.228159 10.0085 0.0713729 13.1926C0.0713729 13.2089 0.0794683 13.2251 0.0956592 13.2332C1.55284 14.3055 2.95336 14.9553 4.33768 15.3858C4.36197 15.3939 4.38625 15.3858 4.39435 15.3696C4.71817 14.9228 5.0096 14.4517 5.26056 13.9562C5.27675 13.9237 5.26056 13.8912 5.22818 13.8831C4.76674 13.7044 4.32958 13.4932 3.90053 13.2495C3.86814 13.2332 3.86814 13.1845 3.89243 13.1601C3.98148 13.0952 4.07053 13.0221 4.15958 12.9571C4.17577 12.9408 4.20006 12.9408 4.21625 12.9489C7.00109 14.2242 10.0045 14.2242 12.757 12.9489C12.7731 12.9408 12.7974 12.9408 12.8136 12.9571C12.9027 13.0302 12.9917 13.0952 13.0808 13.1683C13.1132 13.1926 13.1132 13.2414 13.0727 13.2576C12.6517 13.5094 12.2065 13.7125 11.745 13.8912C11.7126 13.8993 11.7045 13.9399 11.7126 13.9643C11.9717 14.4598 12.2631 14.9309 12.5789 15.3777C12.6031 15.3858 12.6274 15.3939 12.6517 15.3858C14.0441 14.9553 15.4446 14.3055 16.9018 13.2332C16.918 13.2251 16.9261 13.2089 16.9261 13.1926C17.2823 9.51297 16.3352 6.32068 14.4165 3.4858C14.4084 3.47768 14.4003 3.46955 14.3841 3.46955ZM5.68153 11.2513C4.84769 11.2513 4.15148 10.4796 4.15148 9.52922C4.15148 8.57884 4.8315 7.80717 5.68153 7.80717C6.53965 7.80717 7.21966 8.58696 7.21157 9.52922C7.21157 10.4796 6.53155 11.2513 5.68153 11.2513ZM11.3241 11.2513C10.4902 11.2513 9.79402 10.4796 9.79402 9.52922C9.79402 8.57884 10.474 7.80717 11.3241 7.80717C12.1822 7.80717 12.8622 8.58696 12.8541 9.52922C12.8541 10.4796 12.1822 11.2513 11.3241 11.2513Z" fill="#76DBA1"/>
</g>
<defs>
<filter id="filter0_d_1_1296" x="-7" y="-4.61082" width="31" height="27" filterUnits="userSpaceOnUse" color-interpolation-filters="sRGB">
<feFlood flood-opacity="0" result="BackgroundImageFix"/>
<feColorMatrix in="SourceAlpha" type="matrix" values="0 0 0 0 0 0 0 0 0 0 0 0 0 0 0 0 0 0 127 0" result="hardAlpha"/>
<feOffset/>
<feGaussianBlur stdDeviation="3.5"/>
<feComposite in2="hardAlpha" operator="out"/>
<feColorMatrix type="matrix" values="0 0 0 0 1 0 0 0 0 1 0 0 0 0 1 0 0 0 0.1 0"/>
<feBlend mode="normal" in2="BackgroundImageFix" result="effect1_dropShadow_1_1296"/>
<feBlend mode="normal" in="SourceGraphic" in2="effect1_dropShadow_1_1296" result="shape"/>
</filter>
</defs>
</svg>
