<svg width="40" height="30" viewBox="0 0 40 30" fill="none" xmlns="http://www.w3.org/2000/svg">
<path d="M33.827 2.52508C31.2786 1.34635 28.5303 0.560532 25.6821 0.0202822C25.6821 -0.0288307 25.5821 0.0202822 25.5322 0.0693951L24.5328 2.13217C21.4847 1.69015 18.4366 1.69015 15.4385 2.13217C15.1387 1.49369 14.689 0.707874 14.3892 0.0693951C14.3892 0.0202822 14.2892 -0.0288307 14.2892 0.0202822C11.3911 0.560532 8.69276 1.34635 6.14436 2.52508H6.09439C0.897661 10.1868 -0.50146 17.603 0.148132 24.9209C0.148132 24.97 0.148132 24.97 0.1981 25.0191C3.64593 27.4748 6.94386 28.9973 10.1918 29.9796C10.2418 30.0287 10.2918 29.9796 10.3417 29.9305C11.0913 28.8991 11.7908 27.8186 12.3904 26.6399C12.4404 26.5908 12.3904 26.4925 12.2905 26.4925C11.2412 26.0996 10.1918 25.5594 9.19245 25.0191C9.09251 24.97 9.09251 24.8718 9.19245 24.8227C9.39232 24.6753 9.5922 24.528 9.79207 24.3315H9.89201C16.4879 27.2783 23.5334 27.2783 30.0294 24.3315C30.0793 24.3315 30.1293 24.3315 30.1293 24.3315L30.7789 24.8227C30.8788 24.8718 30.8288 24.97 30.7289 25.0191C29.7795 25.6085 28.6802 26.0996 27.6309 26.4925C27.5309 26.4925 27.5309 26.5908 27.5309 26.6399C28.1305 27.8186 28.8801 28.8991 29.5796 29.9305C29.6296 29.9796 29.6796 30.0287 29.7295 29.9796C33.0275 28.9973 36.3254 27.4748 39.7732 25.0191C39.7732 24.97 39.8232 24.97 39.8232 24.9209C40.6727 16.4733 38.4241 9.05719 33.8769 2.52508H33.827ZM9.7421 16.4733C9.7421 14.3123 11.3411 12.5443 13.3398 12.5443C15.3386 12.5443 16.9875 14.3123 16.9376 16.4733C16.9376 18.6835 15.3386 20.4516 13.3398 20.4516C11.3911 20.4516 9.7421 18.6835 9.7421 16.4733ZM23.0337 16.4733C23.0337 14.3123 24.6827 12.5443 26.6815 12.5443C28.6802 12.5443 30.2792 14.3123 30.2292 16.4733C30.2292 18.6835 28.6802 20.4516 26.6815 20.4516C24.6827 20.4516 23.0337 18.6835 23.0337 16.4733Z" fill="url(#paint0_linear_171_701)"/>
<defs>
<linearGradient id="paint0_linear_171_701" x1="-0.263062" y1="19.3212" x2="28.5658" y2="19.4488" gradientUnits="userSpaceOnUse">
<stop stop-color="#0CEBEB"/>
<stop offset="0.472222" stop-color="#20E3B2"/>
<stop offset="1" stop-color="#29FFC6"/>
</linearGradient>
</defs>
</svg>
