<svg width="25" height="40" viewBox="0 0 25 40" fill="none" xmlns="http://www.w3.org/2000/svg">
<path d="M14.4068 38.0212C14.4068 38.8561 14.0537 39.4406 13.3475 39.7745C12.6412 40.0751 11.935 40.0751 11.2288 39.7745C10.5226 39.4406 10.1695 38.8561 10.1695 38.0212V1.9536C10.1695 1.1187 10.5226 0.550974 11.2288 0.250409C11.935 -0.0835511 12.6412 -0.0835511 13.3475 0.250409C14.0537 0.550974 14.4068 1.1187 14.4068 1.9536V38.0212ZM0.635593 31.8597C3.15703e-07 31.2252 -0.158898 30.5739 0.158898 29.906C0.476694 29.2047 1.02401 28.7706 1.80085 28.6036C2.57768 28.4032 3.24859 28.5869 3.81356 29.1546C4.76695 30.1565 5.96751 30.8912 7.41525 31.3587C8.8983 31.7929 10.5226 32.01 12.2881 32.01C13.6653 32.01 15.0071 31.8263 16.3136 31.4589C17.6201 31.0916 18.6794 30.5238 19.4915 29.7557C20.339 28.9876 20.7627 28.0692 20.7627 27.0006C20.7627 25.8985 20.4096 25.0469 19.7034 24.4458C19.0325 23.8446 18.1674 23.4272 17.108 23.1934C16.084 22.9597 14.654 22.7259 12.8178 22.4921C10.2754 22.2249 8.19209 21.8576 6.5678 21.39C4.9435 20.9225 3.54873 20.0375 2.38347 18.7351C1.21822 17.3992 0.635593 15.479 0.635593 12.9743C0.635593 10.9705 1.23588 9.30071 2.43644 7.96487C3.63701 6.59564 5.12006 5.59376 6.88559 4.95924C8.68644 4.29132 10.4873 3.95736 12.2881 3.95736C14.4774 3.95736 16.6137 4.29132 18.697 4.95924C20.8157 5.59376 22.5812 6.64573 23.9936 8.11516C24.5233 8.68289 24.6469 9.33411 24.3644 10.0688C24.0819 10.7701 23.5699 11.221 22.8284 11.4214C22.0869 11.6217 21.416 11.4214 20.8157 10.8202C19.8623 9.81835 18.6441 9.10034 17.161 8.66619C15.678 8.19865 14.0537 7.96487 12.2881 7.96487C10.9463 7.96487 9.71045 8.14855 8.58051 8.51591C7.48587 8.84987 6.58545 9.4009 5.87924 10.169C5.20833 10.9037 4.87288 11.8388 4.87288 12.9743C4.87288 14.0763 5.20833 14.9279 5.87924 15.5291C6.58545 16.0968 7.45056 16.5142 8.47458 16.7814C9.5339 17.0152 10.9816 17.2323 12.8178 17.4326C15.3602 17.7332 17.4435 18.1172 19.0678 18.5848C20.7274 19.0523 22.1222 19.954 23.2521 21.2899C24.4174 22.5923 25 24.4959 25 27.0006C25 28.9709 24.3114 30.6407 22.9343 32.01C21.5925 33.3792 19.9329 34.3978 17.9555 35.0657C15.9781 35.7002 14.089 36.0175 12.2881 36.0175C10.0989 36.0175 7.94492 35.6835 5.82627 35.0156C3.74294 34.3477 2.01271 33.2957 0.635593 31.8597Z" fill="url(#paint0_linear_171_721)"/>
<defs>
<linearGradient id="paint0_linear_171_721" x1="-0.164414" y1="25.7617" x2="17.8539" y2="25.799" gradientUnits="userSpaceOnUse">
<stop stop-color="#0CEBEB"/>
<stop offset="0.472222" stop-color="#20E3B2"/>
<stop offset="1" stop-color="#29FFC6"/>
</linearGradient>
</defs>
</svg>
