<svg width="10" height="12" viewBox="0 0 10 12" fill="none" xmlns="http://www.w3.org/2000/svg">
<path d="M0.908497 0C0.243717 0 0 0.253863 0 0.93933V9.22006C0 9.29843 0.00398939 9.37043 0.00979217 9.43717C0.0268378 9.58754 0.0268378 9.73416 0.162478 9.89803C0.175534 9.91753 0.311899 10.021 0.311899 10.021C0.385522 10.0581 0.436296 10.0855 0.519349 10.1204L4.55047 11.8663C4.75828 11.9642 4.8475 12.0054 4.99837 11.9994H5.00018C5.15287 12.0054 5.24208 11.9646 5.4499 11.8663L9.47884 10.1204C9.56407 10.0855 9.61267 10.0578 9.6881 10.021C9.6881 10.021 9.82447 9.9134 9.83752 9.89803C9.97353 9.73416 9.97353 9.58754 9.99021 9.43717C9.99601 9.3708 10 9.29881 10 9.22231V0.939705C10 0.254238 9.75447 0.000374982 9.0915 0.000374982L0.908497 0ZM7.36699 1.5543H7.69521C8.24321 1.5543 8.51159 1.82991 8.51159 2.40439V3.34372H7.84681V2.44113C7.84681 2.25777 7.76557 2.17377 7.5933 2.17377H7.48014C7.3028 2.17377 7.22156 2.25777 7.22156 2.44113V5.34687C7.22156 5.53024 7.3028 5.61423 7.48014 5.61423H7.60672C7.77645 5.61423 7.85769 5.53024 7.85769 5.34687V4.30779H8.52247V5.38024C8.52247 5.95209 8.25082 6.2337 7.70101 6.2337H7.36699C6.81536 6.2337 6.54481 5.95022 6.54481 5.38024V2.40926C6.54481 1.83741 6.815 1.5543 7.36699 1.5543ZM1.47318 1.59405H2.97864V2.23264H2.1492V3.53308H2.94854V4.17018H2.1492V5.55648H2.99024V6.19545H1.47318V1.59405ZM3.31846 1.59405H4.38037C4.92982 1.59405 5.20183 1.87716 5.20183 2.44901V3.67182C5.20183 4.24367 4.92946 4.52528 4.38037 4.52528H3.99703V6.19508H3.31846V1.59405ZM5.50792 1.59405H6.18395V6.19545H5.50792V1.59405ZM3.99485 2.21277V3.90769H4.27447C4.44457 3.90769 4.5258 3.82219 4.5258 3.63808V2.48201C4.5258 2.29864 4.44457 2.21239 4.27447 2.21239L3.99485 2.21277ZM2.13035 7.28853H2.23044L2.25329 7.29265H2.28956L2.30842 7.29865H2.32728L2.34432 7.30428L2.36318 7.3084L2.37805 7.31253L2.41178 7.3204L2.431 7.32603L2.44406 7.33015L2.45893 7.33615L2.47779 7.34215L2.49084 7.34777L2.51006 7.35565L2.52711 7.36352L2.54198 7.3729L2.55903 7.38077L2.57208 7.39015L2.5913 7.40027L2.60617 7.40965L2.62104 7.41752L2.63591 7.42915L2.65151 7.43927L2.66456 7.45089L2.7099 7.48652L2.69829 7.50189L2.68524 7.51539L2.67363 7.52927L2.66057 7.54464L2.65151 7.55814L2.6399 7.57201L2.62685 7.58551L2.61524 7.60089L2.60617 7.61439L2.59275 7.63051L2.58151 7.64401L2.56845 7.65938L2.55685 7.67326L2.54778 7.68863L2.53436 7.70213L2.52312 7.71826L2.51006 7.73176L2.49846 7.74526L2.4854 7.73588L2.47053 7.72201L2.45494 7.71263L2.42701 7.69313L2.40997 7.68301L2.39437 7.67363L2.37733 7.66351L2.36427 7.65563L2.3494 7.64813L2.31894 7.63614L2.30008 7.63276L2.28521 7.62864L2.26816 7.62451L2.24894 7.62039L2.23008 7.61851H2.21122L2.1891 7.61439H2.15283L2.13397 7.61626H2.11511L2.09625 7.62226L2.08138 7.62639L2.06434 7.63239L2.04729 7.63576L2.0317 7.64364L2.01284 7.65151L1.98673 7.67101L1.97113 7.68038L1.95808 7.69238L1.94502 7.70176L1.9316 7.71376L1.92253 7.72726L1.90694 7.74076L1.88808 7.76813L1.87901 7.7835L1.8714 7.80113L1.86233 7.815L1.85254 7.83263L1.84673 7.85025L1.83948 7.86562L1.83368 7.88512L1.83186 7.90462L1.82642 7.92262L1.82243 7.94212V7.96162L1.82062 7.98112V8.02612L1.82243 8.04562V8.06099L1.82425 8.08049L1.82751 8.09811L1.83332 8.11349L1.83513 8.13336L1.84093 8.14874L1.84637 8.16224L1.85399 8.18173L1.86378 8.20123L1.87103 8.21511L1.88989 8.24623L1.9015 8.26161L1.91056 8.27548L1.92616 8.2871L1.93523 8.3006L1.94828 8.3126L1.97875 8.33623L1.9918 8.34373L2.00667 8.35385L2.02408 8.36173L2.04294 8.36923L2.056 8.3771L2.09371 8.38872L2.11076 8.3906L2.12962 8.3966L2.14848 8.39847H2.22972L2.25257 8.3966H2.26961L2.28883 8.38872L2.30769 8.38685L2.32655 8.38122L2.34142 8.3771L2.35847 8.36923L2.37334 8.36173L2.39038 8.35385L2.40199 8.34598L2.41686 8.3366V8.16261H2.15029V7.88362H2.75269V8.50872L2.73964 8.51809L2.72658 8.52972L2.71316 8.53984L2.69829 8.55147L2.68342 8.55934L2.67037 8.57134L2.6399 8.59084L2.62104 8.60021L2.59094 8.61971L2.57172 8.62759L2.55685 8.63509L2.5398 8.64296L2.50209 8.65834L2.48722 8.66621L2.45276 8.67784L2.43572 8.68196L2.41867 8.68796L2.39981 8.69396L2.38494 8.69733L2.32836 8.70933L2.31096 8.71121L2.27324 8.71533L2.25257 8.71721L2.23371 8.71871L2.21303 8.72058H2.11874L2.09988 8.71721H2.08102L2.06216 8.71308H2.04512L2.02626 8.70708L1.97113 8.69546L1.95626 8.68946L1.93922 8.68758L1.92036 8.67971L1.8859 8.66809L1.85217 8.65271L1.83332 8.64484L1.82026 8.63696L1.8014 8.62946L1.78798 8.61746L1.76912 8.60996L1.75788 8.59984L1.74301 8.59046L1.71254 8.56684L1.69768 8.55672L1.68607 8.54509L1.6712 8.53309L1.64654 8.50797L1.63348 8.49597L1.62224 8.48247L1.60882 8.4686L1.59975 8.45322L1.58815 8.4416L1.57908 8.42547L1.56748 8.4101L1.55841 8.3966L1.54862 8.38122L1.53955 8.36322L1.53193 8.34785L1.52432 8.33023L1.51706 8.31485L1.50219 8.27923L1.49639 8.26573L1.48878 8.24811L1.48479 8.23048L1.48152 8.21511L1.47753 8.19561L1.47173 8.17761L1.46774 8.15811L1.46593 8.14274L1.46266 8.12324L1.45867 8.08836L1.45468 8.04937V7.94587L1.45867 7.926V7.9065L1.46448 7.887V7.8675L1.46992 7.84987L1.47572 7.83038L1.48334 7.7955L1.48878 7.776L1.49458 7.75838L1.51743 7.70551L1.52468 7.69013L1.5323 7.67251L1.54209 7.65451L1.54934 7.63913L1.55913 7.62564L1.57799 7.59414L1.58924 7.57876L1.60084 7.56526L1.60991 7.54989L1.63457 7.52439L1.64581 7.51052L1.65923 7.49702L1.67047 7.48352L1.68607 7.47152L1.71218 7.44789L1.72705 7.43627L1.74265 7.42615L1.7557 7.41452L1.77057 7.4044L1.78617 7.3969L1.80321 7.38677L1.82207 7.3774L1.83513 7.36727L1.85399 7.35977L1.87103 7.3519L1.88808 7.34252L1.90367 7.3384L1.92253 7.3324L1.9374 7.32453L1.95445 7.32115L1.97149 7.31515L1.99035 7.31103L2.00595 7.30503L2.02481 7.3009H2.04367L2.06071 7.29528H2.07957L2.09843 7.29115H2.11548L2.13035 7.28853ZM7.92768 7.29265H8.02778L8.05063 7.29678H8.08653L8.10539 7.3024H8.12607L8.14493 7.3084L8.17865 7.31628L8.19751 7.3204L8.21456 7.32378L8.23378 7.32978L8.25082 7.33577L8.26569 7.3399L8.28274 7.34552L8.3016 7.35152L8.31647 7.3594L8.33533 7.3669L8.35274 7.37477L8.36978 7.3849L8.38284 7.3924L8.39988 7.40252L8.41693 7.41002L8.43252 7.42015L8.44957 7.43177L8.46263 7.4419L8.49309 7.46552L8.50796 7.47489L8.49636 7.49027L8.48729 7.50639L8.47604 7.51989L8.46444 7.53526L8.45537 7.55289L8.44558 7.56901L8.43434 7.58251L8.42273 7.59789L8.41367 7.61401L8.40206 7.62939L8.39299 7.64288L8.38139 7.65826L8.37232 7.67626L8.36071 7.69163L8.34947 7.70513L8.33787 7.72051L8.3288 7.73663L8.31393 7.72463L8.29652 7.71526L8.28347 7.70513L8.2686 7.69576L8.25155 7.68788L8.23596 7.67776L8.21891 7.67026L8.20585 7.66238L8.18699 7.65488L8.17358 7.64701L8.15871 7.64101L8.12498 7.62939L8.08726 7.61739L8.03068 7.60576L8.01182 7.60389L7.97737 7.59976H7.93784L7.91717 7.60389L7.89831 7.60801L7.88126 7.61214L7.86639 7.61964L7.85297 7.62751L7.8381 7.64101L7.82686 7.65863L7.81924 7.67663V7.72313L7.82904 7.7445L7.83629 7.7565L7.84789 7.76813L7.86675 7.77825L7.88162 7.78763L7.89867 7.7955L7.91753 7.803L7.94219 7.809L7.95525 7.815L7.97084 7.81913L7.9897 7.82325L8.00457 7.82888L8.02162 7.833L8.04229 7.839L8.06115 7.845L8.08182 7.85063L8.10249 7.85475L8.11954 7.86075L8.14021 7.86637L8.15907 7.8705L8.17611 7.87462L8.23305 7.89225L8.24792 7.89825L8.26678 7.90425L8.28383 7.91175L8.30269 7.92187L8.34041 7.93725L8.35745 7.94737L8.38792 7.96687L8.41584 7.98824L8.43325 7.99987L8.44631 8.01337L8.45936 8.02949L8.47278 8.04299L8.48185 8.05649L8.49527 8.07599L8.50433 8.08986L8.51195 8.10936L8.5192 8.12099L8.52501 8.14049L8.53081 8.15661L8.5348 8.17423L8.54205 8.21323L8.54387 8.23273L8.54568 8.25036V8.29723L8.54387 8.3186L8.53988 8.3576L8.53589 8.3771L8.53045 8.39472L8.52646 8.41422L8.52065 8.43372L8.51521 8.45135L8.5076 8.46522L8.49998 8.48284L8.49091 8.49822L8.47931 8.51209L8.46045 8.54322L8.4376 8.57059L8.42455 8.57997L8.40968 8.59384L8.39807 8.60546L8.3832 8.61709L8.36833 8.62496L8.35346 8.63696L8.33605 8.64634L8.30233 8.66396L8.28347 8.67184L8.26642 8.67934L8.24756 8.68534L8.23052 8.69133L8.21492 8.69546L8.1772 8.70296L8.16415 8.70708L8.14529 8.71121H8.12643L8.10938 8.71533H8.09052L8.07166 8.71946H7.93711L7.88054 8.71346L7.86168 8.70933L7.84463 8.70746L7.80691 8.69996L7.78624 8.69584L7.76919 8.69171L7.75034 8.68571L7.73111 8.68159L7.71407 8.67596L7.69521 8.66996L7.67635 8.66209L7.66148 8.65646L7.64262 8.65046L7.62376 8.64259L7.61034 8.63509L7.59148 8.62909L7.57661 8.61896L7.55776 8.61146L7.54289 8.60134L7.52947 8.59196L7.51061 8.58184L7.49755 8.57434L7.48268 8.56234L7.46781 8.55297L7.45222 8.54097L7.43916 8.52934L7.42429 8.51734L7.41087 8.50797L7.396 8.49409L7.40761 8.47872L7.42066 8.46522L7.43191 8.45135L7.44533 8.43597L7.45439 8.42247L7.466 8.4071L7.47906 8.39322L7.4903 8.37972L7.50372 8.36435L7.51278 8.35048L7.5262 8.33698L7.53745 8.3216L7.54905 8.30773L7.56211 8.29235L7.57117 8.27885L7.58459 8.26498L7.59765 8.24961L7.61071 8.26161L7.62811 8.27323L7.64117 8.28485L7.66003 8.29498L7.67309 8.3051L7.69013 8.31673L7.70573 8.32685L7.72277 8.33435L7.73583 8.34448L7.75287 8.3501L7.77173 8.35798L7.78733 8.36585L7.80437 8.37148L7.81924 8.37935L7.8381 8.38535L7.85515 8.39097L7.87401 8.39697L7.89287 8.39885L7.91027 8.40485L7.92913 8.40672H7.94981L7.96685 8.41235H8.06876L8.08581 8.40897L8.10467 8.40485L8.11772 8.40297L8.13332 8.39697L8.14638 8.38947L8.16342 8.37747L8.17321 8.36398L8.18047 8.3486L8.18627 8.3306V8.2856L8.17865 8.26798L8.16959 8.25261L8.15798 8.24098L8.14093 8.22898L8.12788 8.22336L8.11083 8.21548L8.09197 8.20761L8.0713 8.19823L8.05788 8.19411L8.04301 8.18998L8.02415 8.18398L8.0111 8.18061L7.99224 8.17461L7.97338 8.17273L7.95416 8.16486L7.9353 8.16298L7.91463 8.15736L7.89758 8.15324L7.87872 8.14724L7.85986 8.14311L7.841 8.13749L7.82396 8.13149L7.8051 8.12736L7.79023 8.12136L7.75578 8.10974L7.73692 8.10186L7.71806 8.09624L7.68034 8.08011L7.66329 8.07074L7.64443 8.06062L7.63138 8.05124L7.61397 8.04112L7.60091 8.03174L7.58387 8.02162L7.55921 7.99612L7.54615 7.98449L7.5233 7.95712L7.51351 7.94362L7.50626 7.93012L7.49465 7.91212L7.48921 7.89862L7.4718 7.85175L7.46854 7.83225L7.46455 7.81463V7.797L7.46056 7.7775V7.69763L7.46455 7.65863L7.46854 7.64251L7.4718 7.62489L7.47761 7.60951L7.48159 7.59001L7.48921 7.57651L7.49646 7.55664L7.50408 7.54127L7.51133 7.52177L7.52113 7.50827L7.53418 7.49289L7.54397 7.47677L7.55884 7.46327L7.57009 7.44977L7.58169 7.43364L7.59874 7.42015L7.61034 7.41002L7.62521 7.3984L7.65531 7.3789L7.67236 7.36877L7.70681 7.35115L7.72168 7.34552L7.73873 7.33952L7.75759 7.33165L7.77645 7.32603L7.78987 7.3219L7.80691 7.31778L7.82178 7.31365L7.83883 7.30953L7.85769 7.3054L7.8954 7.30203L7.91281 7.30015L7.92768 7.29265ZM3.46027 7.30615H3.80227L3.81787 7.34177L3.82512 7.35715L3.83092 7.37665L3.83854 7.39427L3.84398 7.40965L3.85377 7.42727L3.86501 7.46289L3.87481 7.48052L3.88967 7.51539L3.89366 7.53077L3.92377 7.60126L3.92957 7.61889L3.93719 7.63501L3.94625 7.65263L3.95024 7.67026L3.96003 7.68976L3.9633 7.70738L3.98071 7.74225L3.98796 7.75613L3.99558 7.77563L4.00138 7.79513L4.00682 7.80863L4.01661 7.82813L4.02241 7.84425L4.02967 7.86375L4.03547 7.87725L4.04309 7.89675L4.06013 7.93162L4.06557 7.94924L4.06956 7.96724L4.07718 7.98487L4.08624 8.00024L4.09386 8.01974L4.10148 8.03737L4.10692 8.05274L4.12251 8.08836L4.12795 8.10599L4.13557 8.12361L4.14137 8.14124L4.14862 8.15661L4.15842 8.17461L4.16567 8.19223L4.17329 8.20761L4.17728 8.22711L4.19214 8.26198L4.19976 8.2781L4.2052 8.29573L4.2208 8.3306L4.22986 8.3501L4.23385 8.36548L4.24364 8.38535L4.24691 8.39885L4.25452 8.41835L4.26432 8.43785L4.27157 8.45135L4.27737 8.47085L4.28499 8.48697L4.29043 8.50647L4.30022 8.51997L4.31146 8.55897L4.31908 8.57284L4.32633 8.59234L4.33613 8.60771L4.34374 8.62721L4.34701 8.64484L4.35281 8.66021L4.36043 8.67784L4.36949 8.69396H3.99195L3.98288 8.67784L3.97708 8.66021L3.96946 8.64259L3.96221 8.62309L3.95822 8.60771L3.94263 8.57284L3.93719 8.55672L3.92232 8.52184L3.91651 8.50647L3.9089 8.48697L3.89765 8.45135L3.89004 8.43597H3.36489L3.35763 8.4536L3.35183 8.46972L3.34421 8.48922L3.33696 8.50684L3.33297 8.52222L3.32535 8.54172L3.3181 8.55709L3.3123 8.57472L3.30468 8.59084L3.29743 8.61034L3.29163 8.62384L3.28401 8.64334L3.27857 8.66284L3.27095 8.67671L3.26515 8.69621H2.89123L2.89667 8.67821L2.91227 8.64334L2.91771 8.62384L2.92351 8.60846L2.9333 8.59084L2.94056 8.57322L2.94817 8.55709L2.95216 8.53947L2.95942 8.51997L2.96921 8.50459L2.97646 8.48697L2.98807 8.45135L3.00511 8.41647L3.01092 8.39885L3.01817 8.38347L3.02397 8.36548L3.04682 8.31298L3.05444 8.29348L3.05988 8.2781L3.06568 8.26048L3.07547 8.24436L3.08273 8.22486L3.08853 8.20723L3.09433 8.19186L3.10158 8.17236L3.11138 8.15849L3.11718 8.13899L3.12443 8.12361L3.13024 8.10599L3.13785 8.08649L3.14692 8.07111L3.15272 8.05162L3.15998 8.03774L3.16578 8.01824L3.17339 7.99874L3.18065 7.98524L3.18826 7.96574L3.19407 7.94962L3.20132 7.93012L3.20712 7.91662L3.21692 7.89712L3.22417 7.87762L3.23178 7.86225L3.23577 7.84463L3.24303 7.82663L3.25282 7.809L3.26007 7.79363L3.26406 7.77413L3.27168 7.7565L3.27929 7.74038L3.29416 7.70551L3.2996 7.69013L3.3152 7.65113L3.32245 7.63726L3.33007 7.61776L3.33587 7.60239L3.34131 7.58289L3.34893 7.56526L3.35872 7.54989L3.36597 7.53039L3.37178 7.51652L3.37758 7.49702L3.38483 7.48164L3.39463 7.46402L3.40043 7.44452L3.40587 7.42839L3.41348 7.4089L3.42074 7.3954L3.43053 7.3759L3.43633 7.3564L3.44177 7.3429L3.44939 7.3234L3.46027 7.30615ZM4.52218 7.31628H4.89609L4.9077 7.33165L4.92656 7.36315L4.93563 7.38077L4.94542 7.39427L4.95448 7.4119L4.96428 7.42727L4.97334 7.44527L4.98314 7.46064L4.9922 7.47414L5.002 7.49177L5.01106 7.50789L5.02448 7.52327L5.02992 7.53864L5.04153 7.55626L5.05059 7.57239L5.0622 7.58589L5.06982 7.60351L5.07888 7.61889L5.09049 7.63501L5.09593 7.65038L5.10935 7.66801L5.13727 7.71488L5.14489 7.73026L5.15613 7.74563L5.16592 7.761L5.17499 7.779L5.20364 7.8255L5.21271 7.8435L5.2225 7.85887L5.23374 7.8435L5.24136 7.82363L5.2526 7.81013L5.26239 7.7925L5.27146 7.779L5.27908 7.7595L5.29213 7.74563L5.30193 7.72801L5.30954 7.71451L5.31861 7.69838L5.33021 7.68076L5.33928 7.66726L5.34907 7.64776L5.35814 7.63426L5.36975 7.61626L5.377 7.60276L5.38679 7.58326L5.39586 7.57164L5.40565 7.55551L5.41689 7.53602L5.42669 7.52252L5.43394 7.50489L5.44554 7.49102L5.45461 7.47152L5.4644 7.45989L5.47565 7.44452L5.48544 7.42502L5.49451 7.41115L5.5043 7.39352L5.51336 7.38002L5.52316 7.36052L5.5344 7.34665L5.54202 7.32902L5.55181 7.31553H5.93153V8.71008H5.57611V7.88962L5.56704 7.9035L5.55543 7.923L5.54637 7.93462L5.53476 7.95L5.52751 7.96949L5.5159 7.98337L5.50684 7.99687L5.49523 8.01637L5.47637 8.04374L5.46513 8.05912L5.45534 8.07861L5.44409 8.09249L5.4343 8.10599L5.42705 8.12549L5.41544 8.13899L5.40638 8.15286L5.39477 8.17236L5.3857 8.18586L5.3741 8.20123L5.36503 8.21886L5.35742 8.23273L5.34617 8.24811L5.33638 8.26573L5.32514 8.27923L5.31353 8.29535L5.30628 8.31073L5.29649 8.32835L5.28524 8.34223L5.27364 8.3576L5.26638 8.3771L5.25296 8.38872L5.24571 8.4041L5.23411 8.42397L5.22504 8.43747H5.21742L5.20618 8.41985L5.19639 8.40372L5.18732 8.3861L5.17753 8.3726L5.16629 8.35498L5.15649 8.3396L5.14525 8.32348L5.13546 8.3081L5.12639 8.29048L5.1166 8.27698L5.10354 8.25898L5.09593 8.24361L5.08468 8.22598L5.07489 8.21248L5.06582 8.19486L5.05422 8.17873L5.04515 8.15924L5.03355 8.14574L5.02448 8.12811L5.01469 8.11199L5.00562 8.09436L4.99402 8.08086L4.98495 8.06324L4.97334 8.04787L4.96609 8.03174L4.95448 8.01637L4.94542 7.99874L4.93381 7.98524L4.92475 7.96724L4.91314 7.95187L4.90589 7.93425L4.89247 7.92075L4.88521 7.90275L4.87361 7.88737V8.70971H4.52435V7.32865L4.52218 7.31628ZM6.19918 7.31628H7.2629V7.63089H6.55242V7.8555H7.19073V8.15248H6.55242V8.3906H7.27197V8.70708H6.20099V7.32827L6.19918 7.31628ZM3.62637 7.74375L3.62057 7.76138L3.61513 7.7775L3.60751 7.797L3.5999 7.81463L3.59446 7.83225L3.57886 7.86712L3.57161 7.88662L3.56581 7.90275L3.56 7.92225L3.55275 7.93575L3.54695 7.95525L3.53933 7.97474L3.53208 7.98862L3.52628 8.00812L3.51902 8.02349L3.51322 8.04299L3.50343 8.06062L3.49944 8.07599L3.49218 8.09549L3.48457 8.11349L3.47877 8.12886L3.47151 8.14836H3.78305L3.7758 8.12886L3.76999 8.11124L3.75512 8.07561L3.74932 8.05799L3.7417 8.04262L3.73626 8.02312L3.72865 8.00549L3.72285 7.98787L3.71559 7.97174L3.70979 7.95412L3.70217 7.93462L3.69673 7.91925L3.68114 7.88437L3.67787 7.86637L3.67026 7.84875L3.66264 7.82925L3.6572 7.81575L3.64161 7.77675L3.63617 7.75913L3.62637 7.74375ZM3.07148 10.3551H6.9452L4.9679 11.029L3.07148 10.3551Z" fill="#76DBA1"/>
</svg>
