<svg width="25" height="25" viewBox="0 0 25 25" fill="none" xmlns="http://www.w3.org/2000/svg">
<path d="M21.75 9.47977C19.44 5.84977 16.06 3.75977 12.5 3.75977C10.72 3.75977 8.99 4.27977 7.41 5.24977C5.83 6.22977 4.41 7.65977 3.25 9.47977C2.25 11.0498 2.25 13.5998 3.25 15.1698C5.56 18.8098 8.94 20.8898 12.5 20.8898C14.28 20.8898 16.01 20.3698 17.59 19.3998C19.17 18.4198 20.59 16.9898 21.75 15.1698C22.75 13.6098 22.75 11.0498 21.75 9.47977ZM12.5 16.3698C10.26 16.3698 8.46 14.5598 8.46 12.3298C8.46 10.0998 10.26 8.28977 12.5 8.28977C14.74 8.28977 16.54 10.0998 16.54 12.3298C16.54 14.5598 14.74 16.3698 12.5 16.3698Z" fill="#62646C"/>
<path d="M12.5004 9.46973C10.9304 9.46973 9.65039 10.7497 9.65039 12.3297C9.65039 13.8997 10.9304 15.1797 12.5004 15.1797C14.0704 15.1797 15.3604 13.8997 15.3604 12.3297C15.3604 10.7597 14.0704 9.46973 12.5004 9.46973Z" fill="#62646C"/>
</svg>
