<svg width="48" height="49" viewBox="0 0 48 49" fill="none" xmlns="http://www.w3.org/2000/svg">
<path d="M18.8108 24.157C17.5495 24.157 16.4685 23.7929 15.5676 23.0648C14.6667 22.3003 14.1081 21.3538 13.8919 20.2253C13.7117 19.0603 13.9459 17.9135 14.5946 16.785L19.2973 8.59386C19.9099 7.4653 20.7568 6.7008 21.8378 6.30034C22.9189 5.89989 24 5.89989 25.0811 6.30034C26.1622 6.7008 27.027 7.4653 27.6757 8.59386L32.3784 16.785C33.027 17.9135 33.2432 19.0603 33.027 20.2253C32.8108 21.3538 32.2523 22.3003 31.3514 23.0648C30.4505 23.7929 29.3694 24.157 28.1081 24.157H18.8108ZM8.37838 44.9079C7.15315 44.9079 6.10811 44.4892 5.24324 43.6519C4.41441 42.7782 4 41.7224 4 40.4846V31.8567C4 30.6189 4.41441 29.5813 5.24324 28.744C6.10811 27.8703 7.15315 27.4334 8.37838 27.4334H16.9189C18.1441 27.4334 19.1712 27.8703 20 28.744C20.8649 29.5813 21.2973 30.6189 21.2973 31.8567V40.4846C21.2973 41.7224 20.8649 42.7782 20 43.6519C19.1712 44.4892 18.1441 44.9079 16.9189 44.9079H8.37838ZM16.9189 40.5392C17.0991 40.5392 17.1712 40.5757 17.1351 40.6485C17.1351 40.6849 17.0991 40.7031 17.027 40.7031C16.991 40.7031 16.973 40.6303 16.973 40.4846V31.8567C16.973 31.6746 16.991 31.6018 17.027 31.6382C17.0991 31.6382 17.1351 31.6746 17.1351 31.7474C17.1712 31.7838 17.0991 31.802 16.9189 31.802H8.37838C8.23423 31.802 8.16216 31.7838 8.16216 31.7474C8.16216 31.6746 8.18018 31.6382 8.21622 31.6382C8.28829 31.6018 8.32432 31.6746 8.32432 31.8567V40.4846C8.32432 40.6303 8.28829 40.7031 8.21622 40.7031C8.18018 40.7031 8.16216 40.6849 8.16216 40.6485C8.16216 40.5757 8.23423 40.5392 8.37838 40.5392H16.9189ZM34.2703 46C32.5045 46 30.8829 45.5631 29.4054 44.6894C27.9279 43.7793 26.7387 42.5779 25.8378 41.0853C24.973 39.5927 24.5405 37.9545 24.5405 36.1707C24.5405 34.3868 24.973 32.7486 25.8378 31.256C26.7387 29.727 27.9279 28.5256 29.4054 27.6519C30.8829 26.7782 32.5045 26.3413 34.2703 26.3413C36.036 26.3413 37.6577 26.7782 39.1351 27.6519C40.6486 28.5256 41.8378 29.727 42.7027 31.256C43.5676 32.7486 44 34.3868 44 36.1707C44 37.9545 43.5676 39.5927 42.7027 41.0853C41.8378 42.5779 40.6486 43.7793 39.1351 44.6894C37.6577 45.5631 36.036 46 34.2703 46ZM34.2703 41.6314C35.8919 41.6314 37.1892 41.1399 38.1622 40.157C39.1712 39.1377 39.6757 37.8089 39.6757 36.1707C39.6757 34.5324 39.1712 33.2218 38.1622 32.2389C37.1892 31.2196 35.8919 30.7099 34.2703 30.7099C32.6486 30.7099 31.3333 31.2196 30.3243 32.2389C29.3514 33.2218 28.8649 34.5324 28.8649 36.1707C28.8649 37.8089 29.3514 39.1377 30.3243 40.157C31.3333 41.1399 32.6486 41.6314 34.2703 41.6314ZM28.3243 19.7884C28.4685 19.7884 28.5946 19.7702 28.7027 19.7338C28.8108 19.661 28.8649 19.57 28.8649 19.4608C28.8649 19.3515 28.8108 19.2241 28.7027 19.0785L23.8378 10.6689C23.7658 10.4869 23.6757 10.3777 23.5676 10.3413C23.4955 10.2685 23.4054 10.2685 23.2973 10.3413C23.2252 10.3777 23.1532 10.4869 23.0811 10.6689L18.2162 19.0785C18.1081 19.2241 18.0541 19.3515 18.0541 19.4608C18.0541 19.57 18.1081 19.661 18.2162 19.7338C18.3243 19.7702 18.4505 19.7884 18.5946 19.7884H28.3243Z" fill="url(#paint0_linear_171_949)"/>
<defs>
<linearGradient id="paint0_linear_171_949" x1="3.73694" y1="31.7617" x2="32.5661" y2="31.8574" gradientUnits="userSpaceOnUse">
<stop stop-color="#0CEBEB"/>
<stop offset="0.472222" stop-color="#20E3B2"/>
<stop offset="1" stop-color="#29FFC6"/>
</linearGradient>
</defs>
</svg>
