<svg width="16" height="18" viewBox="0 0 16 18" fill="none" xmlns="http://www.w3.org/2000/svg">
<path d="M9.99985 8.99878V16.8777C10.0398 17.1777 9.93986 17.4976 9.70989 17.7076C9.61739 17.8003 9.50752 17.8738 9.38656 17.924C9.2656 17.9742 9.13594 18 9.00499 18C8.87404 18 8.74437 17.9742 8.62342 17.924C8.50246 17.8738 8.39259 17.8003 8.30009 17.7076L6.29037 15.6979C6.18132 15.5913 6.0984 15.4609 6.0481 15.3169C5.9978 15.173 5.98147 15.0193 6.00041 14.868V8.99878H5.97041L0.211208 1.61978C0.0488388 1.41134 -0.0244255 1.1471 0.00742424 0.88481C0.039274 0.622517 0.173648 0.383494 0.381185 0.21997C0.571158 0.0799892 0.781129 0 1.0011 0H14.9992C15.2191 0 15.4291 0.0799892 15.6191 0.21997C15.8266 0.383494 15.961 0.622517 15.9928 0.88481C16.0247 1.1471 15.9514 1.41134 15.7891 1.61978L10.0298 8.99878H9.99985Z" fill="#62646C"/>
<path d="M9.99985 8.99878V16.8777C10.0398 17.1777 9.93986 17.4976 9.70989 17.7076C9.61739 17.8003 9.50752 17.8738 9.38656 17.924C9.2656 17.9742 9.13594 18 9.00499 18C8.87404 18 8.74437 17.9742 8.62342 17.924C8.50246 17.8738 8.39259 17.8003 8.30009 17.7076L6.29037 15.6979C6.18132 15.5913 6.0984 15.4609 6.0481 15.3169C5.9978 15.173 5.98147 15.0193 6.00041 14.868V8.99878H5.97041L0.211208 1.61978C0.0488388 1.41134 -0.0244255 1.1471 0.00742424 0.88481C0.039274 0.622517 0.173648 0.383494 0.381185 0.21997C0.571158 0.0799892 0.781129 0 1.0011 0H14.9992C15.2191 0 15.4291 0.0799892 15.6191 0.21997C15.8266 0.383494 15.961 0.622517 15.9928 0.88481C16.0247 1.1471 15.9514 1.41134 15.7891 1.61978L10.0298 8.99878H9.99985Z" fill="url(#paint0_linear_84_498)"/>
<defs>
<linearGradient id="paint0_linear_84_498" x1="-4.67244" y1="9" x2="15.9293" y2="9.04119" gradientUnits="userSpaceOnUse">
<stop stop-color="#0CEBEB"/>
<stop offset="0.472222" stop-color="#20E3B2"/>
<stop offset="1" stop-color="#29FFC6"/>
</linearGradient>
</defs>
</svg>
