<svg width="11" height="8" viewBox="0 0 11 8" fill="none" xmlns="http://www.w3.org/2000/svg">
<path d="M10.4751 1.1675C10.2877 0.98125 10.0343 0.876711 9.77012 0.876711C9.50592 0.876711 9.25252 0.98125 9.06512 1.1675L5.47512 4.70746L1.93511 1.1675C1.74775 0.981249 1.4943 0.876709 1.23011 0.876709C0.965929 0.876709 0.712479 0.981249 0.525109 1.1675C0.431379 1.26047 0.356989 1.37107 0.306219 1.49293C0.255449 1.61479 0.229309 1.74549 0.229309 1.8775C0.229309 2.00956 0.255449 2.14026 0.306219 2.26206C0.356989 2.38396 0.431379 2.49456 0.525109 2.58746L4.76512 6.82746C4.85812 6.92126 4.96872 6.99566 5.09052 7.04636C5.21242 7.09716 5.34312 7.12326 5.47512 7.12326C5.60712 7.12326 5.73782 7.09716 5.85972 7.04636C5.98152 6.99566 6.09212 6.92126 6.18512 6.82746L10.4751 2.58746C10.5688 2.49456 10.6432 2.38396 10.694 2.26206C10.7448 2.14026 10.7709 2.00956 10.7709 1.8775C10.7709 1.74549 10.7448 1.61479 10.694 1.49293C10.6432 1.37107 10.5688 1.26047 10.4751 1.1675Z" fill="#62646C"/>
<path d="M10.4751 1.1675C10.2877 0.98125 10.0343 0.876711 9.77012 0.876711C9.50592 0.876711 9.25252 0.98125 9.06512 1.1675L5.47512 4.70746L1.93511 1.1675C1.74775 0.981249 1.4943 0.876709 1.23011 0.876709C0.965929 0.876709 0.712479 0.981249 0.525109 1.1675C0.431379 1.26047 0.356989 1.37107 0.306219 1.49293C0.255449 1.61479 0.229309 1.74549 0.229309 1.8775C0.229309 2.00956 0.255449 2.14026 0.306219 2.26206C0.356989 2.38396 0.431379 2.49456 0.525109 2.58746L4.76512 6.82746C4.85812 6.92126 4.96872 6.99566 5.09052 7.04636C5.21242 7.09716 5.34312 7.12326 5.47512 7.12326C5.60712 7.12326 5.73782 7.09716 5.85972 7.04636C5.98152 6.99566 6.09212 6.92126 6.18512 6.82746L10.4751 2.58746C10.5688 2.49456 10.6432 2.38396 10.694 2.26206C10.7448 2.14026 10.7709 2.00956 10.7709 1.8775C10.7709 1.74549 10.7448 1.61479 10.694 1.49293C10.6432 1.37107 10.5688 1.26047 10.4751 1.1675Z" fill="url(#paint0_linear_84_500)"/>
<defs>
<linearGradient id="paint0_linear_84_500" x1="-2.84921" y1="3.99998" x2="10.7241" y2="4.05151" gradientUnits="userSpaceOnUse">
<stop stop-color="#0CEBEB"/>
<stop offset="0.472222" stop-color="#20E3B2"/>
<stop offset="1" stop-color="#29FFC6"/>
</linearGradient>
</defs>
</svg>
