<svg width="48" height="49" viewBox="0 0 48 49" fill="none" xmlns="http://www.w3.org/2000/svg">
<path d="M22 25.0501C22 24.2147 22.3333 23.6466 23 23.3459C23.6667 23.0117 24.3333 23.0117 25 23.3459C25.6667 23.6466 26 24.2147 26 25.0501C26 28.5589 25.5833 31.817 24.75 34.8246C23.9167 37.8321 22.75 40.7226 21.25 43.4962C20.85 44.2314 20.2833 44.5823 19.55 44.5489C18.8167 44.5155 18.2333 44.198 17.8 43.5965C17.3667 42.9616 17.35 42.2932 17.75 41.5915C19.1167 39.0184 20.1667 36.4286 20.9 33.8221C21.6333 31.1821 22 28.2581 22 25.0501ZM27.8 43.8471C27.4667 44.5823 26.9333 44.9666 26.2 45C25.4667 45 24.8667 44.716 24.4 44.1479C23.9333 43.5798 23.8667 42.9114 24.2 42.1429C25.4333 39.5029 26.3667 36.7627 27 33.9223C27.6667 31.0485 28 28.0911 28 25.0501C28 23.8137 27.6333 22.8446 26.9 22.1429C26.2 21.4077 25.2333 21.0401 24 21.0401C22.7667 21.0401 21.7833 21.4077 21.05 22.1429C20.35 22.8446 20 23.8137 20 25.0501C20 28.0242 19.6167 30.848 18.85 33.5213C18.1167 36.1612 17.0833 38.6675 15.75 41.0401C15.35 41.7753 14.7833 42.1261 14.05 42.0927C13.3167 42.0259 12.7333 41.6917 12.3 41.0902C11.8667 40.4887 11.85 39.8371 12.25 39.1353C13.45 36.9632 14.3667 34.741 15 32.4687C15.6667 30.1629 16 27.6901 16 25.0501C16 23.6132 16.35 22.2765 17.05 21.0401C17.7833 19.8037 18.7667 18.8346 20 18.1328C21.2333 17.3977 22.5667 17.0301 24 17.0301C25.4333 17.0301 26.7667 17.3977 28 18.1328C29.2333 18.8346 30.2 19.8037 30.9 21.0401C31.6333 22.2765 32 23.6132 32 25.0501C32 28.3584 31.6333 31.5998 30.9 34.7744C30.2 37.949 29.1667 40.9733 27.8 43.8471ZM44 25.0501C44 25.8855 43.6667 26.4703 43 26.8045C42.3333 27.1053 41.6667 27.1053 41 26.8045C40.3333 26.4703 40 25.8855 40 25.0501C40 22.076 39.3 19.3693 37.9 16.9298C36.5 14.457 34.5667 12.5188 32.1 11.1153C29.6667 9.71178 26.9667 9.01002 24 9.01002C21.0333 9.01002 18.3167 9.71178 15.85 11.1153C13.4167 12.5188 11.5 14.457 10.1 16.9298C8.7 19.3693 8 22.076 8 25.0501C8 25.8855 7.66667 26.4703 7 26.8045C6.33333 27.1053 5.66667 27.1053 5 26.8045C4.33333 26.4703 4 25.8855 4 25.0501C4 21.4411 4.9 18.0994 6.7 15.0251C8.5 11.9173 10.9333 9.47786 14 7.70677C17.0667 5.90226 20.4 5 24 5C27.6 5 30.9333 5.90226 34 7.70677C37.1 9.47786 39.5333 11.9173 41.3 15.0251C43.1 18.0994 44 21.4411 44 25.0501ZM35.4 41.0401C35.1333 41.8087 34.6333 42.2431 33.9 42.3434C33.1667 42.4436 32.5333 42.2264 32 41.6917C31.4667 41.1571 31.35 40.5054 31.65 39.7368C32.3833 37.5647 32.95 35.2256 33.35 32.7193C33.7833 30.1796 34 27.6232 34 25.0501C34 23.1454 33.5667 21.4244 32.7 19.8872C31.8667 18.35 30.6833 17.1637 29.15 16.3283C27.6167 15.4595 25.9 15.0251 24 15.0251C22.1 15.0251 20.3833 15.4595 18.85 16.3283C17.3167 17.1637 16.1167 18.35 15.25 19.8872C14.4167 21.4244 14 23.1454 14 25.0501C14 27.1554 13.75 29.2105 13.25 31.2155C12.7833 33.2206 12.1333 35.0418 11.3 36.6792C10.9333 37.4144 10.3667 37.782 9.6 37.782C8.86667 37.782 8.26667 37.4812 7.8 36.8797C7.36667 36.2782 7.33333 35.5931 7.7 34.8246C8.43333 33.4545 9 31.934 9.4 30.2632C9.8 28.5923 10 26.8546 10 25.0501C10 22.5104 10.6167 20.1713 11.85 18.0326C13.1167 15.8605 14.8167 14.1562 16.95 12.9198C19.1167 11.65 21.4667 11.015 24 11.015C26.5333 11.015 28.8667 11.65 31 12.9198C33.1667 14.1562 34.8667 15.8605 36.1 18.0326C37.3667 20.1713 38 22.5104 38 25.0501C38 27.8237 37.7667 30.614 37.3 33.4211C36.8667 36.1947 36.2333 38.7343 35.4 41.0401Z" fill="url(#paint0_linear_171_963)"/>
<defs>
<linearGradient id="paint0_linear_171_963" x1="3.73694" y1="30.7617" x2="32.5661" y2="30.8574" gradientUnits="userSpaceOnUse">
<stop stop-color="#0CEBEB"/>
<stop offset="0.472222" stop-color="#20E3B2"/>
<stop offset="1" stop-color="#29FFC6"/>
</linearGradient>
</defs>
</svg>
