<svg width="40" height="41" viewBox="0 0 40 41" fill="none" xmlns="http://www.w3.org/2000/svg">
<path d="M20 40.061C16.4 40.061 13.0667 39.161 10 37.361C6.93333 35.561 4.5 33.1276 2.7 30.061C0.9 26.9943 0 23.661 0 20.061C0 16.461 0.9 13.1276 2.7 10.061C4.5 6.96097 6.93333 4.52764 10 2.76097C13.0667 0.960974 16.4 0.0609741 20 0.0609741C23.6 0.0609741 26.9333 0.960974 30 2.76097C33.1 4.52764 35.5333 6.96097 37.3 10.061C39.1 13.1276 40 16.461 40 20.061C40 23.661 39.1 26.9943 37.3 30.061C35.5333 33.1276 33.1 35.561 30 37.361C26.9333 39.161 23.6 40.061 20 40.061ZM20 36.061C22.9667 36.061 25.6667 35.361 28.1 33.961C30.5667 32.561 32.5 30.6443 33.9 28.211C35.3 25.7443 36 23.0276 36 20.061C36 17.0943 35.3 14.3943 33.9 11.961C32.5 9.49431 30.5667 7.56097 28.1 6.16097C25.6667 4.76097 22.9667 4.06097 20 4.06097C17.0333 4.06097 14.3167 4.76097 11.85 6.16097C9.41667 7.56097 7.5 9.49431 6.1 11.961C4.7 14.3943 4 17.0943 4 20.061C4 23.0276 4.7 25.7443 6.1 28.211C7.5 30.6443 9.41667 32.561 11.85 33.961C14.3167 35.361 17.0333 36.061 20 36.061ZM18 18.061C18 17.2276 18.3333 16.661 19 16.361C19.6667 16.0276 20.3333 16.0276 21 16.361C21.6667 16.661 22 17.2276 22 18.061V30.061C22 30.8943 21.6667 31.4776 21 31.811C20.3333 32.111 19.6667 32.111 19 31.811C18.3333 31.4776 18 30.8943 18 30.061V18.061ZM23 11.061C23 11.8943 22.7 12.611 22.1 13.211C21.5333 13.7776 20.8333 14.061 20 14.061C19.1667 14.061 18.45 13.7776 17.85 13.211C17.2833 12.611 17 11.8943 17 11.061C17 10.2276 17.2833 9.52764 17.85 8.96097C18.45 8.36097 19.1667 8.06097 20 8.06097C20.8333 8.06097 21.5333 8.36097 22.1 8.96097C22.7 9.52764 23 10.2276 23 11.061Z" fill="url(#paint0_linear_171_651)"/>
<defs>
<linearGradient id="paint0_linear_171_651" x1="-0.263062" y1="25.8227" x2="28.5661" y2="25.9184" gradientUnits="userSpaceOnUse">
<stop stop-color="#0CEBEB"/>
<stop offset="0.472222" stop-color="#20E3B2"/>
<stop offset="1" stop-color="#29FFC6"/>
</linearGradient>
</defs>
</svg>
