<svg width="14" height="14" viewBox="0 0 14 14" fill="none" xmlns="http://www.w3.org/2000/svg">
<path d="M5.00693 12.1454C4.92579 12.0847 4.84972 12.0392 4.77872 12.0089C4.71786 11.9786 4.63165 11.9584 4.52008 11.9482L3.71374 11.8876C3.17618 11.8471 2.72484 11.6247 2.3597 11.2203C2.00471 10.8159 1.80186 10.3205 1.75115 9.73416L1.7055 9.15789C1.69536 9.04668 1.67508 8.95569 1.64465 8.88492C1.62436 8.81415 1.58379 8.73832 1.52294 8.65744L0.990449 8.05084C0.635457 7.64644 0.473175 7.17633 0.503603 6.6405C0.534031 6.10467 0.747026 5.60422 1.14259 5.13916L1.52294 4.69938C1.58379 4.61849 1.62943 4.54267 1.65986 4.4719C1.69029 4.40113 1.71058 4.3152 1.72072 4.2141L1.78157 3.41035C1.82214 2.86441 2.04021 2.41451 2.43577 2.06066C2.84148 1.70681 3.34354 1.50461 3.94195 1.45406L4.52008 1.40857C4.63165 1.39846 4.72293 1.37824 4.79393 1.34791C4.86493 1.31758 4.93593 1.27208 5.00693 1.21142L5.61548 0.695814C6.03133 0.341964 6.49789 0.165039 7.01517 0.165039C7.53244 0.165039 7.99393 0.336909 8.39963 0.680649L9.00819 1.19626C9.07919 1.26703 9.15019 1.31758 9.22119 1.34791C9.29218 1.37824 9.38347 1.39846 9.49504 1.40857L10.2862 1.46923C10.8237 1.50967 11.27 1.73209 11.625 2.13649C11.9901 2.54089 12.198 3.04133 12.2488 3.63783L12.2944 4.19893C12.3045 4.32025 12.3198 4.4163 12.34 4.48707C12.3705 4.54772 12.4263 4.61344 12.5074 4.68421L13.0247 5.29081C13.3695 5.70532 13.5267 6.18555 13.4963 6.73149C13.4659 7.27743 13.263 7.77282 12.8877 8.21766L12.5074 8.67261C12.4263 8.7636 12.3705 8.84448 12.34 8.91525C12.3096 8.97591 12.2944 9.05679 12.2944 9.15789L12.2335 9.96163C12.193 10.4975 11.9698 10.9474 11.5641 11.3113C11.1584 11.6652 10.6564 11.8674 10.058 11.9179L9.49504 11.9634C9.38347 11.9735 9.29218 11.9937 9.22119 12.0241C9.15019 12.0443 9.07919 12.0898 9.00819 12.1606L8.39963 12.6762C7.97364 13.03 7.4868 13.1918 6.9391 13.1614C6.40154 13.1311 5.90455 12.9188 5.44813 12.5245L5.00693 12.1454ZM8.20185 11.2355C8.36413 11.094 8.5467 10.9827 8.74955 10.9019C8.95241 10.821 9.17047 10.7704 9.40375 10.7502L9.96667 10.7047C10.3115 10.6744 10.5651 10.5935 10.7274 10.4621C10.8998 10.3306 10.9961 10.1335 11.0164 9.87064L11.0773 9.08206C11.0976 8.86975 11.1483 8.6625 11.2294 8.4603C11.3106 8.24799 11.4221 8.05084 11.5641 7.86886L11.9597 7.44424C12.1727 7.18138 12.2893 6.93874 12.3096 6.71632C12.34 6.4939 12.269 6.28665 12.0966 6.09456L11.5641 5.48796C11.4221 5.3262 11.3106 5.14422 11.2294 4.94202C11.1483 4.73981 11.0976 4.52245 11.0773 4.28992L11.0316 3.72881C11.0114 3.38507 10.9302 3.13232 10.7882 2.97056C10.6564 2.79869 10.4586 2.70265 10.1949 2.68243L9.40375 2.62177C9.17047 2.60155 8.94733 2.551 8.73434 2.47012C8.53149 2.37913 8.35399 2.26286 8.20185 2.12132L7.59329 1.60571C7.39044 1.43384 7.19773 1.34791 7.01517 1.34791C6.8326 1.34791 6.63989 1.43384 6.43704 1.60571L5.79805 2.15165C5.63577 2.28308 5.4532 2.38924 5.25035 2.47012C5.05764 2.551 4.84464 2.60155 4.61136 2.62177L4.03324 2.66726C3.68839 2.68748 3.43482 2.76836 3.27254 2.9099C3.11026 3.04133 3.01897 3.23848 2.99869 3.50134L2.93783 4.30509C2.91755 4.5174 2.86176 4.7297 2.77048 4.94202C2.68934 5.14422 2.58284 5.32114 2.45099 5.47279L2.07064 5.91258C1.83736 6.18555 1.71057 6.42819 1.69029 6.6405C1.67 6.85281 1.74607 7.05501 1.9185 7.2471L2.45099 7.89919C2.58284 8.05084 2.68934 8.23282 2.77048 8.44513C2.85162 8.64733 2.90233 8.85459 2.92262 9.0669L2.96826 9.64317C2.99869 9.9768 3.07983 10.2295 3.21168 10.4014C3.34354 10.5632 3.54132 10.6542 3.80503 10.6744L4.61136 10.735C4.8345 10.7553 5.0475 10.8058 5.25035 10.8867C5.4532 10.9676 5.63577 11.0788 5.79805 11.2203L6.25447 11.5995C6.50803 11.832 6.74131 11.9584 6.95431 11.9786C7.17745 11.9988 7.39044 11.923 7.59329 11.7511L8.20185 11.2355ZM7.91279 6.68599C7.91279 6.93874 7.8215 7.15611 7.63894 7.33809C7.46651 7.50996 7.25352 7.59589 6.99995 7.59589C6.74639 7.59589 6.52832 7.50996 6.34575 7.33809C6.17333 7.15611 6.08712 6.93874 6.08712 6.68599C6.08712 6.43324 6.17333 6.22093 6.34575 6.04906C6.52832 5.86708 6.74639 5.77609 6.99995 5.77609C7.25352 5.77609 7.46651 5.86708 7.63894 6.04906C7.8215 6.22093 7.91279 6.43324 7.91279 6.68599ZM10.347 6.68599C10.347 6.93874 10.2557 7.15611 10.0732 7.33809C9.90074 7.50996 9.68775 7.59589 9.43418 7.59589C9.18061 7.59589 8.96255 7.50996 8.77998 7.33809C8.60756 7.15611 8.52134 6.93874 8.52134 6.68599C8.52134 6.43324 8.60756 6.22093 8.77998 6.04906C8.96255 5.86708 9.18061 5.77609 9.43418 5.77609C9.68775 5.77609 9.90074 5.86708 10.0732 6.04906C10.2557 6.22093 10.347 6.43324 10.347 6.68599ZM5.47856 6.68599C5.47856 6.93874 5.38727 7.15611 5.20471 7.33809C5.03228 7.50996 4.81929 7.59589 4.56572 7.59589C4.31216 7.59589 4.09409 7.50996 3.91152 7.33809C3.7391 7.15611 3.65289 6.93874 3.65289 6.68599C3.65289 6.43324 3.7391 6.22093 3.91152 6.04906C4.09409 5.86708 4.31216 5.77609 4.56572 5.77609C4.81929 5.77609 5.03228 5.86708 5.20471 6.04906C5.38727 6.22093 5.47856 6.43324 5.47856 6.68599Z" fill="#76DBA1"/>
</svg>
