<svg width="17" height="18" viewBox="0 0 17 18" fill="none" xmlns="http://www.w3.org/2000/svg">
<path d="M10.3768 8.11821C10.9973 8.11821 11.5014 7.61671 11.5014 6.99876C11.501 6.85142 11.4717 6.70558 11.415 6.56958C11.3583 6.43358 11.2753 6.31008 11.1709 6.20613C11.0665 6.10218 10.9426 6.01982 10.8064 5.96374C10.6701 5.90766 10.5241 5.87897 10.3768 5.87931C9.7563 5.87931 9.2531 6.38081 9.2531 6.99876C9.25378 7.29619 9.37252 7.58117 9.58323 7.79109C9.79394 8.001 10.0794 8.11866 10.3768 8.11821Z" fill="#76DBA1"/>
<path fill-rule="evenodd" clip-rule="evenodd" d="M1.2444 1.63356C0 2.87966 0 4.88226 0 8.88916C0 12.8961 0 14.8995 1.2444 16.1439C2.4905 17.3892 4.4931 17.3892 8.5 17.3892C12.5069 17.3892 14.5104 17.3892 15.7548 16.1439C17 14.9004 17 12.8961 17 8.88916C17 4.88226 17 2.87881 15.7548 1.63356C14.5112 0.38916 12.5069 0.38916 8.5 0.38916C4.4931 0.38916 2.48965 0.38916 1.2444 1.63356ZM10.3768 10.2084C10.7992 10.2093 11.2176 10.1269 11.6082 9.96613C11.9988 9.80532 12.3538 9.56915 12.6531 9.27111C12.9524 8.97307 13.1901 8.619 13.3526 8.22911C13.515 7.83922 13.5991 7.42114 13.6 6.99876C13.5991 6.57638 13.515 6.1583 13.3526 5.76841C13.1901 5.37852 12.9524 5.02445 12.6531 4.72641C12.3538 4.42837 11.9988 4.1922 11.6082 4.03139C11.2176 3.87058 10.7992 3.78827 10.3768 3.78916C9.5239 3.78758 8.7053 4.12482 8.10102 4.72671C7.49673 5.32861 7.15625 6.14586 7.15445 6.99876C7.15445 7.81986 7.52845 8.41741 7.52845 8.41741L3.6329 12.2977C3.4578 12.4719 3.213 12.925 3.6329 13.3432L4.08255 13.7903C4.2568 13.9399 4.6971 14.149 5.05665 13.7903L5.5811 13.2684C6.10555 13.7903 6.70565 13.4919 6.93005 13.1936C7.3049 12.6708 6.85525 12.1481 6.85525 12.1481L7.0057 11.9993C7.7248 12.7159 8.35465 12.2977 8.57905 11.9993C8.9539 11.4766 8.57905 10.9538 8.57905 10.9538C8.53911 10.8791 8.48842 10.8107 8.4286 10.7507C8.3113 10.6232 8.2399 10.5458 8.50425 10.2823L8.95475 9.83436C9.31345 10.1327 10.0521 10.2084 10.3768 10.2084Z" fill="#76DBA1"/>
</svg>
