<svg width="23" height="22" viewBox="0 0 23 22" fill="none" xmlns="http://www.w3.org/2000/svg">
<path d="M16.0476 0.000917077C16.9307 -0.0091088 17.807 0.156771 18.6258 0.488951C19.4446 0.821131 20.1896 1.31301 20.8176 1.9361C21.4456 2.55919 21.9442 3.30112 22.2845 4.11891C22.6248 4.9367 22.8 5.81411 22.8 6.70032C22.8 7.58654 22.6248 8.46394 22.2845 9.28174C21.9442 10.0995 21.4456 10.8415 20.8176 11.4645C20.1896 12.0876 19.4446 12.5795 18.6258 12.9117C17.807 13.2439 16.9307 13.4098 16.0476 13.3997C14.2767 13.3997 12.5785 12.6939 11.3263 11.4374C10.0741 10.1809 9.37068 8.4768 9.37068 6.69989C9.37068 4.92299 10.0741 3.21886 11.3263 1.9624C12.5785 0.705933 14.2767 0.000917115 16.0476 0.000917077ZM18.184 2.33081C17.8927 2.33024 17.6041 2.38742 17.3348 2.49906C17.0656 2.6107 16.8209 2.77461 16.615 2.98137C16.409 3.18813 16.2457 3.43367 16.1346 3.70391C16.0234 3.97414 15.9666 4.26374 15.9672 4.55608C15.9664 4.84842 16.0232 5.13803 16.1344 5.40827C16.2455 5.6785 16.4088 5.92404 16.6148 6.13075C16.8208 6.33747 17.0655 6.50128 17.3348 6.61279C17.6041 6.7243 17.8927 6.78129 18.184 6.7805C18.4754 6.78129 18.764 6.7243 19.0333 6.61279C19.3026 6.50128 19.5473 6.33747 19.7533 6.13075C19.9593 5.92404 20.1226 5.6785 20.2337 5.40827C20.3448 5.13803 20.4016 4.84842 20.4008 4.55608C20.4014 4.26381 20.3444 3.9743 20.2332 3.70417C20.122 3.43404 19.9588 3.18859 19.7528 2.98192C19.5468 2.77526 19.3022 2.61143 19.033 2.49984C18.7638 2.38825 18.4753 2.33024 18.184 2.33081ZM8.70325 9.80756C8.93774 10.3576 9.23361 10.8791 9.58518 11.3623L2.9083 18.0612C2.76791 18.204 2.6892 18.3966 2.6892 18.5972C2.6892 18.7978 2.76791 18.9903 2.9083 19.1331C3.05084 19.2736 3.24263 19.3523 3.44241 19.3523C3.64219 19.3523 3.83399 19.2736 3.97653 19.1331L10.5731 12.4873C11.4061 13.2792 12.3987 13.8828 13.4838 14.2573V15.4363C13.4838 15.8137 13.1668 16.1327 12.789 16.1327H10.92V18.0089C10.92 18.3862 10.603 18.7052 10.2253 18.7052H8.35629V20.5815C8.35629 20.9588 8.03838 21.2778 7.66151 21.2778H5.76604L5.2849 21.7606C4.99263 22.053 2.06482 22.1996 1.33244 21.4656C0.600059 20.7298 0.747902 17.792 1.03932 17.4996L8.70325 9.80842V9.80756Z" fill="#62646C"/>
</svg>
