<svg width="14" height="14" viewBox="0 0 14 14" fill="none" xmlns="http://www.w3.org/2000/svg">
<path id="Vector" d="M9.50993 0.500253C10.0318 0.494329 10.5496 0.592351 11.0334 0.788643C11.5173 0.984935 11.9575 1.2756 12.3286 1.64379C12.6997 2.01199 12.9943 2.45041 13.1954 2.93366C13.3965 3.41691 13.5 3.93539 13.5 4.45907C13.5 4.98275 13.3965 5.50123 13.1954 5.98448C12.9943 6.46773 12.6997 6.90615 12.3286 7.27435C11.9575 7.64254 11.5173 7.93321 11.0334 8.1295C10.5496 8.32579 10.0318 8.42381 9.50993 8.41789C8.46354 8.41789 7.46 8.00077 6.72009 7.2583C5.98018 6.51583 5.5645 5.50883 5.5645 4.45882C5.5645 3.40881 5.98018 2.4018 6.72009 1.65933C7.46 0.916862 8.46354 0.500253 9.50993 0.500253ZM10.7724 1.87703C10.6002 1.8767 10.4297 1.91049 10.2706 1.97646C10.1115 2.04243 9.96692 2.13929 9.84521 2.26146C9.7235 2.38364 9.62704 2.52874 9.56135 2.68843C9.49567 2.84811 9.46207 3.01924 9.46246 3.192C9.462 3.36474 9.49556 3.53588 9.56123 3.69557C9.62689 3.85526 9.72336 4.00035 9.84509 4.1225C9.96682 4.24465 10.1114 4.34145 10.2706 4.40735C10.4297 4.47324 10.6002 4.50692 10.7724 4.50645C10.9445 4.50692 11.1151 4.47324 11.2742 4.40735C11.4334 4.34145 11.578 4.24465 11.6997 4.1225C11.8214 4.00035 11.9179 3.85526 11.9836 3.69557C12.0492 3.53588 12.0828 3.36474 12.0823 3.192C12.0826 3.01929 12.049 2.84821 11.9833 2.68858C11.9176 2.52895 11.8211 2.38392 11.6994 2.26179C11.5777 2.13967 11.4331 2.04286 11.2741 1.97692C11.115 1.91098 10.9445 1.8767 10.7724 1.87703ZM5.17011 6.2952C5.30867 6.62021 5.4835 6.92841 5.69125 7.2139L1.74582 11.1725C1.66286 11.2569 1.61635 11.3706 1.61635 11.4892C1.61635 11.6077 1.66286 11.7215 1.74582 11.8059C1.83005 11.8889 1.94338 11.9354 2.06143 11.9354C2.17949 11.9354 2.29282 11.8889 2.37705 11.8059L6.27501 7.87873C6.76727 8.34668 7.35377 8.70332 7.99498 8.92461V9.62137C7.99498 9.84433 7.80764 10.0328 7.58443 10.0328H6.48003V11.1416C6.48003 11.3645 6.29269 11.553 6.06948 11.553H4.96509V12.6617C4.96509 12.8847 4.77723 13.0732 4.55453 13.0732H3.43448L3.15018 13.3585C2.97747 13.5313 1.2474 13.6179 0.814631 13.1842C0.381861 12.7494 0.469223 11.0134 0.641422 10.8406L5.17011 6.29571V6.2952Z" fill="#76DBA1"/>
</svg>
