<svg width="80" height="37" viewBox="0 0 80 37" fill="none" xmlns="http://www.w3.org/2000/svg">
<path d="M27 18.8892C27 13.3664 22.5228 8.88916 17 8.88916C11.4772 8.88916 7 13.3664 7 18.8892C7 24.412 11.4772 28.8892 17 28.8892C22.5228 28.8892 27 24.412 27 18.8892Z" fill="#FF5533"/>
<path d="M14.4708 17.4922C14.5104 17.4573 14.5301 17.4399 14.5333 17.4228C14.536 17.4079 14.5318 17.3927 14.522 17.3812C14.5106 17.3681 14.4852 17.3631 14.4342 17.3532C13.8402 17.2376 13.2252 17.1698 12.6857 17.1641C12.6598 17.1639 12.6469 17.1637 12.6368 17.1589C12.6279 17.1546 12.6206 17.1479 12.6155 17.1394C12.6098 17.1298 12.6086 17.117 12.6061 17.0915L12.4061 15.0346C12.4036 15.0091 12.4024 14.9963 12.4062 14.9857C12.4096 14.9764 12.4156 14.9683 12.4236 14.9624C12.4327 14.9557 12.4453 14.9533 12.4704 14.9484C15.4839 14.3654 18.4833 14.3355 21.542 14.9496C21.567 14.9546 21.5795 14.9571 21.5886 14.9638C21.5965 14.9697 21.6025 14.9779 21.6058 14.9872C21.6096 14.9978 21.6083 15.0105 21.6057 15.0359L21.3982 17.0918C21.3956 17.1172 21.3943 17.1299 21.3886 17.1395C21.3836 17.148 21.3763 17.1546 21.3674 17.1589C21.3574 17.1637 21.3445 17.1639 21.3187 17.1641C20.7791 17.1698 20.164 17.2376 19.5698 17.3532C19.5189 17.3631 19.4934 17.3681 19.4821 17.3812C19.4723 17.3927 19.4681 17.4079 19.4708 17.4228C19.4739 17.4399 19.4937 17.4573 19.5333 17.4922C20.9649 18.7542 21.9773 20.417 22.0001 22.7529C22.0003 22.7809 22.0005 22.795 21.9951 22.8058C21.9903 22.8152 21.9826 22.823 21.9732 22.8279C21.9624 22.8334 21.9484 22.8334 21.9205 22.8334H19.8582C19.8302 22.8334 19.8162 22.8334 19.8056 22.828C19.7962 22.8233 19.7887 22.8159 19.7838 22.8065C19.7783 22.796 19.7781 22.7816 19.7777 22.7529C19.7509 20.8031 18.7496 19.5033 17.0457 18.3906C17.0299 18.3804 17.022 18.3752 17.0135 18.3732C17.006 18.3714 16.9981 18.3714 16.9906 18.3732C16.982 18.3752 16.9742 18.3804 16.9584 18.3906C15.2545 19.5033 14.2531 20.8031 14.2264 22.7529C14.226 22.7816 14.2258 22.796 14.2203 22.8065C14.2154 22.8159 14.2079 22.8233 14.1985 22.828C14.1879 22.8334 14.1739 22.8334 14.1459 22.8334H12.0836C12.0556 22.8334 12.0416 22.8334 12.0309 22.8279C12.0215 22.823 12.0138 22.8152 12.009 22.8058C12.0036 22.795 12.0037 22.7809 12.004 22.7529C12.0268 20.417 13.0392 18.7542 14.4708 17.4922Z" fill="white"/>
<path d="M40.6329 23.6512H32.2422V14.1274H35.1312V20.9301H40.6329V23.6512Z" fill="white"/>
<path d="M52.0616 23.6512H48.9376L48.3155 21.9641H44.5695L43.9474 23.6512H40.9062L44.9979 14.1274H47.9561L52.0616 23.6512ZM45.3712 19.5968H47.5138L46.4356 16.8485L45.3712 19.5968Z" fill="white"/>
<path d="M56.8731 20.5356L59.2506 14.1274H62.3332L58.366 23.6512H55.2972L51.3438 14.1274H54.4955L56.8731 20.5356Z" fill="white"/>
<path d="M72.7569 23.6512H69.6328L69.0108 21.9641H65.2647L64.6426 23.6512H61.6016L65.6932 14.1274H68.6514L72.7569 23.6512ZM66.0665 19.5968H68.2091L67.1308 16.8485L66.0665 19.5968Z" fill="white"/>
</svg>
