<svg width="15" height="30" viewBox="0 0 15 30" fill="none" xmlns="http://www.w3.org/2000/svg">
<path d="M14.5114 26.3542C14.6663 26.5236 14.7892 26.7247 14.873 26.9461C14.9569 27.1674 15 27.4047 15 27.6443C15 27.8839 14.9569 28.1211 14.873 28.3425C14.7892 28.5638 14.6663 28.765 14.5114 28.9344C14.3565 29.1038 14.1726 29.2382 13.9702 29.3299C13.7678 29.4216 13.5509 29.4687 13.3318 29.4687C13.1127 29.4687 12.8958 29.4216 12.6934 29.3299C12.491 29.2382 12.3071 29.1038 12.1522 28.9344L0.489479 16.1792C0.334321 16.01 0.211218 15.8089 0.127225 15.5875C0.0432322 15.3661 1.25364e-06 15.1288 1.27459e-06 14.8891C1.29554e-06 14.6494 0.0432323 14.4121 0.127225 14.1907C0.211218 13.9694 0.334321 13.7683 0.489479 13.599L12.1522 0.843879C12.3071 0.674463 12.491 0.540073 12.6934 0.448385C12.8958 0.356697 13.1127 0.309507 13.3318 0.309507C13.5509 0.309507 13.7678 0.356697 13.9702 0.448385C14.1726 0.540073 14.3565 0.674463 14.5114 0.84388C14.6663 1.0133 14.7892 1.21442 14.873 1.43578C14.9569 1.65713 15 1.89438 15 2.13397C15 2.37357 14.9569 2.61081 14.873 2.83217C14.7892 3.05352 14.6663 3.25465 14.5114 3.42407L4.02495 14.8891L14.5114 26.3542Z" fill="white" fill-opacity="0.1"/>
</svg>
