<svg width="23" height="23" viewBox="0 0 23 23" fill="none" xmlns="http://www.w3.org/2000/svg">
<path d="M12.4222 18.3745C12.5452 18.4971 12.6428 18.6428 12.7095 18.8032C12.7761 18.9636 12.8104 19.1355 12.8104 19.3092C12.8104 19.4829 12.7761 19.6548 12.7095 19.8152C12.6428 19.9756 12.5452 20.1213 12.4222 20.2439L11.7689 20.897C10.5309 22.1347 8.85189 22.8301 7.10115 22.8301C5.35042 22.8301 3.67139 22.1347 2.43343 20.897C1.19548 19.6593 0.5 17.9806 0.5 16.2302C0.5 14.4799 1.19548 12.8012 2.43343 11.5635L5.08625 8.91228C6.2757 7.72012 7.87607 7.02778 9.55954 6.97708C11.243 6.92638 12.8822 7.52115 14.1412 8.63957C14.2712 8.7551 14.3772 8.89509 14.4531 9.05155C14.5289 9.20802 14.5732 9.37789 14.5835 9.55148C14.5937 9.72506 14.5696 9.89896 14.5126 10.0632C14.4556 10.2275 14.3668 10.379 14.2512 10.5089C14.1357 10.6389 13.9956 10.7448 13.8391 10.8207C13.6827 10.8966 13.5127 10.9409 13.3391 10.9511C13.1655 10.9613 12.9916 10.9372 12.8273 10.8802C12.6629 10.8232 12.5115 10.7344 12.3815 10.6189C11.6265 9.94848 10.6438 9.59182 9.63443 9.62187C8.62508 9.65192 7.66536 10.0664 6.95157 10.7805L4.30096 13.4284C3.5583 14.1709 3.14108 15.178 3.14108 16.228C3.14108 17.2781 3.5583 18.2852 4.30096 19.0277C5.04362 19.7702 6.05088 20.1873 7.10115 20.1873C8.15143 20.1873 9.15869 19.7702 9.90134 19.0277L10.5546 18.3745C10.6772 18.2518 10.8228 18.1545 10.983 18.0881C11.1432 18.0217 11.315 17.9875 11.4884 17.9875C11.6619 17.9875 11.8336 18.0217 11.9938 18.0881C12.154 18.1545 12.2996 18.2518 12.4222 18.3745ZM20.5698 2.75991C19.3308 1.5241 17.6522 0.830078 15.9021 0.830078C14.152 0.830078 12.4733 1.5241 11.2344 2.75991L10.581 3.41308C10.3331 3.66097 10.1938 3.99719 10.1938 4.34776C10.1938 4.69833 10.3331 5.03454 10.581 5.28243C10.829 5.53033 11.1653 5.66959 11.5159 5.66959C11.8666 5.66959 12.2028 5.53033 12.4508 5.28243L13.1041 4.62926C13.8467 3.88675 14.854 3.46961 15.9043 3.46961C16.9545 3.46961 17.9618 3.88675 18.7045 4.62926C19.4471 5.37177 19.8643 6.37883 19.8643 7.42889C19.8643 8.47896 19.4471 9.48601 18.7045 10.2285L16.0527 12.8808C15.3383 13.5946 14.3781 14.0085 13.3685 14.0378C12.3589 14.067 11.3763 13.7094 10.6217 13.0381C10.4917 12.9225 10.3403 12.8337 10.176 12.7767C10.0116 12.7197 9.83772 12.6957 9.6641 12.7059C9.49048 12.7161 9.32057 12.7604 9.16407 12.8363C9.00758 12.9121 8.86756 13.018 8.75201 13.148C8.63646 13.278 8.54765 13.4294 8.49065 13.5937C8.43364 13.758 8.40956 13.9319 8.41977 14.1055C8.42998 14.279 8.47429 14.4489 8.55017 14.6054C8.62605 14.7619 8.73201 14.9018 8.862 15.0174C10.1202 16.1355 11.7582 16.7307 13.4409 16.681C15.1236 16.6313 16.7237 15.9406 17.9137 14.7502L20.5665 12.099C21.804 10.8606 22.4994 9.18178 22.5 7.43122C22.5006 5.68066 21.8064 4.0014 20.5698 2.76211V2.75991Z" fill="url(#paint0_linear_171_131)"/>
<defs>
<linearGradient id="paint0_linear_171_131" x1="0.355316" y1="14.999" x2="16.2113" y2="15.0517" gradientUnits="userSpaceOnUse">
<stop stop-color="#0CEBEB"/>
<stop offset="0.472222" stop-color="#20E3B2"/>
<stop offset="1" stop-color="#29FFC6"/>
</linearGradient>
</defs>
</svg>
