<svg width="7" height="12" viewBox="0 0 7 12" fill="none" xmlns="http://www.w3.org/2000/svg">
<path d="M0.334603 1.9834C0.27264 1.91949 0.223488 1.84362 0.189954 1.76012C0.15642 1.67661 0.13916 1.58711 0.13916 1.49673C0.13916 1.40635 0.15642 1.31685 0.189954 1.23335C0.223488 1.14984 0.27264 1.07397 0.334603 1.01006C0.396565 0.946147 0.470126 0.895451 0.551085 0.860862C0.632043 0.826274 0.718814 0.808472 0.806443 0.808472C0.894072 0.808472 0.980842 0.826274 1.0618 0.860862C1.14276 0.895451 1.21632 0.946147 1.27828 1.01006L5.94337 5.8218C6.00543 5.88565 6.05467 5.96151 6.08827 6.04502C6.12187 6.12853 6.13916 6.21806 6.13916 6.30847C6.13916 6.39889 6.12187 6.48842 6.08827 6.57193C6.05467 6.65544 6.00543 6.73129 5.94337 6.79514L1.27828 11.6069C1.21632 11.6708 1.14276 11.7215 1.0618 11.7561C0.980842 11.7907 0.894072 11.8085 0.806443 11.8085C0.718814 11.8085 0.632043 11.7907 0.551085 11.7561C0.470126 11.7215 0.396565 11.6708 0.334603 11.6069C0.27264 11.543 0.223488 11.4671 0.189954 11.3836C0.15642 11.3001 0.13916 11.2106 0.13916 11.1202C0.13916 11.0298 0.15642 10.9403 0.189954 10.8568C0.223488 10.7733 0.27264 10.6974 0.334603 10.6335L4.52918 6.30847L0.334603 1.9834Z" fill="url(#paint0_linear_60_5919)"/>
<defs>
<linearGradient id="paint0_linear_60_5919" x1="0.0997009" y1="7.89294" x2="4.4241" y2="7.90077" gradientUnits="userSpaceOnUse">
<stop stop-color="#0CEBEB"/>
<stop offset="0.472222" stop-color="#20E3B2"/>
<stop offset="1" stop-color="#29FFC6"/>
</linearGradient>
</defs>
</svg>
