<svg width="48" height="49" viewBox="0 0 48 49" fill="none" xmlns="http://www.w3.org/2000/svg">
<path d="M14 43C12.5333 43 11.1833 42.65 9.95 41.95C8.75 41.2167 7.78333 40.25 7.05 39.05C6.35 37.8167 6 36.4667 6 35V23C6 21.5333 6.35 20.1833 7.05 18.95C7.78333 17.7167 8.75 16.75 9.95 16.05C11.1833 15.35 12.5333 15 14 15H34C35.4667 15 36.8 15.35 38 16.05C39.2333 16.75 40.2 17.7167 40.9 18.95C41.6333 20.1833 42 21.5333 42 23V35C42 36.4667 41.6333 37.8167 40.9 39.05C40.2 40.25 39.2333 41.2167 38 41.95C36.8 42.65 35.4667 43 34 43H14ZM34 39C35.2667 39 36.25 38.65 36.95 37.95C37.65 37.2167 38 36.2333 38 35V23C38 21.7333 37.65 20.75 36.95 20.05C36.25 19.35 35.2667 19 34 19H14C12.7667 19 11.7833 19.35 11.05 20.05C10.35 20.75 10 21.7333 10 23V35C10 36.2333 10.35 37.2167 11.05 37.95C11.7833 38.65 12.7667 39 14 39H34ZM28 29C28 30.1 27.6167 31.05 26.85 31.85C26.0833 32.6167 25.1333 33 24 33C22.9 33 21.95 32.6167 21.15 31.85C20.3833 31.05 20 30.1 20 29C20 27.8667 20.3833 26.9167 21.15 26.15C21.95 25.3833 22.9 25 24 25C25.1333 25 26.0833 25.3833 26.85 26.15C27.6167 26.9167 28 27.8667 28 29ZM16 11C16 9.53333 16.35 8.2 17.05 7C17.7833 5.76667 18.75 4.8 19.95 4.1C21.1833 3.36667 22.5333 3 24 3C25.4667 3 26.8 3.36667 28 4.1C29.2333 4.8 30.2 5.76667 30.9 7C31.6333 8.2 32 9.53333 32 11V17H28V11C28 9.73333 27.65 8.75 26.95 8.05C26.25 7.35 25.2667 7 24 7C22.7667 7 21.7833 7.35 21.05 8.05C20.35 8.75 20 9.73333 20 11V17H16V11Z" fill="url(#paint0_linear_171_912)"/>
<defs>
<linearGradient id="paint0_linear_171_912" x1="5.76324" y1="28.7617" x2="31.7095" y2="28.8392" gradientUnits="userSpaceOnUse">
<stop stop-color="#0CEBEB"/>
<stop offset="0.472222" stop-color="#20E3B2"/>
<stop offset="1" stop-color="#29FFC6"/>
</linearGradient>
</defs>
</svg>
