<svg width="63" height="26" viewBox="0 0 63 26" fill="none" xmlns="http://www.w3.org/2000/svg">
<path d="M13.3731 0H0V9.94014H6.07869L0 16.1306V26H13.3731L19.4518 19.8449V6.22585L13.3731 0ZM13.3731 19.8449H6.07869V6.22585H13.3731V19.8449Z" fill="#F4F4F4"/>
<path d="M49.6269 0L43.5482 6.22585V9.94014L49.6269 9.90476V6.22585H63V0H49.6269ZM43.5482 16.0952H56.9213V19.8095H63V9.94014H49.6269L43.5482 16.0952ZM43.5482 26H56.9213L63 19.8095H43.5482V26Z" fill="#F4F4F4"/>
<path d="M27.7883 0L21.7096 6.22585V9.94014L27.7883 9.90476V6.22585H55.8977V0H27.7883ZM21.7096 16.0952H35.0827V19.8095H41.1614V9.94014H27.7883L21.7096 16.0952ZM4.6703 26H35.0827L41.1614 19.8095H4.6703V26Z" fill="#F4F4F4"/>
</svg>
