<svg width="80" height="37" viewBox="0 0 80 37" fill="none" xmlns="http://www.w3.org/2000/svg">
<path d="M58.2704 11.8896H49.4141C49.93 14.9604 52.7674 17.8507 55.8628 17.8507H62.9135C62.9995 17.5797 62.9995 17.1281 62.9995 16.8572C62.9995 14.1476 60.8499 11.8896 58.2704 11.8896Z" fill="url(#paint0_linear_1_24)"/>
<path d="M50.1875 18.3926V25.8892H54.4867V21.9151H58.27C60.3336 21.9151 62.1392 20.3797 62.7411 18.3926H50.1875Z" fill="#4FAD50"/>
<path d="M35.0547 11.8896V25.7988H38.838C38.838 25.7988 39.7838 25.7988 40.2997 24.8053C42.8792 19.4764 43.6531 17.8507 43.6531 17.8507H44.169V25.7988H48.4682V11.8896H44.6849C44.6849 11.8896 43.739 11.9799 43.2231 12.8831C41.0736 17.4894 39.8698 19.8377 39.8698 19.8377H39.3539V11.8896H35.0547Z" fill="#4FAD50"/>
<path d="M16.998 25.8889V11.9797H21.2972C21.2972 11.9797 22.501 11.9797 23.1889 13.9667C24.9086 19.2053 25.0805 19.9278 25.0805 19.9278C25.0805 19.9278 25.4245 18.6633 26.9722 13.9667C27.66 11.9797 28.8638 11.9797 28.8638 11.9797H33.163V25.8889H28.8638V18.3924H28.3479L25.9404 25.8889H24.0487L21.6412 18.3924H21.1253V25.8889H16.998Z" fill="#4FAD50"/>
<defs>
<linearGradient id="paint0_linear_1_24" x1="49.3988" y1="14.9128" x2="62.9691" y2="14.9128" gradientUnits="userSpaceOnUse">
<stop stop-color="#27B1E6"/>
<stop offset="1" stop-color="#148ACA"/>
</linearGradient>
</defs>
</svg>
