<svg width="18" height="30" viewBox="0 0 18 30" fill="none" xmlns="http://www.w3.org/2000/svg">
<g clip-path="url(#clip0_1_193)">
<path d="M4.75414 2.50914C4.67357 2.42102 4.60965 2.31641 4.56605 2.20128C4.52244 2.08614 4.5 1.96274 4.5 1.83812C4.5 1.7135 4.52244 1.59011 4.56605 1.47497C4.60965 1.35984 4.67357 1.25522 4.75414 1.16711C4.83471 1.07899 4.93037 1.00909 5.03564 0.961396C5.14091 0.913706 5.25374 0.88916 5.36769 0.88916C5.48163 0.88916 5.59447 0.913706 5.69974 0.961396C5.80501 1.00909 5.90066 1.07899 5.98124 1.16711L12.0474 7.80147C12.1281 7.88951 12.1921 7.9941 12.2358 8.10925C12.2795 8.22439 12.302 8.34783 12.302 8.47249C12.302 8.59716 12.2795 8.7206 12.2358 8.83574C12.1921 8.95089 12.1281 9.05547 12.0474 9.14351L5.98124 15.7779C5.90066 15.866 5.80501 15.9359 5.69974 15.9836C5.59447 16.0313 5.48163 16.0558 5.36769 16.0558C5.25374 16.0558 5.14091 16.0313 5.03564 15.9836C4.93037 15.9359 4.83471 15.866 4.75414 15.7779C4.67357 15.6898 4.60965 15.5851 4.56605 15.47C4.52244 15.3549 4.5 15.2315 4.5 15.1069C4.5 14.9822 4.52244 14.8588 4.56605 14.7437C4.60965 14.6286 4.67357 14.524 4.75414 14.4358L10.2085 8.47249L4.75414 2.50914Z" fill="white" fill-opacity="0.95"/>
</g>
<defs>
<clipPath id="clip0_1_193">
<rect width="17" height="29" fill="white" transform="translate(0.5 0.88916)"/>
</clipPath>
</defs>
</svg>
