<svg width="12" height="13" viewBox="0 0 12 13" fill="none" xmlns="http://www.w3.org/2000/svg">
<path d="M6.08562 12.665C6.40745 12.6647 6.71624 12.5378 6.94536 12.3118L11.2174 8.03279C11.3271 7.92378 11.3954 7.78005 11.4107 7.62621L11.9972 1.39434C12.0062 1.29671 11.9935 1.19831 11.9601 1.10615C11.9267 1.01398 11.8734 0.930321 11.8039 0.861129C11.7347 0.79168 11.6511 0.738349 11.5589 0.704939C11.4668 0.671529 11.3684 0.658862 11.2707 0.66784L5.03926 1.25437C4.88543 1.2697 4.74171 1.33803 4.63272 1.44766L0.353986 5.71999C0.127296 5.94738 0 6.25537 0 6.57646C0 6.89755 0.127296 7.20554 0.353986 7.43293L5.23254 12.3118C5.45922 12.5374 5.76581 12.6644 6.08562 12.665ZM10.0844 7.25963L6.08562 11.2587L1.38701 6.5598L5.38583 2.56073L10.5909 2.07418L10.0844 7.25963Z" fill="#0DEAE7"/>
<path d="M7.66519 5.99993C7.11306 5.99993 6.66548 5.55232 6.66548 5.00017C6.66548 4.44801 7.11306 4.0004 7.66519 4.0004C8.21731 4.0004 8.66489 4.44801 8.66489 5.00017C8.66489 5.55232 8.21731 5.99993 7.66519 5.99993Z" fill="#0DEAE7"/>
</svg>
