<svg width="25" height="25" viewBox="0 0 25 25" fill="none" xmlns="http://www.w3.org/2000/svg">
<path d="M6.34928 21.8325L16.2229 7.16772H18.681L8.80736 21.8325H6.34928ZM7.6093 15.0867C6.907 15.0867 6.28731 14.9261 5.75025 14.6049C5.21319 14.2697 4.7863 13.8018 4.46957 13.2012C4.16662 12.5867 4.01514 11.8674 4.01514 11.0434C4.01514 10.2194 4.16662 9.50711 4.46957 8.90655C4.7863 8.30599 5.21319 7.83811 5.75025 7.50292C6.28731 7.16772 6.907 7.00012 7.6093 7.00012C8.31161 7.00012 8.9313 7.16772 9.46836 7.50292C10.0054 7.83811 10.4254 8.30599 10.7284 8.90655C11.0313 9.50711 11.1828 10.2194 11.1828 11.0434C11.1828 11.8674 11.0313 12.5867 10.7284 13.2012C10.4254 13.8018 10.0054 14.2697 9.46836 14.6049C8.9313 14.9261 8.31161 15.0867 7.6093 15.0867ZM7.6093 13.3688C8.06374 13.3688 8.42866 13.1803 8.70408 12.8032C8.9795 12.4121 9.1172 11.8255 9.1172 11.0434C9.1172 10.2613 8.9795 9.68169 8.70408 9.30459C8.42866 8.91353 8.06374 8.718 7.6093 8.718C7.16864 8.718 6.80372 8.91353 6.51453 9.30459C6.23911 9.68169 6.10141 10.2613 6.10141 11.0434C6.10141 11.8116 6.23911 12.3912 6.51453 12.7822C6.80372 13.1733 7.16864 13.3688 7.6093 13.3688ZM17.421 22.0001C16.7324 22.0001 16.1127 21.8395 15.5619 21.5183C15.0249 21.1831 14.6048 20.7152 14.3019 20.1146C13.9989 19.5001 13.8475 18.7808 13.8475 17.9568C13.8475 17.1328 13.9989 16.4205 14.3019 15.82C14.6048 15.2194 15.0249 14.7515 15.5619 14.4163C16.1127 14.0811 16.7324 13.9135 17.421 13.9135C18.137 13.9135 18.7636 14.0811 19.3007 14.4163C19.8377 14.7515 20.2577 15.2194 20.5607 15.82C20.8637 16.4205 21.0151 17.1328 21.0151 17.9568C21.0151 18.7808 20.8637 19.5001 20.5607 20.1146C20.2577 20.7152 19.8377 21.1831 19.3007 21.5183C18.7636 21.8395 18.137 22.0001 17.421 22.0001ZM17.421 20.2822C17.8754 20.2822 18.2403 20.0937 18.5157 19.7166C18.7912 19.3255 18.9289 18.7389 18.9289 17.9568C18.9289 17.1887 18.7912 16.6091 18.5157 16.218C18.2403 15.8269 17.8754 15.6314 17.421 15.6314C16.9803 15.6314 16.6154 15.8269 16.3262 16.218C16.0508 16.5951 15.9131 17.1747 15.9131 17.9568C15.9131 18.7389 16.0508 19.3255 16.3262 19.7166C16.6154 20.0937 16.9803 20.2822 17.421 20.2822Z" fill="#95979F"/>
</svg>
