<svg width="91" height="40" viewBox="0 0 91 40" fill="none" xmlns="http://www.w3.org/2000/svg">
<path d="M56.7684 26.5214C56.7232 26.1258 56.4958 25.2188 55.9048 24.9859C55.6089 24.8695 55.3597 24.962 55.2467 25.1718C55.0645 25.498 55.2008 26.1258 55.5418 26.6849C55.8822 27.2433 56.2007 27.5225 56.428 27.5225C56.6554 27.5225 56.8595 27.2433 56.7684 26.5214Z" fill="#FF8C00"/>
<path d="M53.588 28.104C53.2244 27.7785 52.8155 27.6158 52.4519 27.6158C52.1341 27.6158 51.8842 27.7315 51.7246 27.9412C51.3164 28.4526 51.4979 29.3842 52.1341 29.9426C52.4067 30.1986 52.8155 30.3382 53.2018 30.3382C53.588 30.3382 53.9284 30.1755 54.1331 29.9194C54.4968 29.4073 54.292 28.7094 53.588 28.104Z" fill="#FF8C00"/>
<path d="M28.8704 18.3303C28.8704 27.1731 35.8673 34.3408 44.501 34.3408C46.7959 34.3408 49.0667 33.8989 52.4067 33.875C55.383 33.875 58.6544 34.9455 62.2436 38.2039C62.6073 38.5294 63.0839 38.1106 62.7661 37.7149C59.2447 33.1308 55.9733 32.2701 52.7018 31.5251C48.7038 30.6174 46.6589 28.3369 45.2276 25.8003C44.955 25.2882 44.8187 25.3815 44.7954 26.0332C44.7697 26.9921 44.8383 27.9512 45.0002 28.896H44.5236C38.821 28.896 34.186 24.1484 34.186 18.3071C34.186 12.4659 38.821 7.71829 44.5229 7.71829C50.2255 7.71829 54.8604 12.4659 54.8604 18.3071C54.8604 18.7259 54.8371 19.1447 54.792 19.5403C54.0195 19.4007 52.543 19.3776 51.4979 19.4709C51.1117 19.5172 51.1569 19.7031 51.4527 19.7501C54.8604 20.401 57.2005 22.5658 57.7456 26.4983C57.7682 26.5916 57.8819 26.6147 57.9278 26.5453C59.3132 24.1483 60.1309 21.3319 60.1309 18.3303C60.1309 9.48816 53.1333 2.32043 44.5003 2.32043C35.868 2.32043 28.8704 9.48743 28.8704 18.3303Z" fill="#FF8C00"/>
</svg>
