<svg width="48" height="49" viewBox="0 0 48 49" fill="none" xmlns="http://www.w3.org/2000/svg">
<path d="M23.9751 40C21.7169 40 19.5085 39.6333 17.3499 38.9C15.2246 38.1333 13.2653 37.05 11.472 35.65C9.61229 34.1833 8.03487 32.45 6.73973 30.45C5.44458 28.45 4.53134 26.3 4 24C4.53134 21.7 5.44458 19.55 6.73973 17.55C8.03487 15.5167 9.61229 13.7833 11.472 12.35C13.2653 10.95 15.2246 9.88333 17.3499 9.15C19.5085 8.38333 21.7169 8 23.9751 8C26.2333 8 28.4417 8.38333 30.6002 9.15C32.7588 9.88333 34.7181 10.95 36.4782 12.35C38.3379 13.7833 39.9153 15.5167 41.2105 17.55C42.5056 19.55 43.4355 21.7 44 24C43.4355 26.3 42.5056 28.45 41.2105 30.45C39.9153 32.45 38.3379 34.1833 36.4782 35.65C34.7181 37.05 32.7588 38.1333 30.6002 38.9C28.4417 39.6333 26.2333 40 23.9751 40ZM23.9751 36C25.8348 36 27.5949 35.7167 29.2553 35.15C30.9489 34.55 32.5264 33.6833 33.9875 32.55C35.4487 31.4167 36.6609 30.1333 37.6239 28.7C38.587 27.2667 39.3342 25.7 39.8655 24C39.3342 22.3 38.587 20.7333 37.6239 19.3C36.6609 17.8667 35.4487 16.5833 33.9875 15.45C32.5264 14.2833 30.9489 13.4167 29.2553 12.85C27.5949 12.2833 25.8348 12 23.9751 12C22.1154 12 20.3387 12.2833 18.6451 12.85C16.9846 13.4167 15.4238 14.2833 13.9626 15.45C12.5015 16.5833 11.2893 17.8667 10.3263 19.3C9.36322 20.7333 8.63263 22.3 8.1345 24C8.63263 25.7 9.36322 27.2667 10.3263 28.7C11.2893 30.1333 12.5015 31.4167 13.9626 32.55C15.4238 33.6833 16.9846 34.55 18.6451 35.15C20.3387 35.7167 22.1154 36 23.9751 36ZM23.9751 32C22.5471 32 21.2188 31.65 19.99 30.95C18.7613 30.2167 17.7817 29.2333 17.0511 28C16.3537 26.7667 16.005 25.4333 16.005 24C16.005 22.5667 16.3537 21.2333 17.0511 20C17.7817 18.7667 18.7613 17.8 19.99 17.1C21.2188 16.3667 22.5471 16 23.9751 16C25.4031 16 26.7314 16.3667 27.9601 17.1C29.1889 17.8 30.1519 18.7667 30.8493 20C31.5799 21.2333 31.9452 22.5667 31.9452 24C31.9452 25.4333 31.5799 26.7667 30.8493 28C30.1519 29.2333 29.1889 30.2167 27.9601 30.95C26.7314 31.65 25.4031 32 23.9751 32ZM23.9751 28C25.2038 28 26.1669 27.65 26.8643 26.95C27.5949 26.2167 27.9601 25.2333 27.9601 24C27.9601 22.7667 27.5949 21.8 26.8643 21.1C26.1669 20.3667 25.2038 20 23.9751 20C22.7464 20 21.7667 20.3667 21.0361 21.1C20.3387 21.8 19.99 22.7667 19.99 24C19.99 25.2333 20.3387 26.2167 21.0361 26.95C21.7667 27.65 22.7464 28 23.9751 28Z" fill="url(#paint0_linear_171_924)"/>
<defs>
<linearGradient id="paint0_linear_171_924" x1="3.73694" y1="28.6094" x2="32.5659" y2="28.729" gradientUnits="userSpaceOnUse">
<stop stop-color="#0CEBEB"/>
<stop offset="0.472222" stop-color="#20E3B2"/>
<stop offset="1" stop-color="#29FFC6"/>
</linearGradient>
</defs>
</svg>
