<svg width="48" height="49" viewBox="0 0 48 49" fill="none" xmlns="http://www.w3.org/2000/svg">
<path d="M24 45.061C20.4 45.061 17.0667 44.161 14 42.361C10.9333 40.561 8.5 38.1277 6.7 35.061C4.9 31.9944 4 28.661 4 25.061C4 21.461 4.9 18.1277 6.7 15.061C8.5 11.961 10.9333 9.5277 14 7.76103C17.0667 5.96103 20.4 5.06104 24 5.06104C27.6 5.06104 30.9333 5.96103 34 7.76103C37.1 9.5277 39.5333 11.961 41.3 15.061C43.1 18.1277 44 21.461 44 25.061C44 28.661 43.1 31.9944 41.3 35.061C39.5333 38.1277 37.1 40.561 34 42.361C30.9333 44.161 27.6 45.061 24 45.061ZM24 41.061C26.9667 41.061 29.6667 40.361 32.1 38.961C34.5667 37.561 36.5 35.6444 37.9 33.211C39.3 30.7444 40 28.0277 40 25.061C40 22.0944 39.3 19.3944 37.9 16.961C36.5 14.4944 34.5667 12.561 32.1 11.161C29.6667 9.76103 26.9667 9.06103 24 9.06103C21.0333 9.06103 18.3167 9.76103 15.85 11.161C13.4167 12.561 11.5 14.4944 10.1 16.961C8.7 19.3944 8 22.0944 8 25.061C8 28.0277 8.7 30.7444 10.1 33.211C11.5 35.6444 13.4167 37.561 15.85 38.961C18.3167 40.361 21.0333 41.061 24 41.061ZM22 27.061C22 26.2277 22.1333 25.4944 22.4 24.861C22.7 24.1944 23.0667 23.6277 23.5 23.161C23.9667 22.661 24.55 22.1277 25.25 21.561L25.4 21.411C26.0333 20.911 26.45 20.5277 26.65 20.261C26.8833 19.961 27 19.561 27 19.061C27 18.3944 26.75 17.8944 26.25 17.561C25.7833 17.2277 25.0333 17.061 24 17.061C22.9667 17.061 22.2 17.2277 21.7 17.561C21.2333 17.8944 21 18.3944 21 19.061C21 19.8944 20.6667 20.4777 20 20.811C19.3333 21.111 18.6667 21.111 18 20.811C17.3333 20.4777 17 19.8944 17 19.061C17 17.9944 17.3 17.011 17.9 16.111C18.5333 15.1777 19.3833 14.4444 20.45 13.911C21.5167 13.3444 22.7 13.061 24 13.061C25.3 13.061 26.4833 13.3444 27.55 13.911C28.6167 14.4444 29.45 15.1777 30.05 16.111C30.6833 17.011 31 17.9944 31 19.061C31 20.261 30.7333 21.2777 30.2 22.111C29.6667 22.9444 28.9 23.7444 27.9 24.511L27.6 24.761C27.2333 25.061 26.9333 25.3277 26.7 25.561C26.4667 25.7944 26.2833 26.0277 26.15 26.261C26.05 26.4944 26 26.761 26 27.061C26 27.8944 25.6667 28.4777 25 28.811C24.3333 29.111 23.6667 29.111 23 28.811C22.3333 28.4777 22 27.8944 22 27.061ZM27 34.061C27 34.8944 26.7 35.611 26.1 36.211C25.5333 36.7777 24.8333 37.061 24 37.061C23.1667 37.061 22.45 36.7777 21.85 36.211C21.2833 35.611 21 34.8944 21 34.061C21 33.2277 21.2833 32.5277 21.85 31.961C22.45 31.361 23.1667 31.061 24 31.061C24.8333 31.061 25.5333 31.361 26.1 31.961C26.7 32.5277 27 33.2277 27 34.061Z" fill="url(#paint0_linear_171_625)"/>
<defs>
<linearGradient id="paint0_linear_171_625" x1="3.73694" y1="30.8228" x2="32.5661" y2="30.9184" gradientUnits="userSpaceOnUse">
<stop stop-color="#0CEBEB"/>
<stop offset="0.472222" stop-color="#20E3B2"/>
<stop offset="1" stop-color="#29FFC6"/>
</linearGradient>
</defs>
</svg>
