<svg width="40" height="36" viewBox="0 0 40 36" fill="none" xmlns="http://www.w3.org/2000/svg">
<path d="M6.85 34.8368C6.01667 35.6433 5.05 36.0303 3.95 35.9981C2.88333 35.9658 1.95 35.5949 1.15 34.8852C0.383333 34.1433 0 33.2079 0 32.0789V7.74147C0 6.35445 0.35 5.06419 1.05 3.87071C1.78333 2.67722 2.76667 1.74179 4 1.0644C5.23333 0.354759 6.56667 -6.10352e-05 8 -6.10352e-05H32C33.4333 -6.10352e-05 34.7667 0.354759 36 1.0644C37.2333 1.74179 38.2 2.67722 38.9 3.87071C39.6333 5.06419 40 6.35445 40 7.74147V23.2245C40 24.6116 39.6333 25.9018 38.9 27.0953C38.2 28.2888 37.2333 29.2404 36 29.95C34.7667 30.6274 33.4333 30.9661 32 30.9661H10.85L6.85 34.8368ZM4 32.0789C4 32.2402 3.95 32.3692 3.85 32.466C3.75 32.5305 3.66667 32.5628 3.6 32.5628C3.53333 32.5628 3.55 32.5144 3.65 32.4176L8.6 27.6759C8.8 27.4824 9.01667 27.3372 9.25 27.2405C9.48333 27.1437 9.73333 27.0953 10 27.0953H32C33.1 27.0953 34.0333 26.7244 34.8 25.9825C35.6 25.2083 36 24.289 36 23.2245V7.74147C36 6.67701 35.6 5.77383 34.8 5.03194C34.0333 4.25778 33.1 3.87071 32 3.87071H8C6.9 3.87071 5.95 4.25778 5.15 5.03194C4.38333 5.77383 4 6.67701 4 7.74147V32.0789ZM14 11.6122C14 10.8703 14.2167 10.1284 14.65 9.38655C15.1167 8.64465 15.8 8.03178 16.7 7.54794C17.6333 7.03183 18.7333 6.77378 20 6.77378C21.7 6.77378 23.1167 7.22537 24.25 8.12855C25.4167 8.99947 26 10.1607 26 11.6122C26 12.7735 25.4833 13.7734 24.45 14.6121C24.05 14.9992 23.6167 15.3217 23.15 15.5798C22.8833 15.6765 22.6333 15.8056 22.4 15.9669C22.1667 16.0959 21.95 16.2572 21.75 16.4507C21.45 16.7733 21.1667 17.0152 20.9 17.1765C20.6333 17.3378 20.3333 17.4184 20 17.4184C19.4333 17.4184 18.95 17.241 18.55 16.8862C18.1833 16.4991 18 16.0314 18 15.483C18 15.0637 18.1167 14.6766 18.35 14.3218C18.6167 13.9347 18.95 13.5799 19.35 13.2573L19.9 12.9186C20.3333 12.6928 20.8 12.4832 21.3 12.2896C21.7333 12.0961 21.95 11.9025 21.95 11.709C21.95 11.3542 21.7833 11.0961 21.45 10.9349C21.1167 10.7413 20.6333 10.6445 20 10.6445C19.5667 10.6445 19.2 10.7091 18.9 10.8381C18.6 10.9349 18.3667 11.0639 18.2 11.2252C18.0667 11.3542 18 11.4993 18 11.6606C18 12.467 17.6667 13.0315 17 13.3541C16.3333 13.6444 15.6667 13.6283 15 13.3057C14.3333 12.9831 14 12.4187 14 11.6122ZM23 21.2892C23 22.0956 22.7 22.7891 22.1 23.3697C21.5333 23.9181 20.8333 24.1922 20 24.1922C19.1667 24.1922 18.45 23.9181 17.85 23.3697C17.2833 22.7891 17 22.0956 17 21.2892C17 20.4827 17.2833 19.8054 17.85 19.257C18.45 18.6764 19.1667 18.3861 20 18.3861C20.8333 18.3861 21.5333 18.6764 22.1 19.257C22.7 19.8054 23 20.4827 23 21.2892Z" fill="url(#paint0_linear_171_711)"/>
<defs>
<linearGradient id="paint0_linear_171_711" x1="-0.263062" y1="23.1855" x2="28.566" y2="23.2918" gradientUnits="userSpaceOnUse">
<stop stop-color="#0CEBEB"/>
<stop offset="0.472222" stop-color="#20E3B2"/>
<stop offset="1" stop-color="#29FFC6"/>
</linearGradient>
</defs>
</svg>
