<svg width="12" height="14" viewBox="0 0 12 14" fill="none" xmlns="http://www.w3.org/2000/svg">
<path d="M6.8723 0.265991C7.02706 0.0782329 7.22605 -0.0101241 7.46925 0.000920361C7.71246 0.000920361 7.91697 0.0892774 8.0828 0.265991C8.24862 0.431661 8.31495 0.641509 8.28178 0.895536L7.75115 5.65025H10.7194C10.9405 5.65025 11.1229 5.72204 11.2666 5.86562C11.4103 6.0092 11.4877 6.18592 11.4987 6.39577C11.5098 6.59457 11.449 6.77681 11.3163 6.94248L5.13117 13.7184C4.9764 13.9061 4.77741 14 4.53421 14C4.30206 13.989 4.10307 13.9006 3.93725 13.7349C3.78248 13.5582 3.71615 13.3428 3.73826 13.0888L4.26889 8.96364H1.2841C1.07406 8.96364 0.897183 8.89738 0.75347 8.76484C0.609758 8.62126 0.526847 8.45007 0.504738 8.25127C0.482628 8.05246 0.537902 7.8647 0.67056 7.68799L6.8723 0.265991ZM1.69866 8.5329C1.64338 8.61022 1.566 8.57708 1.4665 8.4335C1.36701 8.27888 1.28963 8.10769 1.23435 7.91993C1.19013 7.73217 1.20672 7.63829 1.2841 7.63829H4.94876C5.18091 7.63829 5.36332 7.72112 5.49598 7.88679C5.63969 8.04142 5.69496 8.22918 5.6618 8.45007L5.06484 13.2545C5.07589 13.1993 5.05931 13.133 5.01509 13.0557C4.98193 12.9673 4.92665 12.8679 4.84927 12.7575C4.78294 12.636 4.68898 12.5035 4.56737 12.3599L10.0727 6.3295C10.1722 6.45099 10.2606 6.56144 10.338 6.66084C10.4264 6.76024 10.4983 6.83203 10.5535 6.87621C10.5867 6.90934 10.6143 6.93695 10.6365 6.95904C10.6696 6.97009 10.6973 6.97561 10.7194 6.97561H7.08786C6.85571 6.97561 6.66778 6.8983 6.52407 6.74367C6.39141 6.58905 6.33614 6.39577 6.35825 6.16383L6.95521 0.729867C6.96626 0.663599 7.06023 0.652554 7.2371 0.696732C7.41398 0.729866 7.57428 0.796134 7.71799 0.895536C7.87275 0.983893 7.92803 1.05568 7.88381 1.11091L1.69866 8.5329Z" fill="#76DBA1"/>
</svg>
