<svg width="25" height="25" viewBox="0 0 25 25" fill="none" xmlns="http://www.w3.org/2000/svg">
<path d="M21.75 13.0801C22.17 13.0801 22.5 12.7401 22.5 12.3301C22.5 11.9101 22.17 11.5801 21.75 11.5801H20.5V9.38008H21.75C22.17 9.38008 22.5 9.05008 22.5 8.63008C22.5 8.22008 22.17 7.88008 21.75 7.88008H20.27C19.79 6.29008 18.54 5.04008 16.95 4.56008V3.08008C16.95 2.67008 16.61 2.33008 16.2 2.33008C15.79 2.33008 15.45 2.67008 15.45 3.08008V4.33008H13.25V3.08008C13.25 2.67008 12.91 2.33008 12.5 2.33008C12.09 2.33008 11.75 2.67008 11.75 3.08008V4.33008H9.56V3.08008C9.56 2.67008 9.22 2.33008 8.81 2.33008C8.39 2.33008 8.06 2.67008 8.06 3.08008V4.56008C6.46 5.04008 5.21 6.29008 4.73 7.88008H3.25C2.84 7.88008 2.5 8.22008 2.5 8.63008C2.5 9.05008 2.84 9.38008 3.25 9.38008H4.5V11.5801H3.25C2.84 11.5801 2.5 11.9101 2.5 12.3301C2.5 12.7401 2.84 13.0801 3.25 13.0801H4.5V15.2801H3.25C2.84 15.2801 2.5 15.6101 2.5 16.0301C2.5 16.4401 2.84 16.7801 3.25 16.7801H4.73C5.2 18.3701 6.46 19.6201 8.06 20.1001V21.5801C8.06 21.9901 8.39 22.3301 8.81 22.3301C9.22 22.3301 9.56 21.9901 9.56 21.5801V20.3301H11.76V21.5801C11.76 21.9901 12.09 22.3301 12.51 22.3301C12.92 22.3301 13.26 21.9901 13.26 21.5801V20.3301H15.45V21.5801C15.45 21.9901 15.79 22.3301 16.2 22.3301C16.61 22.3301 16.95 21.9901 16.95 21.5801V20.1001C18.54 19.6201 19.79 18.3701 20.27 16.7801H21.75C22.17 16.7801 22.5 16.4401 22.5 16.0301C22.5 15.6101 22.17 15.2801 21.75 15.2801H20.5V13.0801H21.75ZM17.76 14.5901C17.76 16.2401 16.41 17.5901 14.76 17.5901H10.24C8.59 17.5901 7.24 16.2401 7.24 14.5901V10.0701C7.24 8.42008 8.59 7.07008 10.24 7.07008H14.76C16.41 7.07008 17.76 8.42008 17.76 10.0701V14.5901Z" fill="url(#paint0_linear_171_164)"/>
<path d="M10.52 16.5803H14.49C15.74 16.5803 16.76 15.5703 16.76 14.3103V10.3403C16.76 9.09031 15.75 8.07031 14.49 8.07031H10.52C9.27 8.07031 8.25 9.08031 8.25 10.3403V14.3103C8.25 15.5703 9.26 16.5803 10.52 16.5803Z" fill="url(#paint1_linear_171_164)"/>
<defs>
<linearGradient id="paint0_linear_171_164" x1="2.36847" y1="15.2109" x2="16.783" y2="15.2588" gradientUnits="userSpaceOnUse">
<stop stop-color="#0CEBEB"/>
<stop offset="0.472222" stop-color="#20E3B2"/>
<stop offset="1" stop-color="#29FFC6"/>
</linearGradient>
<linearGradient id="paint1_linear_171_164" x1="8.19403" y1="13.5511" x2="14.3274" y2="13.5715" gradientUnits="userSpaceOnUse">
<stop stop-color="#0CEBEB"/>
<stop offset="0.472222" stop-color="#20E3B2"/>
<stop offset="1" stop-color="#29FFC6"/>
</linearGradient>
</defs>
</svg>
