<svg width="40" height="37" viewBox="0 0 40 37" fill="none" xmlns="http://www.w3.org/2000/svg">
<path d="M11.1512 36.061C10.2265 36.061 9.57929 35.686 9.20943 34.9361C8.87656 34.1861 8.87656 33.4361 9.20943 32.6862C9.57929 31.9362 10.2265 31.5613 11.1512 31.5613H26.6852C28.3865 31.5613 29.9029 31.1863 31.2344 30.4363C32.6029 29.6489 33.657 28.5802 34.3967 27.2303C35.1734 25.8429 35.5617 24.2867 35.5617 22.5619C35.5617 20.837 35.1734 19.2996 34.3967 17.9497C33.657 16.5622 32.6029 15.4936 31.2344 14.7436C29.9029 13.9562 28.3865 13.5624 26.6852 13.5624H2.27462V9.06273H26.6852C29.0892 9.06273 31.3084 9.66269 33.3426 10.8626C35.4138 12.0625 37.0411 13.7124 38.2247 15.8123C39.4082 17.8747 40 20.1245 40 22.5619C40 24.9992 39.4082 27.2491 38.2247 29.3114C37.0411 31.3738 35.4138 33.0237 33.3426 34.2611C31.3084 35.461 29.0892 36.061 26.6852 36.061H11.1512ZM0.72122 12.9437C0.240407 12.4563 0 11.9125 0 11.3126C0 10.7126 0.240407 10.1689 0.72122 9.68144L9.59778 0.738272C10.2265 0.100815 10.9293 -0.0866725 11.706 0.175811C12.4827 0.438294 13.0005 0.963259 13.2594 1.75071C13.5552 2.50066 13.3703 3.21311 12.7046 3.88807L5.43689 11.3126L12.7046 18.7371C13.3333 19.3746 13.5183 20.087 13.2594 20.8745C13.0005 21.6619 12.4827 22.2056 11.706 22.5056C10.9663 22.7681 10.2635 22.5619 9.59778 21.8869L0.72122 12.9437Z" fill="url(#paint0_linear_171_684)"/>
<defs>
<linearGradient id="paint0_linear_171_684" x1="-0.263062" y1="23.2465" x2="28.566" y2="23.3528" gradientUnits="userSpaceOnUse">
<stop stop-color="#0CEBEB"/>
<stop offset="0.472222" stop-color="#20E3B2"/>
<stop offset="1" stop-color="#29FFC6"/>
</linearGradient>
</defs>
</svg>
