<svg width="15" height="30" viewBox="0 0 15 30" fill="none" xmlns="http://www.w3.org/2000/svg">
<path d="M0.488606 3.42413C0.333699 3.25471 0.21082 3.05358 0.126985 2.83223C0.0431496 2.61088 1.63221e-09 2.37363 0 2.13404C-1.63221e-09 1.89444 0.0431496 1.6572 0.126985 1.43584C0.21082 1.21449 0.333699 1.01336 0.488606 0.843944C0.643513 0.674526 0.827415 0.540138 1.02981 0.44845C1.23221 0.356762 1.44913 0.30957 1.66821 0.30957C1.88728 0.30957 2.10421 0.356762 2.3066 0.44845C2.509 0.540138 2.6929 0.674526 2.84781 0.843944L14.5105 13.5991C14.6657 13.7684 14.7888 13.9694 14.8728 14.1908C14.9568 14.4122 15 14.6495 15 14.8892C15 15.1289 14.9568 15.3662 14.8728 15.5876C14.7888 15.8089 14.6657 16.01 14.5105 16.1793L2.84781 28.9344C2.6929 29.1039 2.509 29.2382 2.3066 29.3299C2.10421 29.4216 1.88728 29.4688 1.66821 29.4688C1.44913 29.4688 1.23221 29.4216 1.02981 29.3299C0.827415 29.2382 0.643513 29.1039 0.488606 28.9344C0.333699 28.765 0.21082 28.5639 0.126985 28.3425C0.0431496 28.1212 0 27.8839 0 27.6443C0 27.4048 0.0431496 27.1675 0.126985 26.9462C0.21082 26.7248 0.333699 26.5237 0.488606 26.3543L10.9751 14.8892L0.488606 3.42413Z" fill="white" fill-opacity="0.1"/>
</svg>
