<svg width="14" height="16" viewBox="0 0 14 16" fill="none" xmlns="http://www.w3.org/2000/svg">
<path d="M0.755361 1.92577C0.674788 1.83765 0.610875 1.73304 0.56727 1.6179C0.523664 1.50277 0.501221 1.37937 0.501221 1.25475C0.501221 1.13013 0.523664 1.00673 0.56727 0.891598C0.610875 0.776464 0.674788 0.671851 0.755361 0.583731C0.835933 0.495612 0.931586 0.425712 1.03686 0.378022C1.14213 0.330332 1.25496 0.305786 1.36891 0.305786C1.48286 0.305786 1.59569 0.330332 1.70096 0.378022C1.80623 0.425712 1.90189 0.495612 1.98246 0.583731L8.04861 7.2181C8.12932 7.30614 8.19335 7.41073 8.23703 7.52587C8.28072 7.64102 8.30321 7.76446 8.30321 7.88912C8.30321 8.01378 8.28072 8.13722 8.23703 8.25237C8.19335 8.36751 8.12932 8.4721 8.04861 8.56014L1.98246 15.1945C1.90189 15.2826 1.80623 15.3525 1.70096 15.4002C1.59569 15.4479 1.48286 15.4725 1.36891 15.4725C1.25496 15.4725 1.14213 15.4479 1.03686 15.4002C0.931586 15.3525 0.835933 15.2826 0.755361 15.1945C0.674788 15.1064 0.610875 15.0018 0.56727 14.8866C0.523664 14.7715 0.501221 14.6481 0.501221 14.5235C0.501221 14.3989 0.523664 14.2755 0.56727 14.1603C0.610875 14.0452 0.674788 13.9406 0.755361 13.8525L6.2097 7.88912L0.755361 1.92577ZM13.5012 1.25475C13.5012 1.00339 13.4099 0.762319 13.2474 0.584578C13.0849 0.406837 12.8645 0.306983 12.6346 0.306983C12.4048 0.306983 12.1844 0.406837 12.0219 0.584578C11.8593 0.762319 11.768 1.00339 11.768 1.25475V14.5235C11.768 14.7749 11.8593 15.0159 12.0219 15.1937C12.1844 15.3714 12.4048 15.4713 12.6346 15.4713C12.8645 15.4713 13.0849 15.3714 13.2474 15.1937C13.4099 15.0159 13.5012 14.7749 13.5012 14.5235V1.25475Z" fill="#62EDED" fill-opacity="0.95"/>
</svg>
