<svg width="14" height="14" viewBox="0 0 14 14" fill="none" xmlns="http://www.w3.org/2000/svg">
<g id="Group">
<path id="icon" d="M6.11495 14C5.77206 14 5.45978 13.895 5.17812 13.685C4.9087 13.475 4.74338 13.2183 4.68214 12.915L4.48008 11.9875C4.46784 11.9408 4.47396 11.9292 4.49845 11.9525C4.53519 11.9758 4.55968 12.005 4.57193 12.04C4.58417 12.075 4.56581 12.0808 4.51682 12.0575C4.28414 11.9758 4.04534 11.8533 3.80042 11.69L3.63509 11.585C3.59835 11.5617 3.59223 11.55 3.61672 11.55C3.65346 11.5383 3.6902 11.5383 3.72694 11.55C3.77592 11.5617 3.77592 11.5733 3.72694 11.585L2.7901 11.8475C2.45945 11.9408 2.13493 11.9292 1.81653 11.8125C1.49812 11.6958 1.2532 11.4975 1.08175 11.2175L0.200022 9.7825C0.0285746 9.49083 -0.0326566 9.18167 0.0163283 8.855C0.0653133 8.52833 0.218391 8.25417 0.475562 8.0325L1.19197 7.42C1.21646 7.39667 1.22871 7.4025 1.22871 7.4375C1.22871 7.46083 1.21646 7.48417 1.19197 7.5075C1.17972 7.53083 1.1736 7.53083 1.1736 7.5075C1.13686 7.41417 1.11849 7.245 1.11849 7C1.11849 6.755 1.13686 6.58583 1.1736 6.4925C1.1736 6.4575 1.17972 6.4575 1.19197 6.4925C1.21646 6.51583 1.22871 6.545 1.22871 6.58C1.22871 6.60333 1.21646 6.60333 1.19197 6.58L0.475562 5.95C0.218391 5.74 0.0653133 5.47167 0.0163283 5.145C-0.0326566 4.81833 0.0285746 4.50917 0.200022 4.2175L1.08175 2.7825C1.2532 2.5025 1.49812 2.30417 1.81653 2.1875C2.13493 2.05917 2.45945 2.04167 2.7901 2.135L3.72694 2.415C3.77592 2.42667 3.77592 2.43833 3.72694 2.45C3.6902 2.45 3.65346 2.45 3.61672 2.45C3.59223 2.45 3.59835 2.4325 3.63509 2.3975L3.80042 2.31C4.04534 2.14667 4.28414 2.01833 4.51682 1.925C4.56581 1.91333 4.58417 1.925 4.57193 1.96C4.55968 1.995 4.53519 2.02417 4.49845 2.0475C4.47396 2.07083 4.46784 2.05333 4.48008 1.995L4.68214 1.085C4.74338 0.77 4.9087 0.513333 5.17812 0.314999C5.45978 0.105 5.77206 0 6.11495 0H7.87841C8.22131 0 8.52746 0.105 8.79688 0.314999C9.07854 0.513333 9.24999 0.77 9.31122 1.085L9.49492 1.9425C9.50716 1.98917 9.50104 2.00667 9.47655 1.995C9.45205 1.98333 9.43369 1.96583 9.42144 1.9425C9.42144 1.91917 9.43981 1.91333 9.47655 1.925C9.75821 2.01833 10.046 2.17583 10.3399 2.3975C10.3644 2.42083 10.3644 2.43833 10.3399 2.45C10.3154 2.45 10.2909 2.44417 10.2664 2.4325C10.2542 2.42083 10.2726 2.40917 10.3215 2.3975L11.2033 2.135C11.5339 2.04167 11.8584 2.05917 12.1768 2.1875C12.4952 2.30417 12.7402 2.5025 12.9116 2.7825L13.7933 4.2175C13.977 4.50917 14.0383 4.81833 13.977 5.145C13.9281 5.46 13.775 5.72833 13.5178 5.95L12.8565 6.545C12.8075 6.58 12.7769 6.58583 12.7647 6.5625C12.7647 6.5275 12.7708 6.49833 12.783 6.475C12.8075 6.45167 12.8259 6.4575 12.8381 6.4925C12.8626 6.58583 12.8749 6.755 12.8749 7C12.8749 7.245 12.8626 7.41417 12.8381 7.5075C12.8259 7.5425 12.8075 7.54833 12.783 7.525C12.7708 7.50167 12.7647 7.47833 12.7647 7.455C12.7769 7.42 12.8075 7.42 12.8565 7.455L13.5178 8.0325C13.775 8.26583 13.9281 8.54583 13.977 8.8725C14.0383 9.1875 13.977 9.49083 13.7933 9.7825L12.9116 11.2175C12.7402 11.4975 12.4952 11.6958 12.1768 11.8125C11.8584 11.9292 11.5339 11.9408 11.2033 11.8475L10.3215 11.6025C10.2726 11.5908 10.2542 11.5792 10.2664 11.5675C10.2909 11.5558 10.3154 11.5558 10.3399 11.5675C10.3644 11.5675 10.3644 11.5792 10.3399 11.6025C10.046 11.8125 9.75821 11.9642 9.47655 12.0575C9.43981 12.0808 9.42144 12.0808 9.42144 12.0575C9.43369 12.0342 9.45205 12.0167 9.47655 12.005C9.50104 11.9933 9.50716 12.0108 9.49492 12.0575L9.31122 12.915C9.24999 13.2183 9.07854 13.475 8.79688 13.685C8.52746 13.895 8.22131 14 7.87841 14H6.11495ZM8.39275 12.6C8.51522 12.6 8.51522 12.6642 8.39275 12.7925C8.27029 12.9208 8.12946 13.0317 7.97026 13.125C7.81106 13.2067 7.7437 13.1892 7.7682 13.0725L8.08048 11.7775C8.12946 11.5442 8.22743 11.3458 8.37439 11.1825C8.52134 11.0075 8.69891 10.8733 8.9071 10.78C9.01731 10.7333 9.11528 10.6867 9.20101 10.64C9.29898 10.5817 9.39082 10.5233 9.47655 10.465C9.66024 10.3367 9.86843 10.255 10.1011 10.22C10.3338 10.185 10.5665 10.2025 10.7991 10.2725L12.1401 10.675C12.2503 10.71 12.2258 10.7742 12.0666 10.8675C11.9197 10.9492 11.7605 11.0075 11.589 11.0425C11.4176 11.0775 11.3563 11.0483 11.4053 10.955L12.7647 8.645C12.8259 8.55167 12.881 8.58667 12.93 8.75C12.9912 8.91333 13.0218 9.0825 13.0218 9.2575C13.0218 9.4325 12.979 9.47917 12.8932 9.3975L11.8829 8.505C11.7115 8.34167 11.5768 8.16083 11.4788 7.9625C11.3931 7.7525 11.3625 7.53667 11.387 7.315C11.3992 7.245 11.4053 7.14 11.4053 7C11.4053 6.86 11.3992 6.755 11.387 6.685C11.3625 6.46333 11.3931 6.25333 11.4788 6.055C11.5768 5.845 11.7115 5.65833 11.8829 5.495L12.8932 4.6025C12.979 4.52083 13.0218 4.5675 13.0218 4.7425C13.0218 4.9175 12.9912 5.08667 12.93 5.25C12.881 5.41333 12.8259 5.44833 12.7647 5.355L11.4053 3.045C11.3563 2.95167 11.4176 2.9225 11.589 2.9575C11.7605 2.98083 11.9197 3.03917 12.0666 3.1325C12.2258 3.22583 12.2503 3.28417 12.1401 3.3075L10.7991 3.7275C10.5665 3.7975 10.3338 3.815 10.1011 3.78C9.86843 3.73333 9.66024 3.65167 9.47655 3.535C9.39082 3.465 9.29898 3.40667 9.20101 3.36C9.11528 3.31333 9.01731 3.26667 8.9071 3.22C8.69891 3.12667 8.52134 2.9925 8.37439 2.8175C8.22743 2.6425 8.12946 2.44417 8.08048 2.2225L7.7682 0.9275C7.7437 0.810833 7.81106 0.793333 7.97026 0.875C8.12946 0.956666 8.27029 1.0675 8.39275 1.2075C8.51522 1.33583 8.51522 1.4 8.39275 1.4H5.60061C5.47815 1.4 5.47815 1.33583 5.60061 1.2075C5.73532 1.0675 5.87615 0.956666 6.02311 0.875C6.18231 0.793333 6.24966 0.810833 6.22517 0.9275L5.91289 2.2225C5.86391 2.44417 5.76594 2.6425 5.61898 2.8175C5.47203 2.9925 5.29446 3.12667 5.08627 3.22C4.9883 3.26667 4.89645 3.31333 4.81073 3.36C4.72501 3.40667 4.63316 3.45917 4.53519 3.5175L4.51682 3.535C4.33313 3.65167 4.12494 3.73333 3.89226 3.78C3.65958 3.815 3.42691 3.7975 3.19423 3.7275L1.85326 3.3075C1.74305 3.28417 1.76142 3.22583 1.90837 3.1325C2.06757 3.03917 2.2329 2.98083 2.40434 2.9575C2.58804 2.9225 2.64927 2.95167 2.58804 3.045L1.22871 5.355C1.16747 5.44833 1.10624 5.41333 1.04501 5.25C0.996027 5.08667 0.971535 4.9175 0.971535 4.7425C0.971535 4.5675 1.0144 4.52083 1.10012 4.6025L2.11043 5.495C2.29413 5.65833 2.42884 5.845 2.51456 6.055C2.60028 6.25333 2.6309 6.46333 2.60641 6.685C2.59416 6.755 2.58804 6.86 2.58804 7C2.58804 7.14 2.59416 7.245 2.60641 7.315C2.6309 7.53667 2.60028 7.7525 2.51456 7.9625C2.42884 8.16083 2.29413 8.34167 2.11043 8.505L1.10012 9.3975C1.0144 9.47917 0.971535 9.4325 0.971535 9.2575C0.971535 9.0825 0.996027 8.91333 1.04501 8.75C1.10624 8.58667 1.16747 8.55167 1.22871 8.645L2.58804 10.955C2.64927 11.0483 2.58804 11.0775 2.40434 11.0425C2.2329 11.0075 2.06757 10.9492 1.90837 10.8675C1.76142 10.7742 1.74305 10.71 1.85326 10.675L3.19423 10.2725C3.42691 10.2025 3.65958 10.185 3.89226 10.22C4.12494 10.255 4.33313 10.3367 4.51682 10.465L4.53519 10.4825C4.63316 10.5292 4.72501 10.5817 4.81073 10.64C4.89645 10.6867 4.9883 10.7333 5.08627 10.78C5.29446 10.8733 5.47203 11.0075 5.61898 11.1825C5.76594 11.3458 5.86391 11.5442 5.91289 11.7775L6.22517 13.0725C6.24966 13.1892 6.18231 13.2067 6.02311 13.125C5.87615 13.0317 5.73532 12.9208 5.60061 12.7925C5.47815 12.6642 5.47815 12.6 5.60061 12.6H8.39275ZM6.99668 9.8C6.4701 9.8 5.98025 9.6775 5.52713 9.4325C5.07402 9.17583 4.71276 8.83167 4.44334 8.4C4.18617 7.96833 4.05759 7.50167 4.05759 7C4.05759 6.49833 4.18617 6.03167 4.44334 5.6C4.71276 5.16833 5.07402 4.83 5.52713 4.585C5.98025 4.32833 6.4701 4.2 6.99668 4.2C7.52327 4.2 8.01312 4.32833 8.46623 4.585C8.91934 4.83 9.27448 5.16833 9.53165 5.6C9.80107 6.03167 9.93578 6.49833 9.93578 7C9.93578 7.50167 9.80107 7.96833 9.53165 8.4C9.27448 8.83167 8.91934 9.17583 8.46623 9.4325C8.01312 9.6775 7.52327 9.8 6.99668 9.8ZM6.99668 8.4C7.40081 8.4 7.7437 8.26583 8.02537 7.9975C8.31928 7.7175 8.46623 7.385 8.46623 7C8.46623 6.615 8.31928 6.28833 8.02537 6.02C7.7437 5.74 7.40081 5.6 6.99668 5.6C6.59256 5.6 6.24354 5.74 5.94963 6.02C5.66797 6.28833 5.52713 6.615 5.52713 7C5.52713 7.385 5.66797 7.7175 5.94963 7.9975C6.24354 8.26583 6.59256 8.4 6.99668 8.4Z" fill="#76DBA1"/>
</g>
</svg>
