<svg width="12" height="14" viewBox="0 0 12 14" fill="none" xmlns="http://www.w3.org/2000/svg">
<path d="M6.36216 1.8145C7.0962 1.85609 7.81358 2.0385 8.47062 2.35058C9.10661 2.65023 9.67393 3.06527 10.1404 3.57206C10.6054 4.07985 10.9645 4.66633 11.1986 5.30046C11.4419 5.95554 11.5396 6.65098 11.4855 7.34327C11.466 7.70826 11.4025 8.06992 11.2961 8.42126C11.1929 8.76472 11.0535 9.09751 10.8802 9.41467C10.6134 9.90332 10.3102 10.3735 9.97313 10.8217C9.64542 11.2597 9.28185 11.6728 8.88589 12.0571C8.10742 12.8132 7.21646 13.458 6.24122 13.971L6.21838 13.9862C6.19778 13.9968 6.17445 14.0014 6.15113 13.9996C6.11281 13.9914 6.07831 13.9715 6.05302 13.943C6.02796 13.9148 6.01445 13.879 6.01476 13.8421C6.01476 13.8252 6.01723 13.8077 6.02216 13.7925C6.02722 13.7792 6.03494 13.7669 6.04499 13.7564C6.21592 13.5271 6.35722 13.2862 6.46829 13.036C6.5801 12.7822 6.65643 12.5157 6.69536 12.2432C6.69524 12.2339 6.69308 12.2247 6.68901 12.2162C6.685 12.2076 6.6792 12.2 6.67192 12.1936C6.66544 12.1866 6.65735 12.1809 6.64828 12.1771C6.63921 12.1732 6.6294 12.1714 6.61947 12.1715C6.45657 12.1903 6.29292 12.2023 6.12891 12.2076C5.96484 12.213 5.80058 12.2058 5.63774 12.1861C4.91604 12.1451 4.2102 11.9686 3.56149 11.6668C2.91279 11.365 2.3342 10.9441 1.85954 10.4285C1.39417 9.92094 1.03505 9.3344 0.801299 8.70009C0.558231 8.04502 0.460559 7.34963 0.514371 6.65728C0.533679 6.29235 0.597031 5.93069 0.703189 5.57929C0.805156 5.23968 0.94477 4.91121 1.1197 4.5993C1.39058 4.09531 1.69355 3.62165 2.02614 3.17832C2.3543 2.74076 2.71737 2.32754 3.11216 1.94225C3.89223 1.1877 4.78337 0.543482 5.75807 0.0295416L5.78151 0.0149584C5.802 0.00360686 5.82569 -0.00148565 5.84939 0.000375167C5.88734 0.00911341 5.92128 0.0291566 5.94627 0.0575413C5.972 0.0856693 5.98563 0.121877 5.98452 0.15904C5.98508 0.175659 5.98261 0.192243 5.97712 0.20804C5.97255 0.221293 5.96496 0.233432 5.9549 0.243623C5.78602 0.468717 5.64385 0.710699 5.53099 0.965198C5.41992 1.21778 5.34588 1.48144 5.30515 1.75733C5.30515 1.77658 5.31256 1.79408 5.32737 1.8075C5.33409 1.81432 5.34224 1.81975 5.35125 1.82342C5.36025 1.82716 5.37 1.82908 5.37982 1.82908C5.54148 1.80983 5.705 1.79817 5.87037 1.79408C6.03821 1.78825 6.20111 1.79525 6.36278 1.81392L6.36216 1.8145ZM5.8642 9.02851C6.14588 9.05137 6.42948 9.01882 6.69715 8.93301C6.96489 8.84715 7.21091 8.70989 7.41978 8.52976C7.63439 8.35482 7.80939 8.14056 7.93409 7.89994C8.0588 7.65938 8.13068 7.39735 8.14543 7.12978C8.16931 6.86226 8.13476 6.59294 8.04393 6.33855C7.95304 6.08416 7.80778 5.85013 7.61724 5.65104C7.43397 5.44676 7.20758 5.28086 6.95255 5.16414C6.69752 5.04741 6.41948 4.98237 6.13632 4.97322C5.85346 4.95076 5.56869 4.98342 5.29978 5.06923C5.03081 5.15498 4.78331 5.29212 4.57271 5.47196C4.3565 5.64527 4.18095 5.85923 4.05729 6.10032C3.93364 6.34141 3.86453 6.6042 3.85447 6.87194C3.83065 7.13905 3.86459 7.40791 3.95437 7.66218C4.04415 7.91639 4.18774 8.15071 4.37649 8.35068C4.764 8.77359 5.26011 9.00109 5.8642 9.02851Z" fill="#76DBA1"/>
</svg>
