<svg width="22" height="20" viewBox="0 0 22 20" fill="none" xmlns="http://www.w3.org/2000/svg">
<path d="M20.6384 16.4286H19.1151V15H19.8767V12.1429H16.8301V12.8571H15.3068V11.4286C15.3068 11.2391 15.387 11.0574 15.5299 10.9235C15.6727 10.7895 15.8664 10.7143 16.0684 10.7143H20.6384C20.8404 10.7143 21.0341 10.7895 21.1769 10.9235C21.3198 11.0574 21.4 11.2391 21.4 11.4286V15.7143C21.4 15.9037 21.3198 16.0854 21.1769 16.2194C21.0341 16.3533 20.8404 16.4286 20.6384 16.4286Z" fill="#62646C"/>
<path d="M16.8301 20H12.2602C12.0582 20 11.8644 19.9247 11.7216 19.7908C11.5787 19.6568 11.4985 19.4752 11.4985 19.2857V15C11.4985 14.8106 11.5787 14.6289 11.7216 14.4949C11.8644 14.361 12.0582 14.2857 12.2602 14.2857H16.8301C17.0321 14.2857 17.2258 14.361 17.3687 14.4949C17.5115 14.6289 17.5917 14.8106 17.5917 15V19.2857C17.5917 19.4752 17.5115 19.6568 17.3687 19.7908C17.2258 19.9247 17.0321 20 16.8301 20ZM13.0218 18.5714H16.0684V15.7143H13.0218V18.5714ZM9.97519 12.7557C9.42485 12.6212 8.92575 12.3447 8.53457 11.9575C8.14339 11.5704 7.8758 11.0881 7.76219 10.5655C7.64858 10.0429 7.6935 9.50091 7.89185 9.00105C8.09019 8.50118 8.43402 8.06349 8.88429 7.73767C9.33456 7.41185 9.87322 7.21096 10.4391 7.15782C11.005 7.10467 11.5755 7.20139 12.0857 7.437C12.5959 7.67261 13.0255 8.03766 13.3256 8.49071C13.6257 8.94376 13.7843 9.46665 13.7835 10H15.3068C15.3077 9.18272 15.0593 8.38224 14.5911 7.69295C14.1228 7.00366 13.4542 6.4543 12.664 6.10965C11.8738 5.765 10.995 5.63943 10.1312 5.74775C9.26739 5.85607 8.45463 6.19375 7.78874 6.72099C7.12285 7.24823 6.63159 7.94303 6.3729 8.72347C6.1142 9.50392 6.09886 10.3375 6.32867 11.1258C6.55848 11.9142 7.02387 12.6245 7.66996 13.1729C8.31605 13.7214 9.1159 14.0852 9.97519 14.2214V12.7557Z" fill="#62646C"/>
<path d="M20.5546 8.25L18.7952 9.7L17.7136 8.68571L19.5492 7.17143L17.7517 4.25714L15.1316 5.08571C14.5179 4.60662 13.8227 4.22754 13.0751 3.96429L12.5344 1.42857H8.93934L8.39856 3.96429C7.64498 4.22018 6.94604 4.59992 6.33448 5.08571L3.722 4.25714L1.92449 7.17143L3.99619 8.87857C3.85528 9.61795 3.85528 10.3749 3.99619 11.1143L1.92449 12.8286L3.722 15.7429L6.34209 14.9143C6.95584 15.3934 7.65099 15.7725 8.39856 16.0357L8.93934 18.5714H9.97519V20H8.93934C8.5871 19.9997 8.24584 19.885 7.97366 19.6753C7.70147 19.4656 7.51518 19.174 7.44649 18.85L7.05805 17.05C6.71322 16.8923 6.3799 16.7133 6.06028 16.5143L4.20946 17.1C4.05207 17.148 3.8875 17.1721 3.722 17.1714C3.45445 17.1732 3.19125 17.1079 2.95961 16.9823C2.72797 16.8567 2.53627 16.6754 2.40433 16.4571L0.606825 13.5429C0.429044 13.2564 0.362982 12.921 0.419952 12.5939C0.476922 12.2668 0.65338 11.9685 0.919104 11.75L2.38148 10.55C2.36625 10.3643 2.35863 10.1857 2.35863 10C2.35863 9.81429 2.37387 9.63571 2.3891 9.45714L0.919104 8.25C0.65338 8.03152 0.476922 7.73319 0.419952 7.40612C0.362982 7.07904 0.429044 6.74356 0.606825 6.45714L2.40433 3.54286C2.53627 3.32457 2.72797 3.14328 2.95961 3.01771C3.19125 2.89214 3.45445 2.82684 3.722 2.82857C3.8875 2.82786 4.05207 2.85197 4.20946 2.9L6.05266 3.48571C6.37489 3.28664 6.71075 3.10769 7.05805 2.95L7.44649 1.15C7.51518 0.826008 7.70147 0.534352 7.97366 0.324676C8.24584 0.115001 8.5871 0.000265359 8.93934 0H12.5344C12.8866 0.000265359 13.2278 0.115001 13.5 0.324676C13.7722 0.534352 13.9585 0.826008 14.0272 1.15L14.4156 2.95C14.7605 3.10772 15.0938 3.28669 15.4134 3.48571L17.2642 2.9C17.4216 2.85197 17.5862 2.82786 17.7517 2.82857C18.0192 2.82684 18.2824 2.89214 18.5141 3.01771C18.7457 3.14328 18.9374 3.32457 19.0694 3.54286L20.8669 6.45714C21.0446 6.74356 21.1107 7.07904 21.0537 7.40612C20.9968 7.73319 20.8203 8.03152 20.5546 8.25Z" fill="#62646C"/>
</svg>
