<svg width="40" height="41" viewBox="0 0 40 41" fill="none" xmlns="http://www.w3.org/2000/svg">
<path d="M20 0.0609741C8.95 0.0609741 0 9.01097 0 20.061C0 31.111 8.95 40.061 20 40.061C31.05 40.061 40 31.111 40 20.061C40 9.01097 31.05 0.0609741 20 0.0609741ZM6.35 13.961C6.1 13.011 6.7 12.061 7.55 11.811C11.9 10.661 16.45 10.311 20.95 10.761C25.45 11.211 29.8 12.461 33.8 14.511C34.7 14.911 35 15.961 34.55 16.761C34.3 17.361 33.65 17.761 33 17.761C32.75 17.761 32.5 17.711 32.25 17.561C28.6 15.761 24.7 14.611 20.6 14.211C16.5 13.811 12.45 14.161 8.5 15.161C7.55 15.411 6.6 14.861 6.35 13.961ZM7.5 20.361C7.2 19.411 7.75 18.461 8.7 18.211C12.45 17.111 16.35 16.761 20.3 17.161C24.2 17.561 27.95 18.661 31.4 20.511C32.3 20.911 32.6 21.961 32.15 22.811C31.85 23.411 31.25 23.761 30.6 23.761C30.35 23.761 30.1 23.661 29.8 23.561C26.7 21.961 23.45 20.961 19.9 20.611C16.45 20.261 13 20.561 9.6 21.561C8.7 21.761 7.75 21.261 7.5 20.361ZM8.65 26.761C8.35 25.861 8.9 24.861 9.8 24.561C12.95 23.561 16.3 23.211 19.65 23.561C23 23.911 26.15 24.911 29.1 26.511C29.9 27.011 30.2 28.061 29.75 28.911C29.45 29.461 28.85 29.761 28.25 29.761C27.95 29.761 27.65 29.711 27.4 29.561C24.9 28.161 22.15 27.311 19.3 27.011C16.45 26.761 13.55 27.011 10.85 27.911C9.9 28.161 8.95 27.661 8.65 26.761Z" fill="url(#paint0_linear_171_641)"/>
<defs>
<linearGradient id="paint0_linear_171_641" x1="-0.263062" y1="25.8227" x2="28.5661" y2="25.9184" gradientUnits="userSpaceOnUse">
<stop stop-color="#0CEBEB"/>
<stop offset="0.472222" stop-color="#20E3B2"/>
<stop offset="1" stop-color="#29FFC6"/>
</linearGradient>
</defs>
</svg>
