<svg width="14" height="14" viewBox="0 0 14 14" fill="none" xmlns="http://www.w3.org/2000/svg">
<g filter="url(#filter0_d_171_2303)">
<path d="M10.54 6.34C8.62 5.2 5.41 5.08 3.58 5.65C3.28 5.74 2.98 5.56 2.89 5.29C2.8 4.99 2.98 4.69 3.25 4.6C5.38 3.97 8.89 4.09 11.11 5.41C11.38 5.56 11.47 5.92 11.32 6.19C11.17 6.4 10.81 6.49 10.54 6.34ZM10.48 8.02C10.33 8.23 10.06 8.32 9.85 8.17C8.23 7.18 5.77 6.88 3.88 7.48C3.64 7.54 3.37 7.42 3.31 7.18C3.25 6.94 3.37 6.67 3.61 6.61C5.8 5.95 8.5 6.28 10.36 7.42C10.54 7.51 10.63 7.81 10.48 8.02ZM9.76 9.67C9.64 9.85 9.43 9.91 9.25 9.79C7.84 8.92 6.07 8.74 3.97 9.22C3.76 9.28 3.58 9.13 3.52 8.95C3.46 8.74 3.61 8.56 3.79 8.5C6.07 7.99 8.05 8.2 9.61 9.16C9.82 9.25 9.85 9.49 9.76 9.67ZM7 1C6.21208 1 5.43184 1.1552 4.70392 1.45672C3.97594 1.75825 3.3145 2.20021 2.75736 2.75736C1.63214 3.88258 1 5.40868 1 7C1 8.59132 1.63214 10.1174 2.75736 11.2427C3.3145 11.7998 3.97594 12.2417 4.70392 12.5433C5.43184 12.8448 6.21208 13 7 13C8.59132 13 10.1174 12.3678 11.2427 11.2427C12.3678 10.1174 13 8.59132 13 7C13 6.21208 12.8448 5.43184 12.5433 4.70392C12.2417 3.97594 11.7998 3.3145 11.2427 2.75736C10.6855 2.20021 10.0241 1.75825 9.29608 1.45672C8.56816 1.1552 7.78792 1 7 1Z" fill="#76DBA1"/>
</g>
<defs>
<filter id="filter0_d_171_2303" x="-6" y="-6" width="26" height="26" filterUnits="userSpaceOnUse" color-interpolation-filters="sRGB">
<feFlood flood-opacity="0" result="BackgroundImageFix"/>
<feColorMatrix in="SourceAlpha" type="matrix" values="0 0 0 0 0 0 0 0 0 0 0 0 0 0 0 0 0 0 127 0" result="hardAlpha"/>
<feOffset/>
<feGaussianBlur stdDeviation="3.5"/>
<feComposite in2="hardAlpha" operator="out"/>
<feColorMatrix type="matrix" values="0 0 0 0 1 0 0 0 0 1 0 0 0 0 1 0 0 0 0.1 0"/>
<feBlend mode="normal" in2="BackgroundImageFix" result="effect1_dropShadow_171_2303"/>
<feBlend mode="normal" in="SourceGraphic" in2="effect1_dropShadow_171_2303" result="shape"/>
</filter>
</defs>
</svg>
