<svg width="40" height="39" viewBox="0 0 40 39" fill="none" xmlns="http://www.w3.org/2000/svg">
<path d="M11.369 38.4912C10.5498 38.9757 9.71356 39.1141 8.86026 38.9064C8.00696 38.6642 7.34139 38.1624 6.86354 37.401C6.41982 36.6397 6.26623 35.7745 6.40276 34.8055L8.19469 24.4755C8.19469 24.4062 8.19469 24.4062 8.19469 24.4755C8.22882 24.5101 8.24588 24.5793 8.24588 24.6831C8.28001 24.8561 8.31415 25.0292 8.34828 25.2022C8.41654 25.3752 8.46774 25.479 8.50187 25.5137L1.07817 18.0905C0.395529 17.433 0.0371436 16.6716 0.00301168 15.8065C-0.0311205 14.9067 0.224869 14.1108 0.770981 13.4186C1.35122 12.7265 2.10213 12.3285 3.02369 12.2247L12.7001 10.7712C12.4612 11.1865 12.3247 11.4114 12.2905 11.446L16.9495 1.89459C17.3933 1.06403 18.0076 0.510326 18.7927 0.233472C19.6118 -0.0779869 20.4139 -0.0779869 21.199 0.233472C22.0181 0.510326 22.6496 1.06403 23.0933 1.89459L27.7523 11.446C27.5817 11.2038 27.4281 10.9615 27.2915 10.7193L37.1215 12.2766C38.0431 12.415 38.7599 12.8303 39.2719 13.5224C39.818 14.18 40.0569 14.9413 39.9886 15.8065C39.9545 16.6716 39.6132 17.433 38.9647 18.0905L31.541 25.5137C31.4386 25.5829 31.4556 25.3925 31.5922 24.9426C31.7287 24.4928 31.814 24.337 31.8481 24.4755L33.6401 34.8055C33.8107 35.7745 33.6571 36.6397 33.1793 37.401C32.7014 38.1278 32.0359 38.6123 31.1826 38.8545C30.3634 39.0622 29.5272 38.941 28.6739 38.4912L19.407 33.5597C19.2705 33.4905 19.3388 33.4559 19.6118 33.4559C19.8849 33.4213 20.1579 33.4213 20.431 33.4559C20.7041 33.4559 20.7723 33.4905 20.6358 33.5597L11.369 38.4912ZM18.6391 29.926C19.0828 29.6838 19.5436 29.5626 20.0214 29.5626C20.5334 29.5626 20.9942 29.6838 21.4038 29.926L30.6194 34.8575C30.8925 34.9959 30.9437 35.1689 30.773 35.3766C30.6365 35.5842 30.4146 35.7226 30.1074 35.7918C29.8344 35.8611 29.6808 35.7572 29.6466 35.4804L27.8547 25.2022C27.7523 24.7523 27.7694 24.2851 27.9059 23.8006C28.0766 23.3161 28.3326 22.9182 28.6739 22.6067L36.0976 15.1836C36.3024 14.9759 36.4901 14.9932 36.6608 15.2355C36.8314 15.4431 36.8997 15.6854 36.8655 15.9622C36.8314 16.2391 36.6949 16.3602 36.456 16.3256L26.2164 14.7683C25.7044 14.6991 25.2607 14.526 24.8852 14.2492C24.5098 13.9377 24.2197 13.5743 24.0149 13.1591L19.407 3.81527C19.2705 3.57302 19.3388 3.39998 19.6118 3.29616C19.8849 3.19234 20.1579 3.19234 20.431 3.29616C20.7041 3.39998 20.7723 3.57302 20.6358 3.81527L16.028 13.1591C15.8232 13.5743 15.5331 13.9377 15.1576 14.2492C14.7822 14.526 14.3555 14.6991 13.8777 14.7683L3.58687 16.3775C3.31381 16.4121 3.16022 16.291 3.12609 16.0141C3.12609 15.7027 3.21142 15.4431 3.38208 15.2355C3.55274 14.9932 3.74046 14.9759 3.94526 15.1836L11.369 22.6067C11.7103 22.9182 11.9492 23.3161 12.0857 23.8006C12.2564 24.2851 12.2905 24.7523 12.1881 25.2022L10.3962 35.4804C10.3621 35.7572 10.2085 35.8611 9.93542 35.7918C9.66236 35.7226 9.4405 35.5842 9.26984 35.3766C9.13331 35.1689 9.18451 34.9959 9.42344 34.8575L18.6391 29.926Z" fill="url(#paint0_linear_171_750)"/>
<defs>
<linearGradient id="paint0_linear_171_750" x1="-0.263062" y1="25.1176" x2="28.5661" y2="25.2157" gradientUnits="userSpaceOnUse">
<stop stop-color="#0CEBEB"/>
<stop offset="0.472222" stop-color="#20E3B2"/>
<stop offset="1" stop-color="#29FFC6"/>
</linearGradient>
</defs>
</svg>
