<svg width="20" height="20" viewBox="0 0 20 20" fill="none" xmlns="http://www.w3.org/2000/svg">
<path d="M5.77498 18.85C5.37498 19.0833 4.96665 19.15 4.54998 19.05C4.13331 18.9333 3.80831 18.6917 3.57498 18.325C3.35831 17.9583 3.28331 17.5417 3.34998 17.075L4.22498 12.1C4.22498 12.0667 4.22498 12.0667 4.22498 12.1C4.24165 12.1167 4.24998 12.15 4.24998 12.2C4.26665 12.2833 4.28331 12.3667 4.29998 12.45C4.33331 12.5333 4.35831 12.5833 4.37498 12.6L0.749981 9.025C0.416648 8.70833 0.241648 8.34167 0.224981 7.925C0.208315 7.49167 0.333315 7.10833 0.599981 6.775C0.883315 6.44167 1.24998 6.25 1.69998 6.2L6.42498 5.5C6.30831 5.7 6.24165 5.80833 6.22498 5.825L8.49998 1.225C8.71665 0.825 9.01665 0.558333 9.39998 0.425C9.79998 0.275 10.1916 0.275 10.575 0.425C10.975 0.558333 11.2833 0.825 11.5 1.225L13.775 5.825C13.6916 5.70833 13.6166 5.59167 13.55 5.475L18.35 6.225C18.8 6.29167 19.15 6.49167 19.4 6.825C19.6666 7.14167 19.7833 7.50833 19.75 7.925C19.7333 8.34167 19.5666 8.70833 19.25 9.025L15.625 12.6C15.575 12.6333 15.5833 12.5417 15.65 12.325C15.7166 12.1083 15.7583 12.0333 15.775 12.1L16.65 17.075C16.7333 17.5417 16.6583 17.9583 16.425 18.325C16.1916 18.675 15.8666 18.9083 15.45 19.025C15.05 19.125 14.6416 19.0667 14.225 18.85L9.69998 16.475C9.63332 16.4417 9.66665 16.425 9.79998 16.425C9.93331 16.4083 10.0666 16.4083 10.2 16.425C10.3333 16.425 10.3666 16.4417 10.3 16.475L5.77498 18.85ZM9.32498 14.725C9.54165 14.6083 9.76665 14.55 9.99998 14.55C10.25 14.55 10.475 14.6083 10.675 14.725L15.175 17.1C15.3083 17.1667 15.3333 17.25 15.25 17.35C15.1833 17.45 15.075 17.5167 14.925 17.55C14.7916 17.5833 14.7166 17.5333 14.7 17.4L13.825 12.45C13.775 12.2333 13.7833 12.0083 13.85 11.775C13.9333 11.5417 14.0583 11.35 14.225 11.2L17.85 7.625C17.95 7.525 18.0416 7.53333 18.125 7.65C18.2083 7.75 18.2416 7.86667 18.225 8C18.2083 8.13333 18.1416 8.19167 18.025 8.175L13.025 7.425C12.775 7.39167 12.5583 7.30833 12.375 7.175C12.1916 7.025 12.05 6.85 11.95 6.65L9.69998 2.15C9.63332 2.03333 9.66665 1.95 9.79998 1.9C9.93331 1.85 10.0666 1.85 10.2 1.9C10.3333 1.95 10.3666 2.03333 10.3 2.15L8.04998 6.65C7.94998 6.85 7.80831 7.025 7.62498 7.175C7.44165 7.30833 7.23331 7.39167 6.99998 7.425L1.97498 8.2C1.84165 8.21667 1.76665 8.15833 1.74998 8.025C1.74998 7.875 1.79165 7.75 1.87498 7.65C1.95831 7.53333 2.04998 7.525 2.14998 7.625L5.77498 11.2C5.94165 11.35 6.05831 11.5417 6.12498 11.775C6.20831 12.0083 6.22498 12.2333 6.17498 12.45L5.29998 17.4C5.28331 17.5333 5.20831 17.5833 5.07498 17.55C4.94165 17.5167 4.83331 17.45 4.74998 17.35C4.68331 17.25 4.70831 17.1667 4.82498 17.1L9.32498 14.725Z" fill="#62646C"/>
</svg>
