<svg width="37" height="36" viewBox="0 0 37 36" fill="none" xmlns="http://www.w3.org/2000/svg">
<path d="M18.5403 -0.00964355C20.9041 -0.00964355 23.2448 0.45594 25.4286 1.36052C27.6125 2.26511 29.5967 3.59097 31.2682 5.26247C32.9396 6.9339 34.2656 8.91819 35.1701 11.102C36.0747 13.2858 36.5403 15.6265 36.5403 17.9904C36.5403 22.7643 34.6439 27.3426 31.2682 30.7182C27.8926 34.094 23.3142 35.9904 18.5403 35.9904C10.2603 35.9904 3.33028 30.4464 1.18828 22.9044L8.08228 25.7484C8.31937 26.9009 8.94663 27.9365 9.85794 28.6808C10.7694 29.425 11.9096 29.8325 13.0863 29.8344C15.8943 29.8344 18.1803 27.5484 18.1803 24.7404V24.5064L24.3003 20.1324H24.4443C28.1883 20.1324 31.2303 17.0904 31.2303 13.3464C31.2303 9.60236 28.1883 6.56036 24.4443 6.56036C20.7003 6.56036 17.6403 9.60236 17.6403 13.3464V13.4364L13.3743 19.6644L13.0863 19.6464C12.0243 19.6464 11.0343 19.9704 10.2243 20.5284L0.540283 16.5504C1.31428 7.28036 9.05428 -0.00964355 18.5403 -0.00964355ZM11.8443 27.2964C13.2843 27.8904 14.9403 27.2244 15.5343 25.7844C16.1283 24.3444 15.4443 22.7064 14.0403 22.1124L11.7363 21.1584C12.6183 20.8344 13.6083 20.8164 14.5443 21.2124C15.4983 21.5904 16.2363 22.3284 16.6143 23.2824C17.0103 24.2184 17.0103 25.2624 16.6143 26.1984C15.8403 28.1424 13.5543 29.0784 11.6103 28.2684C10.7103 27.8904 10.0263 27.2064 9.64828 26.3964L11.8443 27.2964ZM28.9803 13.3464C28.9803 15.8484 26.9463 17.8824 24.4443 17.8824C23.2445 17.8776 22.0952 17.3976 21.2485 16.5474C20.4017 15.6973 19.9263 14.5462 19.9263 13.3464C19.9239 12.7524 20.0391 12.1638 20.2654 11.6146C20.4915 11.0653 20.8242 10.5663 21.2442 10.1463C21.6642 9.7263 22.1633 9.39356 22.7125 9.16744C23.2618 8.94116 23.8503 8.82596 24.4443 8.82836C25.6441 8.82836 26.7953 9.30373 27.6454 10.1506C28.4955 10.9973 28.9755 12.1465 28.9803 13.3464ZM21.0603 13.3464C21.0603 15.2184 22.5723 16.7484 24.4623 16.7484C26.3343 16.7484 27.8463 15.2184 27.8463 13.3464C27.8463 11.4744 26.3343 9.94436 24.4623 9.94436C22.5723 9.94436 21.0603 11.4744 21.0603 13.3464Z" fill="#68A1F5"/>
</svg>
