<svg width="14" height="15" viewBox="0 0 14 15" fill="none" xmlns="http://www.w3.org/2000/svg">
<path d="M7 0.665039C7.91927 0.665039 8.82953 0.846099 9.6788 1.19788C10.5281 1.54967 11.2997 2.06528 11.9497 2.71531C12.5997 3.36531 13.1154 4.13697 13.4671 4.98624C13.8189 5.83551 14 6.74577 14 7.66504C14 9.52157 13.2625 11.302 11.9497 12.6148C10.637 13.9276 8.85653 14.665 7 14.665C3.78 14.665 1.085 12.509 0.252 9.57604L2.933 10.682C3.0252 11.1302 3.26913 11.533 3.62353 11.8224C3.978 12.1118 4.4214 12.2703 4.879 12.271C5.971 12.271 6.86 11.382 6.86 10.29V10.199L9.24 8.49804H9.296C10.752 8.49804 11.935 7.31504 11.935 5.85904C11.935 4.40304 10.752 3.22004 9.296 3.22004C7.84 3.22004 6.65 4.40304 6.65 5.85904V5.89404L4.991 8.31604L4.879 8.30904C4.466 8.30904 4.081 8.43504 3.766 8.65204L0 7.10504C0.301 3.50004 3.311 0.665039 7 0.665039ZM4.396 11.284C4.956 11.515 5.6 11.256 5.831 10.696C6.062 10.136 5.796 9.49904 5.25 9.26804L4.354 8.89704C4.697 8.77104 5.082 8.76404 5.446 8.91804C5.817 9.06504 6.104 9.35204 6.251 9.72304C6.405 10.087 6.405 10.493 6.251 10.857C5.95 11.613 5.061 11.977 4.305 11.662C3.955 11.515 3.689 11.249 3.542 10.934L4.396 11.284ZM11.06 5.85904C11.06 6.83204 10.269 7.62304 9.296 7.62304C8.8294 7.62117 8.38247 7.43451 8.0532 7.10391C7.72387 6.77331 7.539 6.32564 7.539 5.85904C7.53807 5.62804 7.58287 5.39917 7.67087 5.18557C7.7588 4.97197 7.8882 4.77791 8.05153 4.61457C8.21487 4.45124 8.40893 4.32184 8.62253 4.23391C8.83613 4.14591 9.065 4.10111 9.296 4.10204C9.7626 4.10204 10.2103 4.28691 10.5409 4.61624C10.8715 4.94551 11.0581 5.39244 11.06 5.85904ZM7.98 5.85904C7.98 6.58704 8.568 7.18204 9.303 7.18204C10.031 7.18204 10.619 6.58704 10.619 5.85904C10.619 5.13104 10.031 4.53604 9.303 4.53604C8.568 4.53604 7.98 5.13104 7.98 5.85904Z" fill="#76DBA1"/>
</svg>
