<svg width="40" height="40" viewBox="0 0 40 40" fill="none" xmlns="http://www.w3.org/2000/svg">
<path d="M40 23.7777C40 24.3332 39.9074 24.8332 39.7222 25.2777C39.537 25.6851 39.2407 26.0925 38.8333 26.4999L26.5556 38.8332C26.1481 39.2406 25.7222 39.5369 25.2778 39.7221C24.8333 39.9073 24.3333 39.9999 23.7778 39.9999H8.88889C7.2963 39.9999 5.81482 39.611 4.44444 38.8332C3.07407 38.0184 1.98148 36.9258 1.16667 35.5554C0.388889 34.1851 0 32.7036 0 31.111V8.88877C0 7.29618 0.388889 5.81469 1.16667 4.44432C1.98148 3.07395 3.07407 1.99988 4.44444 1.2221C5.81482 0.407285 7.2963 -0.00012207 8.88889 -0.00012207H31.1111C32.7037 -0.00012207 34.1852 0.407285 35.5556 1.2221C36.9259 1.99988 38 3.07395 38.7778 4.44432C39.5926 5.81469 40 7.29618 40 8.88877V23.7777ZM35.5556 8.88877C35.5556 7.48136 35.1667 6.38877 34.3889 5.61099C33.6111 4.83321 32.5185 4.44432 31.1111 4.44432H8.88889C7.51852 4.44432 6.42593 4.83321 5.61111 5.61099C4.83333 6.38877 4.44444 7.48136 4.44444 8.88877V31.111C4.44444 32.4814 4.83333 33.574 5.61111 34.3888C6.42593 35.1665 7.51852 35.5554 8.88889 35.5554H23.5L35.5556 23.4999V8.88877ZM16.5556 26.5554C15.9259 27.1851 15.2222 27.3702 14.4444 27.111C13.6667 26.8517 13.1296 26.3517 12.8333 25.611C12.5741 24.8332 12.7778 24.111 13.4444 23.4443L23.4444 13.4443C24.1111 12.7777 24.8148 12.574 25.5556 12.8332C26.3333 13.0925 26.8519 13.6295 27.1111 14.4443C27.3704 15.2221 27.1852 15.9258 26.5556 16.5554L16.5556 26.5554ZM13.4444 16.5554C12.8148 15.9258 12.6296 15.2221 12.8889 14.4443C13.1481 13.6665 13.6481 13.148 14.3889 12.8888C15.1667 12.5925 15.8889 12.7777 16.5556 13.4443L26.5556 23.4443C27.1852 24.074 27.3704 24.7777 27.1111 25.5554C26.8519 26.3332 26.3333 26.8702 25.5556 27.1665C24.8148 27.4258 24.1111 27.2221 23.4444 26.5554L13.4444 16.5554Z" fill="url(#paint0_linear_171_741)"/>
<defs>
<linearGradient id="paint0_linear_171_741" x1="-0.263062" y1="25.7616" x2="28.5661" y2="25.8573" gradientUnits="userSpaceOnUse">
<stop stop-color="#0CEBEB"/>
<stop offset="0.472222" stop-color="#20E3B2"/>
<stop offset="1" stop-color="#29FFC6"/>
</linearGradient>
</defs>
</svg>
