<svg width="40" height="33" viewBox="0 0 40 33" fill="none" xmlns="http://www.w3.org/2000/svg">
<path d="M8 32.061C5.5 32.061 3.53333 31.361 2.1 29.961C0.7 28.5276 0 26.561 0 24.061V21.011C0 20.2443 0.216667 19.611 0.65 19.111C1.11667 18.5776 1.73333 18.211 2.5 18.011C2.86667 17.911 3.15 17.7943 3.35 17.661C3.58333 17.4943 3.75 17.2943 3.85 17.061C3.95 16.7943 4 16.461 4 16.061C4 15.661 3.95 15.3443 3.85 15.111C3.75 14.8443 3.58333 14.6443 3.35 14.511C3.15 14.3443 2.86667 14.1943 2.5 14.061C1.73333 13.8943 1.11667 13.561 0.65 13.061C0.216667 12.5276 0 11.8776 0 11.111V8.06098C0 5.52764 0.7 3.56097 2.1 2.16097C3.53333 0.760974 5.5 0.0609741 8 0.0609741H32C34.5 0.0609741 36.45 0.760974 37.85 2.16097C39.2833 3.56097 40 5.52764 40 8.06098V24.061C40 26.561 39.2833 28.5276 37.85 29.961C36.45 31.361 34.5 32.061 32 32.061H8ZM4 24.061C4 25.5943 4.28333 26.6443 4.85 27.211C5.41667 27.7776 6.46667 28.061 8 28.061H32C33.5333 28.061 34.5833 27.7776 35.15 27.211C35.7167 26.6443 36 25.5943 36 24.061V8.06098C36 6.52764 35.7167 5.47764 35.15 4.91097C34.5833 4.34431 33.5333 4.06097 32 4.06097H8C6.46667 4.06097 5.41667 4.34431 4.85 4.91097C4.28333 5.47764 4 6.52764 4 8.06098V11.111C4 11.011 3.95 10.8943 3.85 10.761C3.75 10.5943 3.65 10.4776 3.55 10.411C3.48333 10.311 3.45 10.2443 3.45 10.211C4.75 10.5776 5.83333 11.2943 6.7 12.361C7.56667 13.4276 8 14.661 8 16.061C8 17.461 7.56667 18.6943 6.7 19.761C5.83333 20.8276 4.75 21.5276 3.45 21.861C3.45 21.861 3.48333 21.8276 3.55 21.761C3.65 21.661 3.75 21.5443 3.85 21.411C3.95 21.2443 4 21.111 4 21.011V24.061ZM12 7.06097C12 6.22764 12.3333 5.66097 13 5.36097C13.6667 5.02764 14.3333 5.02764 15 5.36097C15.6667 5.66097 16 6.22764 16 7.06097V9.06097C16 9.89431 15.6667 10.4776 15 10.811C14.3333 11.111 13.6667 11.111 13 10.811C12.3333 10.4776 12 9.89431 12 9.06097V7.06097ZM12 23.061C12 22.2276 12.3333 21.661 13 21.361C13.6667 21.0276 14.3333 21.0276 15 21.361C15.6667 21.661 16 22.2276 16 23.061V25.061C16 25.8943 15.6667 26.4776 15 26.811C14.3333 27.111 13.6667 27.111 13 26.811C12.3333 26.4776 12 25.8943 12 25.061V23.061ZM12 15.061C12 14.2276 12.3333 13.661 13 13.361C13.6667 13.0276 14.3333 13.0276 15 13.361C15.6667 13.661 16 14.2276 16 15.061V17.061C16 17.8943 15.6667 18.4776 15 18.811C14.3333 19.111 13.6667 19.111 13 18.811C12.3333 18.4776 12 17.8943 12 17.061V15.061Z" fill="url(#paint0_linear_171_662)"/>
<defs>
<linearGradient id="paint0_linear_171_662" x1="-0.263062" y1="20.6703" x2="28.5659" y2="20.79" gradientUnits="userSpaceOnUse">
<stop stop-color="#0CEBEB"/>
<stop offset="0.472222" stop-color="#20E3B2"/>
<stop offset="1" stop-color="#29FFC6"/>
</linearGradient>
</defs>
</svg>
