<svg width="40" height="32" viewBox="0 0 40 32" fill="none" xmlns="http://www.w3.org/2000/svg">
<path d="M8 31.9999C5.5 31.9999 3.53333 31.2999 2.1 29.8999C0.7 28.4665 0 26.4999 0 23.9999V20.9499C0 20.1832 0.216667 19.5499 0.65 19.0499C1.11667 18.5165 1.73333 18.1499 2.5 17.9499C2.86667 17.8499 3.15 17.7332 3.35 17.5999C3.58333 17.4332 3.75 17.2332 3.85 16.9999C3.95 16.7332 4 16.3999 4 15.9999C4 15.5999 3.95 15.2832 3.85 15.0499C3.75 14.7832 3.58333 14.5832 3.35 14.4499C3.15 14.2832 2.86667 14.1332 2.5 13.9999C1.73333 13.8332 1.11667 13.4999 0.65 12.9999C0.216667 12.4665 0 11.8165 0 11.0499V7.99988C0 5.46654 0.7 3.49988 2.1 2.09988C3.53333 0.699878 5.5 -0.00012207 8 -0.00012207H32C34.5 -0.00012207 36.45 0.699878 37.85 2.09988C39.2833 3.49988 40 5.46654 40 7.99988V23.9999C40 26.4999 39.2833 28.4665 37.85 29.8999C36.45 31.2999 34.5 31.9999 32 31.9999H8ZM4 23.9999C4 25.5332 4.28333 26.5832 4.85 27.1499C5.41667 27.7165 6.46667 27.9999 8 27.9999H32C33.5333 27.9999 34.5833 27.7165 35.15 27.1499C35.7167 26.5832 36 25.5332 36 23.9999V7.99988C36 6.46654 35.7167 5.41654 35.15 4.84988C34.5833 4.28321 33.5333 3.99988 32 3.99988H8C6.46667 3.99988 5.41667 4.28321 4.85 4.84988C4.28333 5.41654 4 6.46654 4 7.99988V11.0499C4 10.9499 3.95 10.8332 3.85 10.6999C3.75 10.5332 3.65 10.4165 3.55 10.3499C3.48333 10.2499 3.45 10.1832 3.45 10.1499C4.75 10.5165 5.83333 11.2332 6.7 12.2999C7.56667 13.3665 8 14.5999 8 15.9999C8 17.3999 7.56667 18.6332 6.7 19.6999C5.83333 20.7665 4.75 21.4665 3.45 21.7999C3.45 21.7999 3.48333 21.7665 3.55 21.6999C3.65 21.5999 3.75 21.4832 3.85 21.3499C3.95 21.1832 4 21.0499 4 20.9499V23.9999ZM14.6 17.3999C14.0333 16.8332 13.8667 16.1999 14.1 15.4999C14.3333 14.7665 14.7833 14.2832 15.45 14.0499C16.15 13.8165 16.8 13.9999 17.4 14.5999L20 17.1499L26.6 10.5999C27.2 9.99988 27.8333 9.81655 28.5 10.0499C29.2 10.2832 29.6667 10.7665 29.9 11.4999C30.1333 12.1999 29.9667 12.8332 29.4 13.3999L21.45 21.3999C21.0167 21.8332 20.5333 22.0499 20 22.0499C19.4667 22.0165 18.9833 21.7832 18.55 21.3499L14.6 17.3999Z" fill="url(#paint0_linear_171_731)"/>
<defs>
<linearGradient id="paint0_linear_171_731" x1="-0.263062" y1="20.6093" x2="28.5659" y2="20.7289" gradientUnits="userSpaceOnUse">
<stop stop-color="#0CEBEB"/>
<stop offset="0.472222" stop-color="#20E3B2"/>
<stop offset="1" stop-color="#29FFC6"/>
</linearGradient>
</defs>
</svg>
