<svg width="14" height="14" viewBox="0 0 14 14" fill="none" xmlns="http://www.w3.org/2000/svg">
<path d="M6.59638 0.5C2.4246 0.5 0.621318 4.0945 0.621318 4.0945L1.15288 4.4585C1.15288 4.4585 0.486744 5.7 0.500201 7.26C0.500201 10.471 3.1513 13.5 7.04047 13.5C10.5798 13.5 13.5 10.7115 13.5 7.2665C13.5 2.775 9.89343 0.5 6.59638 0.5ZM6.63675 1.5985C9.89343 1.5985 12.4234 4.14 12.4234 7.091C12.4234 10.2175 9.98763 12.395 7.14813 12.395C5.06224 12.395 3.17821 10.861 3.17821 8.755C3.17821 7.533 3.84435 6.675 4.59796 6.233L4.70562 6.35C4.50376 6.506 3.91837 7.416 3.91837 8.3C3.91837 9.964 5.2641 11.1145 6.95973 11.1145C9.11963 11.1145 10.5596 9.3335 10.5596 7.2665C10.5596 4.8615 8.35929 2.8205 5.71492 2.8205C4.2548 2.8205 3.01673 3.425 2.30349 3.9645L2.1891 3.867C3.12438 2.476 4.73927 1.5985 6.63675 1.5985ZM5.64764 3.8995C7.34999 3.8995 8.99179 4.9785 9.40897 6.5125L9.25421 6.5645C8.52078 5.622 7.30962 4.842 5.88314 4.842C3.25223 4.842 1.87285 7.1495 2.07471 9.0735L1.91995 9.132C1.91995 9.132 1.63062 8.5145 1.63062 7.78C1.63062 5.6545 3.4339 3.8995 5.64764 3.8995ZM6.77805 6.5645C7.57204 6.5645 8.21126 7.195 8.21126 7.936C8.21126 8.547 7.80754 8.911 7.80754 8.911L8.28528 9.2425C8.28528 9.2425 7.80754 9.9705 6.83188 9.9705C5.8966 9.9705 5.06224 9.236 5.06224 8.2545C5.06224 7.247 5.96388 6.5645 6.77805 6.5645Z" fill="#76DBA1"/>
</svg>
