<svg width="80" height="37" viewBox="0 0 80 37" fill="none" xmlns="http://www.w3.org/2000/svg">
<path d="M68 19.3078C68 17.418 66.5364 15.8892 64.4692 15.8892C62.4429 15.8892 61 17.3592 61 19.3791C61 21.4091 62.4838 22.8892 64.6126 22.8892C65.9633 22.8892 67.0992 22.2989 67.8054 21.099L66.3728 20.449C66.0353 21.0489 65.2981 21.4389 64.6126 21.4389C63.7428 21.4389 62.74 20.799 62.6784 19.9092H67.9487C67.9823 19.7104 67.9995 19.5093 68 19.3078ZM62.709 18.73C62.8322 17.8301 63.4664 17.2403 64.4796 17.2403C65.4824 17.2403 66.0964 17.8181 66.1782 18.73H62.709Z" fill="#DBDBDB"/>
<path d="M47.4749 15.8892C45.4419 15.8892 44 17.3496 44 19.4094C44 21.449 45.4419 22.8892 47.4952 22.8892C49.5581 22.8892 51 21.449 51 19.4393C51 17.3693 49.5181 15.8892 47.4749 15.8892ZM47.4952 21.359C46.4733 21.359 45.8426 20.5992 45.8426 19.4191C45.8426 18.2192 46.4835 17.3992 47.4952 17.3992C48.5165 17.3992 49.1574 18.2091 49.1574 19.4191C49.1574 20.6093 48.5267 21.359 47.4952 21.359Z" fill="#DBDBDB"/>
<path d="M40.3584 15.8893C39.4986 15.8893 38.8509 16.1796 38.2032 16.8993H37.9906C37.5555 16.2494 36.8456 15.8893 36.049 15.8893C35.6513 15.8855 35.2584 15.975 34.9025 16.1506C34.5467 16.3262 34.2382 16.5828 34.0024 16.8993H33.7898L33.7793 16.8894V16.0295H32V22.8892H33.9227V19.359C33.9227 18.2192 34.4086 17.5491 35.2485 17.5491C36.0276 17.5491 36.5334 18.1193 36.5334 18.9891V22.8892H38.4661V19.359C38.4661 18.2275 38.952 17.5491 39.8023 17.5491C40.571 17.5491 41.0668 18.1193 41.0668 18.9994V22.8892H43V18.7692C43 16.9795 42.0282 15.8893 40.3584 15.8893Z" fill="#DBDBDB"/>
<path d="M72.0348 20.6038H71.8892C71.8892 20.4755 71.0004 18.1904 70.4177 16.7746L70.0536 15.8892H68L70.9133 23.1301L69.7654 25.8892H71.8047L76 15.8918H73.9454L73.6102 16.6488L72.4739 19.4054C72.1536 20.1754 72.0222 20.5324 72.0348 20.6038Z" fill="#DBDBDB"/>
<path d="M56.6426 15.8892C55.8779 15.8892 55.2211 16.2591 54.7804 16.9193H54.6002L54.5825 16.9095V16.0294H53V22.8892H54.7091V19.3791C54.7091 18.2594 55.1959 17.5589 55.9956 17.5589C56.7421 17.5589 57.2909 18.1787 57.2909 19.1587V22.8887H59V18.7494C59 17.0694 58.0105 15.8892 56.6426 15.8892Z" fill="#DBDBDB"/>
<path d="M18.4995 11.8892C14.3414 11.8892 11 15.2642 11 19.3892C11 23.5482 14.3743 26.8892 18.4985 26.8892C22.6228 26.8892 26 23.5142 26 19.3892C26 15.2642 22.6238 11.8892 18.4995 11.8892ZM18.4995 22.1847C16.9656 22.1847 15.7048 20.9232 15.7048 19.3892C15.7048 17.8552 16.9656 16.5937 18.4995 16.5937C20.0334 16.5937 21.2947 17.8552 21.2947 19.3892C21.2603 20.9232 20.0334 22.1847 18.4995 22.1847Z" fill="#8B3FFD"/>
<path d="M11 13.8892V24.8892H8.37167L5 13.8892H11Z" fill="#8B3FFD"/>
</svg>
