<svg width="59" height="61" viewBox="0 0 59 61" fill="none" xmlns="http://www.w3.org/2000/svg">
<path d="M56.8601 49.4207H52.5803V45.135H54.7202V36.5636H46.1607V38.7064H41.8809V34.4207C41.8809 33.8524 42.1063 33.3074 42.5076 32.9055C42.9089 32.5036 43.4532 32.2779 44.0208 32.2779H56.8601C57.4276 32.2779 57.9719 32.5036 58.3732 32.9055C58.7745 33.3074 59 33.8524 59 34.4207V47.2779C59 47.8462 58.7745 48.3912 58.3732 48.7931C57.9719 49.195 57.4276 49.4207 56.8601 49.4207Z" fill="url(#paint0_linear_1_1021)"/>
<path d="M46.1607 60.135H33.3213C32.7538 60.135 32.2095 59.9092 31.8082 59.5074C31.4069 59.1055 31.1814 58.5605 31.1814 57.9921V45.135C31.1814 44.5667 31.4069 44.0216 31.8082 43.6198C32.2095 43.2179 32.7538 42.9921 33.3213 42.9921H46.1607C46.7282 42.9921 47.2725 43.2179 47.6738 43.6198C48.0751 44.0216 48.3006 44.5667 48.3006 45.135V57.9921C48.3006 58.5605 48.0751 59.1055 47.6738 59.5074C47.2725 59.9092 46.7282 60.135 46.1607 60.135ZM35.4612 55.8493H44.0208V47.2779H35.4612V55.8493ZM26.9017 38.4021C25.3555 37.9986 23.9532 37.169 22.8542 36.0076C21.7552 34.8461 21.0034 33.3994 20.6842 31.8316C20.365 30.2638 20.4912 28.6377 21.0484 27.1382C21.6057 25.6386 22.5717 24.3255 23.8367 23.348C25.1018 22.3706 26.6152 21.7679 28.2051 21.6085C29.795 21.449 31.3976 21.7392 32.8311 22.446C34.2646 23.1528 35.4714 24.248 36.3146 25.6071C37.1578 26.9663 37.6035 28.535 37.6011 30.135H41.8809C41.8834 27.6832 41.1857 25.2817 39.8701 23.2139C38.5546 21.146 36.676 19.4979 34.4559 18.464C32.2358 17.43 29.7668 17.0533 27.3399 17.3783C24.9131 17.7032 22.6296 18.7163 20.7588 20.298C18.8879 21.8797 17.5077 23.9641 16.7809 26.3054C16.0541 28.6468 16.011 31.1474 16.6567 33.5125C17.3023 35.8775 18.6099 38.0084 20.4251 39.6538C22.2403 41.2993 24.4874 42.3907 26.9017 42.7993V38.4021Z" fill="url(#paint1_linear_1_1021)"/>
<path d="M56.6247 24.885L51.6816 29.235L48.6429 26.1922L53.8001 21.6493L48.7499 12.9064L41.3887 15.3922C39.6644 13.9549 37.7113 12.8176 35.611 12.0279L34.0917 4.42072H23.9914L22.4721 12.0279C20.3549 12.7956 18.3912 13.9348 16.673 15.3922L9.33316 12.9064L4.28302 21.6493L10.1035 26.7707C9.70762 28.9889 9.70762 31.2597 10.1035 33.4779L4.28302 38.6207L9.33316 47.3636L16.6944 44.8779C18.4187 46.3151 20.3718 47.4524 22.4721 48.2422L23.9914 55.8493H26.9017V60.135H23.9914C23.0018 60.1342 22.043 59.79 21.2783 59.161C20.5136 58.532 19.9902 57.657 19.7972 56.685L18.7059 51.285C17.7371 50.8118 16.8006 50.2749 15.9026 49.6779L10.7027 51.435C10.2605 51.5791 9.79816 51.6514 9.33316 51.6493C8.58147 51.6545 7.84203 51.4586 7.19122 51.0819C6.54041 50.7052 6.00184 50.1613 5.63115 49.5064L0.581011 40.7636C0.0815326 39.9043 -0.104071 38.8979 0.0559871 37.9167C0.216046 36.9354 0.711808 36.0405 1.45837 35.385L5.56695 31.785C5.52416 31.2279 5.50276 30.6922 5.50276 30.135C5.50276 29.5779 5.54555 29.0422 5.58835 28.5064L1.45837 24.885C0.711808 24.2296 0.216046 23.3346 0.0559871 22.3534C-0.104071 21.3721 0.0815326 20.3657 0.581011 19.5064L5.63115 10.7636C6.00184 10.1087 6.54041 9.56484 7.19122 9.18813C7.84203 8.81142 8.58147 8.61554 9.33316 8.62072C9.79816 8.61858 10.2605 8.69092 10.7027 8.83501L15.8812 10.5922C16.7865 9.99494 17.7301 9.45807 18.7059 8.98501L19.7972 3.58501C19.9902 2.61303 20.5136 1.73807 21.2783 1.10904C22.043 0.480012 23.0018 0.135806 23.9914 0.13501H34.0917C35.0813 0.135806 36.0401 0.480012 36.8048 1.10904C37.5695 1.73807 38.0929 2.61303 38.2859 3.58501L39.3772 8.98501C40.346 9.45818 41.2825 9.99507 42.1805 10.5922L47.3804 8.83501C47.8226 8.69092 48.2849 8.61858 48.7499 8.62072C49.5016 8.61554 50.2411 8.81142 50.8919 9.18813C51.5427 9.56484 52.0812 10.1087 52.4519 10.7636L57.5021 19.5064C58.0016 20.3657 58.1872 21.3721 58.0271 22.3534C57.867 23.3346 57.3713 24.2296 56.6247 24.885Z" fill="url(#paint2_linear_1_1021)"/>
<defs>
<linearGradient id="paint0_linear_1_1021" x1="68" y1="60" x2="-1.09584" y2="7.44061" gradientUnits="userSpaceOnUse">
<stop stop-color="#0CEBEB"/>
<stop offset="0.472222" stop-color="#20E3B2"/>
<stop offset="1" stop-color="#29FFC6"/>
</linearGradient>
<linearGradient id="paint1_linear_1_1021" x1="68" y1="60" x2="-1.09584" y2="7.44061" gradientUnits="userSpaceOnUse">
<stop stop-color="#0CEBEB"/>
<stop offset="0.472222" stop-color="#20E3B2"/>
<stop offset="1" stop-color="#29FFC6"/>
</linearGradient>
<linearGradient id="paint2_linear_1_1021" x1="68" y1="60" x2="-1.09584" y2="7.44061" gradientUnits="userSpaceOnUse">
<stop stop-color="#0CEBEB"/>
<stop offset="0.472222" stop-color="#20E3B2"/>
<stop offset="1" stop-color="#29FFC6"/>
</linearGradient>
</defs>
</svg>
