<svg width="68" height="49" viewBox="0 0 68 49" fill="none" xmlns="http://www.w3.org/2000/svg">
<path d="M24.4 2.13501L27.6 8.57735H40.4L43.6 2.13501M24.4 34.3467L14.9024 43.9072C13.8453 44.971 12.4987 45.6954 11.0326 45.9889C9.56661 46.2823 8.04706 46.1317 6.66609 45.5559C5.28512 44.9802 4.10474 44.0051 3.2742 42.7542C2.44366 41.5032 2.00024 40.0324 2 38.5278V34.3467L6.3424 12.4943C6.92238 9.57341 8.4898 6.94502 10.778 5.05633C13.0661 3.16764 15.9337 2.13532 18.8928 2.13501H49.1072C52.0663 2.13532 54.9339 3.16764 57.222 5.05633C59.5102 6.94502 61.0776 9.57341 61.6576 12.4943L66 34.3467V38.5246C65.9998 40.0292 65.5563 41.5 64.7258 42.751C63.8953 44.0019 62.7149 44.9769 61.3339 45.5527C59.9529 46.1285 58.4334 46.2791 56.9674 45.9857C55.5013 45.6922 54.1547 44.9677 53.0976 43.9039L43.6 34.3467H24.4Z" stroke="url(#paint0_linear_1_1018)" stroke-width="4" stroke-linecap="round" stroke-linejoin="round"/>
<defs>
<linearGradient id="paint0_linear_1_1018" x1="1.5791" y1="30.4729" x2="47.7051" y2="30.6956" gradientUnits="userSpaceOnUse">
<stop stop-color="#0CEBEB"/>
<stop offset="0.472222" stop-color="#20E3B2"/>
<stop offset="1" stop-color="#29FFC6"/>
</linearGradient>
</defs>
</svg>
