<svg width="37" height="38" viewBox="0 0 37 38" fill="none" xmlns="http://www.w3.org/2000/svg">
<path d="M23.497 3.10767H13.584V21.003H23.497V3.10767Z" fill="#FF5F00"/>
<path d="M14.2135 12.0549C14.2119 10.3314 14.6007 8.6302 15.3503 7.08C16.1 5.52979 17.191 4.17125 18.5406 3.1072C16.8693 1.78753 14.8621 0.966844 12.7484 0.73895C10.6348 0.511055 8.49998 0.885137 6.58797 1.81845C4.67596 2.75177 3.06392 4.20666 1.9361 6.01683C0.808286 7.82699 0.210205 9.91939 0.210205 12.0549C0.210205 14.1904 0.808286 16.2828 1.9361 18.0929C3.06392 19.9031 4.67596 21.358 6.58797 22.2913C8.49998 23.2246 10.6348 23.5987 12.7484 23.3708C14.8621 23.1429 16.8693 22.3222 18.5406 21.0026C17.191 19.9385 16.1 18.5799 15.3504 17.0297C14.6007 15.4795 14.2119 13.7783 14.2135 12.0549Z" fill="#EB001B"/>
<path d="M36.8703 12.0549C36.8704 14.1903 36.2724 16.2827 35.1446 18.0929C34.0169 19.9031 32.4049 21.3579 30.4929 22.2913C28.5809 23.2246 26.4461 23.5987 24.3325 23.3708C22.2189 23.1429 20.2118 22.3222 18.5405 21.0026C19.8889 19.9374 20.979 18.5787 21.7286 17.0287C22.4781 15.4787 22.8676 13.7781 22.8676 12.0549C22.8676 10.3317 22.4781 8.631 21.7286 7.08105C20.979 5.53109 19.8889 4.17232 18.5405 3.10719C20.2118 1.78752 22.2189 0.966838 24.3325 0.738947C26.4461 0.511055 28.5809 0.885153 30.4929 1.81848C32.4049 2.75181 34.0169 4.2067 35.1446 6.01686C36.2724 7.82703 36.8704 9.91942 36.8703 12.0549Z" fill="#F79E1B"/>
<path d="M35.7895 19.1065V18.7402H35.9365V18.6655H35.562V18.7402H35.7091V19.1065H35.7895ZM36.5166 19.1065V18.6648H36.4018L36.2698 18.9686L36.1377 18.6648H36.0228V19.1065H36.1039V18.7733L36.2277 19.0606H36.3118L36.4356 18.7726V19.1065H36.5166Z" fill="#F79E1B"/>
<path d="M16.1659 37.1362H13.281L15.0854 25.6449H17.9701L16.1659 37.1362Z" fill="#00579F"/>
<path d="M26.6238 25.925C26.0548 25.6925 25.1523 25.4358 24.0363 25.4358C21.1874 25.4358 19.1812 27.0005 19.1689 29.2375C19.1452 30.888 20.6053 31.8047 21.6973 32.3551C22.8134 32.9174 23.1928 33.2844 23.1928 33.7857C23.1814 34.5555 22.2909 34.9104 21.4603 34.9104C20.3085 34.9104 19.6914 34.7274 18.7535 34.2991L18.3737 34.1155L17.97 36.6951C18.6466 37.0126 19.8932 37.2943 21.1874 37.3067C24.2144 37.3067 26.1851 35.7662 26.2084 33.3823C26.2199 32.0741 25.449 31.0718 23.7869 30.2527C22.7779 29.7269 22.16 29.3724 22.16 28.8344C22.1718 28.3453 22.6826 27.8444 23.8216 27.8444C24.7594 27.8199 25.4485 28.0521 25.9705 28.2844L26.2315 28.4064L26.6238 25.925Z" fill="#00579F"/>
<path d="M30.4582 33.0653C30.6958 32.4051 31.61 29.8501 31.61 29.8501C31.598 29.8746 31.8471 29.1777 31.9896 28.7499L32.1912 29.7401C32.1912 29.7401 32.7375 32.4907 32.8561 33.0653C32.4053 33.0653 31.0281 33.0653 30.4582 33.0653ZM34.0193 25.6449H31.7878C31.0997 25.6449 30.5769 25.8525 30.28 26.5983L25.9949 37.1361H29.0219C29.0219 37.1361 29.5202 35.7178 29.6273 35.4123C29.9594 35.4123 32.9041 35.4123 33.3313 35.4123C33.4141 35.8157 33.6755 37.1361 33.6755 37.1361H36.3466L34.0193 25.6449Z" fill="#00579F"/>
<path d="M10.8718 25.6449L8.04652 33.4809L7.7378 31.8917C7.21547 30.0579 5.57734 28.0655 3.74927 27.0749L6.33709 37.124H9.38776L13.9223 25.6449H10.8718Z" fill="#00579F"/>
<path d="M5.42285 25.6449H0.781371L0.733887 25.8771C4.35453 26.8307 6.75241 29.1293 7.73759 31.8921L6.72859 26.6108C6.56247 25.8769 6.05198 25.6691 5.42285 25.6449Z" fill="#FAA61A"/>
</svg>
