<svg width="22" height="15" viewBox="0 0 22 15" fill="none" xmlns="http://www.w3.org/2000/svg">
<path d="M11.9825 14.8892C4.466 14.8892 0.17864 9.63386 0 0.88916H3.7651C3.8888 7.30756 6.6646 10.0263 8.8632 10.5869V0.88916H12.4085V6.42466C14.5796 6.18646 16.8607 3.66396 17.6302 0.88916H21.1755C20.8855 2.32826 20.3075 3.69086 19.4776 4.89166C18.6477 6.09246 17.5837 7.10576 16.3523 7.86816C17.7269 8.56476 18.941 9.55066 19.9145 10.7609C20.888 11.9712 21.5988 13.3782 22 14.8892H18.0974C17.7373 13.5768 17.0054 12.402 15.9934 11.512C14.9814 10.622 13.7343 10.0565 12.4085 9.88616V14.8892H11.9825Z" fill="#E4EDEF" fill-opacity="0.78"/>
</svg>
