<svg width="18" height="13" viewBox="0 0 18 13" fill="none" xmlns="http://www.w3.org/2000/svg">
<path d="M9.73688 11.7498C4.0995 11.7498 0.88398 7.80828 0.75 1.24976H3.57382C3.6666 6.06356 5.74845 8.10258 7.3974 8.52303V1.24976H10.0564V5.40138C11.6847 5.22273 13.3955 3.33086 13.9726 1.24976H16.6316C16.4141 2.32908 15.9806 3.35103 15.3582 4.25163C14.7358 5.15223 13.9378 5.91221 13.0142 6.48401C14.0452 7.00646 14.9557 7.74588 15.6859 8.65353C16.416 9.56126 16.9491 10.6165 17.25 11.7498H14.3231C14.053 10.7655 13.5041 9.88436 12.7451 9.21686C11.9861 8.54936 11.0507 8.12523 10.0564 7.99751V11.7498H9.73688Z" fill="#62646C" stroke="#62646C" stroke-width="0.75"/>
</svg>
