<svg width="37" height="36" viewBox="0 0 37 36" fill="none" xmlns="http://www.w3.org/2000/svg">
<path d="M34.9408 29.8401V31.815C34.9408 32.8626 34.5342 33.8673 33.8105 34.608C33.0868 35.3488 32.1053 35.7649 31.0818 35.7649H4.06916C3.0457 35.7649 2.06416 35.3488 1.34047 34.608C0.616772 33.8673 0.210205 32.8626 0.210205 31.815V4.16572C0.210205 3.11814 0.616772 2.11347 1.34047 1.37272C2.06416 0.631969 3.0457 0.21582 4.06916 0.21582H31.0818C32.1053 0.21582 33.0868 0.631969 33.8105 1.37272C34.5342 2.11347 34.9408 3.11814 34.9408 4.16572V6.14067H17.5755C16.552 6.14067 15.5705 6.55682 14.8468 7.29757C14.1231 8.03832 13.7165 9.043 13.7165 10.0906V25.8902C13.7165 26.9378 14.1231 27.9424 14.8468 28.6832C15.5705 29.4239 16.552 29.8401 17.5755 29.8401M17.5755 25.8902H36.8702V10.0906H17.5755M25.2934 20.9528C24.5258 20.9528 23.7896 20.6407 23.2469 20.0851C22.7041 19.5296 22.3992 18.7761 22.3992 17.9904C22.3992 17.2047 22.7041 16.4512 23.2469 15.8956C23.7896 15.3401 24.5258 15.028 25.2934 15.028C26.061 15.028 26.7971 15.3401 27.3399 15.8956C27.8827 16.4512 28.1876 17.2047 28.1876 17.9904C28.1876 18.7761 27.8827 19.5296 27.3399 20.0851C26.7971 20.6407 26.061 20.9528 25.2934 20.9528Z" fill="url(#paint0_linear_251_988)"/>
<defs>
<linearGradient id="paint0_linear_251_988" x1="53.2708" y1="31.815" x2="26.1263" y2="-23.754" gradientUnits="userSpaceOnUse">
<stop offset="0.15042" stop-color="#5745F2"/>
<stop offset="0.392527" stop-color="#59B1FF"/>
<stop offset="0.616694" stop-color="#38D2FF"/>
<stop offset="1" stop-color="#64FFB4"/>
</linearGradient>
</defs>
</svg>
