<svg width="18" height="18" viewBox="0 0 18 18" fill="none" xmlns="http://www.w3.org/2000/svg">
<path d="M16.8068 16.0733L13.7152 13.0066C14.9152 11.5103 15.4964 9.61104 15.3392 7.69938C15.1819 5.78771 14.2982 4.00895 12.8698 2.72883C11.4413 1.44872 9.57667 0.764548 7.65924 0.817018C5.74183 0.869488 3.9174 1.6546 2.56109 3.01091C1.20477 4.36723 0.419658 6.19166 0.367188 8.10906C0.314728 10.0264 0.998888 11.8911 2.279 13.3195C3.55912 14.748 5.33789 15.6317 7.24955 15.7889C9.16117 15.9462 11.0605 15.365 12.5568 14.1649L15.6235 17.2316C15.701 17.3097 15.7931 17.3717 15.8947 17.414C15.9962 17.4563 16.1052 17.4781 16.2152 17.4781C16.3252 17.4781 16.4341 17.4563 16.5356 17.414C16.6372 17.3717 16.7294 17.3097 16.8068 17.2316C16.957 17.0762 17.041 16.8685 17.041 16.6524C17.041 16.4363 16.957 16.2286 16.8068 16.0733ZM7.8818 14.1649C6.72808 14.1649 5.60026 13.8228 4.64097 13.1818C3.68169 12.5409 2.93401 11.6298 2.4925 10.5639C2.05099 9.49804 1.93547 8.32516 2.16055 7.1936C2.38563 6.06205 2.94121 5.02264 3.75701 4.20684C4.57282 3.39103 5.61222 2.83546 6.74377 2.61038C7.87533 2.3853 9.04817 2.50082 10.1142 2.94233C11.1801 3.38384 12.0911 4.13151 12.7321 5.0908C13.373 6.05009 13.7152 7.1779 13.7152 8.33163C13.7152 9.87874 13.1006 11.3624 12.0066 12.4564C10.9127 13.5503 9.42887 14.1649 7.8818 14.1649Z" fill="#95979F"/>
</svg>
